<svg width="840" height="548" viewBox="0 0 840 548" fill="none" xmlns="http://www.w3.org/2000/svg">
<path d="M560.233 21.7025L280.116 0L0 24.5414V546.596L280.116 533.674L560.233 548L840 526.132V9.56738L560.233 21.7025Z" fill="#FFF1EB"/>
<path d="M286.129 521.772L19.9814 534.03V38.7886L286.129 15.5078V521.772Z" fill="#BDD0FB"/>
<path d="M552.277 535.362L286.129 521.772V15.5078L552.277 36.0956V535.362Z" fill="#BDD0FB"/>
<path d="M818.092 514.617L552.277 535.362V36.0952L818.092 24.5835V514.617Z" fill="#BDD0FB"/>
<path d="M18.9491 274.365L18.934 530.721L286.129 522.437L545.287 534.03L822.069 524.144L801.807 499.725C738.649 468.434 685.196 436.488 649.762 403.329L18.9491 274.365Z" fill="#4F52FF"/>
<path d="M146.569 331.398C145.692 332.871 105.171 324.142 97.5541 329.9C94.9705 331.853 93.2775 334.714 90.2901 336.161C83.8855 339.262 76.4358 334.292 71.3394 329.695C67.1562 325.921 62.9731 322.147 58.7896 318.373C56.7345 316.52 54.5864 314.515 54.0231 311.98C53.0819 307.746 56.8066 303.889 57.9865 299.701C59.3342 294.917 56.9654 289.504 52.3107 286.73C45.6805 282.779 36.5772 284.442 29.0857 281.932C26.9221 281.208 24.8082 280.036 23.8048 278.209C23.1546 277.025 23.0303 275.678 22.9905 274.365C22.7429 266.167 25.5981 256.487 31.2355 249.783C38.1012 241.62 50.8854 239.85 62.1263 237.398C73.3672 234.946 85.989 229.324 87.2176 219.243C87.9319 213.371 86.5996 207.338 84.8984 201.19C82.4711 192.418 79.2923 183.413 80.2332 174.306C82.3484 153.833 101.415 144.391 110.106 126.411C114.857 116.583 114.51 104.819 121.878 96.3144C133.936 82.3965 158.263 85.064 177.675 89.1353C197.005 93.189 217.449 97.7834 231.243 110.303C234.347 113.121 237.095 116.328 240.853 118.45C254.96 126.418 274.125 114.21 278.719 100.075C280.876 93.4366 283.703 87.3714 290.987 83.9203C303.148 78.1578 318.284 84.1183 328.996 91.7714C339.709 99.4245 349.437 109.155 362.827 112.185C368.301 113.424 374.074 113.439 379.512 114.794C384.951 116.149 390.365 119.363 391.533 124.203C391.836 125.458 391.874 126.842 392.787 127.845C393.623 128.763 394.997 129.136 396.286 129.461C401.976 130.897 407.666 132.332 413.356 133.768C417.556 138.98 419.068 145.786 417.405 151.995C423.665 154.263 431.12 151.419 435.459 146.867C446.082 135.724 443.226 127.54 457.389 117.922C470.509 109.013 476.335 92.6905 471.342 78.8336C484.447 72.3207 501.827 66.0381 513.373 74.5131C517.357 77.4378 519.898 81.7832 524.337 84.155C532.956 88.7608 544.165 83.9184 551.604 77.9344C566.568 65.8973 571.895 60.6088 590.386 67.6157C619.745 78.7415 636.872 82.8998 664.769 67.1222C685.942 55.1474 706.011 45.0883 731.205 54.1487C749.518 60.7342 767.738 67.5164 785.86 74.4924C791.094 76.507 796.762 78.9126 799.066 83.4904C803.537 92.3735 792.508 102.88 796.647 111.885C798.1 115.047 801.195 117.363 803.583 120.056C810.649 128.026 811.25 138.866 811.556 148.949C811.759 155.627 811.945 162.427 809.858 168.853C804.163 186.381 783.853 196.342 768.303 208.467C746.879 225.171 732.722 248.841 729.249 273.762C728.369 280.075 728.35 287.045 732.776 292.09C736.049 295.821 741.185 297.834 745.924 300.056C761.628 307.421 774.703 318.346 787.565 329.134C790.479 331.578 793.406 334.035 795.838 336.853C814.26 358.201 802.803 403.023 786.61 422.907C777.038 434.661 770.84 452.217 757.351 461.059C750.062 465.836 756.463 476.737 765.124 479.204C773.785 481.671 783.406 479.795 792.181 481.931C800.956 484.067 808.375 494.159 801.857 499.725C787.11 491.239 768.374 502.011 751.046 504.956C735.361 507.622 719.323 503.5 704.04 499.42C692.911 496.449 681.782 493.477 670.653 490.506C665.271 489.069 659.613 487.483 655.836 483.835C652.319 480.436 650.989 475.787 649.049 471.528C643.33 458.975 631.17 448.792 616.583 444.342C609.102 442.059 600.311 440.777 595.85 435.048C591.022 428.849 593.016 419.276 586.401 414.502C579.375 409.432 568.214 414.322 563.748 421.267C559.283 428.212 558.702 436.568 555.078 443.879C546.272 461.641 521.869 475.107 503.787 484.698C478.71 498 449.993 506.01 420.742 507.862C412.193 508.403 403.256 508.365 395.51 505.154C380.879 499.091 374.896 484.031 369.524 470.67C362.827 454.017 353.656 457.639 337.938 455.116C320.669 452.344 303.858 443.352 288.363 436.436C280.264 432.822 271.618 428.73 267.72 421.545C262.649 412.202 267.56 400.853 275.159 392.929C282.758 385.006 292.829 379.135 300.539 371.294C302.348 369.454 304.07 367.417 304.59 365.033C305.703 359.924 301.116 355.346 296.885 351.692C284.279 340.803 267.962 328.998 250.933 333.27C238.858 336.3 231.345 346.428 223.684 355.136C210.44 370.19 193.739 382.906 174.868 392.306C153.606 402.896 157.166 377.192 137.81 372.876C133.666 371.952 128.482 370.957 127.439 367.329C126.832 365.217 128.002 363.058 129.138 361.121C134.947 351.215 140.757 341.309 146.569 331.398Z" fill="#7D97F4"/>
<path d="M147.686 333.706L147.23 331.957C149.555 331.492 151.599 330.786 153.478 329.796C159.034 326.871 162.27 321.919 165.697 316.677C167.967 313.203 170.315 309.612 173.414 306.627C180.584 299.724 190.968 296.677 201.011 293.73C202.911 293.173 204.803 292.617 206.665 292.039C221.795 287.336 230.642 280.713 232.961 272.353C233.77 269.435 233.519 266.727 232.255 264.729C231.111 262.921 229.078 261.549 227.263 260.404C221.371 256.687 214.886 253.511 208.614 250.44C201.261 246.839 193.659 243.116 186.897 238.474C175.124 230.391 163.802 216.543 167.333 201.914C169.13 194.469 174.491 188.199 179.677 182.135C185.429 175.408 190.863 169.053 191.879 161.227C193.287 150.379 185.245 140.71 177.249 135.278C167.871 128.908 155.92 125.472 145.376 122.442C139.707 120.811 133.28 118.96 126.987 119.474C122.021 119.875 117.299 121.625 112.552 124.824L111.3 123.404C116.364 119.991 121.434 118.121 126.798 117.687C133.515 117.143 140.157 119.053 146.017 120.737C156.719 123.813 168.849 127.301 178.506 133.861C186.942 139.592 195.421 149.844 193.917 161.43C192.839 169.739 186.982 176.587 181.319 183.211C176.267 189.118 171.043 195.227 169.34 202.285C166.003 216.107 176.876 229.313 188.163 237.062C194.799 241.619 202.332 245.307 209.617 248.875C215.938 251.97 222.476 255.172 228.463 258.948C230.459 260.207 232.701 261.729 234.05 263.86C235.99 266.928 235.613 270.402 234.954 272.776C232.462 281.762 223.176 288.812 207.353 293.729C205.479 294.312 203.575 294.87 201.664 295.431C191.87 298.305 181.743 301.276 174.933 307.835C171.985 310.673 169.694 314.178 167.478 317.568C164.072 322.779 160.55 328.167 154.537 331.333C152.496 332.407 150.191 333.205 147.686 333.706Z" fill="#BDD0FB" fill-opacity="0.5"/>
<path d="M372.542 475.638C372.462 467.1 374.274 458.716 377.513 452.636L384.245 439.999C385.287 438.041 386.365 436.016 387.658 434.099C396.643 420.774 413.097 417.315 429.18 414.916C430.804 414.673 432.785 414.437 434.881 414.189C447.482 412.691 468.572 410.184 470.039 398.925C470.574 394.815 468.587 390.767 466.359 387.004C466.065 386.508 465.767 386.011 465.467 385.514C463.413 382.108 461.29 378.585 460.677 374.67C459.583 367.68 463.802 359.902 471.426 354.855C478.573 350.122 487.412 347.978 495.116 346.619C506.487 344.613 518.135 343.463 529.736 343.463H531.265C545.712 343.463 562.014 343.582 569.997 331.022L571.789 331.836C563.307 345.183 546.582 345.257 531.715 345.257C531.565 345.257 531.415 345.257 531.265 345.257H529.738C518.272 345.257 506.76 346.395 495.522 348.378C488.045 349.696 479.481 351.712 472.664 356.226C465.621 360.889 461.714 368.039 462.709 374.397C463.273 377.999 465.311 381.394 467.281 384.662C467.583 385.164 467.885 385.671 468.181 386.172C470.557 390.186 472.674 394.537 472.077 399.124C470.43 411.771 448.35 414.396 435.157 415.964C432.988 416.222 431.115 416.446 429.524 416.683C413.917 419.012 397.964 422.347 389.425 435.01C388.183 436.852 387.126 438.837 386.103 440.757L379.372 453.394C376.258 459.241 374.515 467.343 374.593 475.624L372.542 475.638Z" fill="#BDD0FB" fill-opacity="0.5"/>
<path d="M658.721 385.262C653.356 385.262 648.499 382.355 643.962 379.338L632.346 371.616L633.586 370.188L645.203 377.91C649.844 380.995 654.816 383.964 660.04 383.397C664.712 382.895 668.245 379.828 671.985 376.581C675.914 373.17 679.976 369.643 685.55 369.283C690.366 368.963 694.523 371.166 698.54 373.289C700.455 374.302 702.435 375.349 704.434 376.087C711.066 378.536 718.728 377.882 725.488 377.307C733.474 376.628 741.302 375.266 744.485 369.95C747.292 365.26 744.901 359.479 741.285 355.832C737.819 352.336 733.042 349.909 728.424 347.562C727.748 347.219 727.073 346.876 726.403 346.53C724.87 345.741 723.425 344.919 722.592 343.553C721.67 342.042 721.809 340.31 721.921 338.918C721.918 331.818 722.14 321.278 724.058 312.464C724.622 309.875 725.854 307.295 727.046 304.8C729.059 300.588 730.96 296.609 730.054 292.462C729.731 290.982 729.022 289.574 728.272 288.084C727.236 286.026 726.164 283.898 726.178 281.537C726.185 280.371 726.46 279.255 726.727 278.175C726.984 277.135 727.226 276.153 727.23 275.171C727.242 271.904 724.676 269.047 721.817 266.165C718.668 262.992 714.546 259.888 710.181 256.601C698.992 248.175 686.31 238.626 687.69 225.142C688.384 218.365 693.394 211.732 702.582 205.428C703.577 204.746 704.605 204.04 704.857 203.135C705.246 201.738 703.645 200.297 702.656 199.561C689.866 190.049 670.017 195.059 659.322 198.892C656.759 199.81 654.144 200.821 651.614 201.798C643.082 205.094 634.259 208.502 624.833 209.495C617.864 210.227 611.904 208.068 606.141 205.979C602.933 204.816 599.617 203.613 596.102 202.884C589.533 201.522 581.398 202.761 578.556 207.762C577.426 209.748 577.243 212.031 577.05 214.448C576.831 217.165 576.606 219.975 574.932 222.4C571.464 227.425 563.903 228.207 556.965 228.31C554.495 228.342 551.348 228.169 548.013 227.981C537.436 227.388 522.95 226.572 517.613 232.059C517.37 232.419 516.661 234.786 516.143 236.514C515.448 238.833 514.791 241.024 514.284 241.963C513.52 243.38 512.517 244.606 511.548 245.792C509.917 247.787 508.376 249.671 508.142 252.245C507.494 259.378 517.302 263.546 525.92 266.381C539.307 270.784 551.964 276.971 564.204 282.954C571.894 286.714 580.611 290.976 585.844 298.035C594.485 309.692 587.233 316.502 579 321.625C577.515 322.55 575.98 323.504 574.995 324.792C573.048 327.338 573.453 330.73 574.085 334.275L572.058 334.552C571.39 330.798 570.934 326.875 573.291 323.795C574.485 322.233 576.252 321.134 577.811 320.164C586.844 314.542 591.374 308.793 584.123 299.01C579.167 292.325 570.686 288.178 563.203 284.52C551.029 278.57 538.441 272.416 525.198 268.06C515.908 265.004 505.341 260.429 506.097 252.103C506.377 249.032 508.158 246.855 509.88 244.749C510.797 243.627 511.744 242.468 512.43 241.197C512.856 240.408 513.548 238.098 514.159 236.059C515.239 232.456 515.619 231.341 516.051 230.897C522.055 224.725 536.52 225.537 548.144 226.191C551.437 226.376 554.548 226.553 556.93 226.516C563.307 226.422 570.225 225.749 573.176 221.474C574.594 219.418 574.793 216.943 575.003 214.323C575.203 211.837 575.409 209.267 576.719 206.963C580.192 200.853 589.447 199.658 596.574 201.139C600.249 201.901 603.643 203.131 606.926 204.322C612.699 206.415 618.153 208.392 624.587 207.714C633.709 206.754 642.39 203.401 650.785 200.157C653.327 199.176 655.955 198.161 658.545 197.232C669.671 193.245 690.368 188.069 703.984 198.195C706.346 199.951 707.337 201.806 706.849 203.559C706.429 205.069 704.998 206.051 703.847 206.841C695.123 212.827 690.374 219.039 689.732 225.302C688.446 237.868 700.175 246.7 711.518 255.241C715.941 258.573 720.119 261.718 723.366 264.99C726.49 268.139 729.295 271.288 729.28 275.177C729.276 276.348 728.999 277.469 728.731 278.555C728.476 279.59 728.234 280.568 728.228 281.546C728.216 283.525 729.154 285.388 730.148 287.361C730.912 288.877 731.702 290.445 732.069 292.126C733.089 296.803 730.979 301.22 728.938 305.493C727.734 308.014 726.596 310.395 726.072 312.801C724.187 321.465 723.969 331.892 723.969 338.982C723.848 340.523 723.804 341.731 724.401 342.709C724.983 343.664 726.172 344.331 727.444 344.986C728.11 345.329 728.781 345.67 729.454 346.012C734.218 348.432 739.144 350.935 742.834 354.657C746.906 358.765 749.557 365.345 746.301 370.783C742.657 376.87 733.835 378.4 725.687 379.093C718.683 379.69 710.746 380.367 703.636 377.74C701.5 376.951 699.457 375.871 697.48 374.826C693.566 372.756 689.87 370.804 685.701 371.072C680.883 371.385 677.262 374.528 673.429 377.855C669.609 381.172 665.658 384.601 660.29 385.178C659.762 385.234 659.239 385.262 658.721 385.262Z" fill="#BDD0FB" fill-opacity="0.5"/>
<path d="M235.183 274.209L233.769 272.909C245.204 263.387 262.589 263.367 276.456 264.418C277.963 264.531 279.478 264.654 280.999 264.778C294.197 265.85 307.846 266.96 319.585 262.115C322.942 260.73 324.958 259.14 325.751 257.255C326.27 256.019 326.27 254.65 326.27 253.202C326.271 252.486 326.271 251.745 326.337 251.008C326.786 246.018 330.342 241.157 336.092 237.671C341.135 234.615 346.98 232.973 352.633 231.386L412.255 214.649C416.891 213.348 421.686 212.002 425.758 209.613C432.243 205.808 446.627 195.308 440.128 180.027C439.856 179.388 439.551 178.756 439.246 178.125C438.474 176.526 437.675 174.874 437.392 173.075C436.674 168.518 439.562 163.515 444.75 160.329C445.215 160.043 445.699 159.766 446.186 159.487C448.209 158.328 450.121 157.233 450.776 155.507C451.54 153.497 450.331 151.416 449.051 149.213C448.416 148.119 447.759 146.987 447.322 145.821C446.165 142.725 446.662 139.499 447.142 136.38C447.573 133.585 447.98 130.946 447.291 128.41L449.286 127.995C450.063 130.855 449.612 133.785 449.175 136.619C448.704 139.673 448.26 142.557 449.272 145.264C449.659 146.298 450.279 147.367 450.88 148.4C452.293 150.835 453.756 153.351 452.722 156.073C451.842 158.392 449.434 159.771 447.31 160.987C446.841 161.256 446.375 161.523 445.929 161.797C441.363 164.601 438.809 168.931 439.424 172.829C439.67 174.393 440.381 175.867 441.135 177.426C441.451 178.081 441.768 178.737 442.05 179.401C446.912 190.833 441.248 202.684 426.9 211.102C422.588 213.632 417.653 215.017 412.882 216.357L353.26 233.094C347.75 234.641 342.052 236.241 337.26 239.146C332.019 242.322 328.782 246.698 328.382 251.148C328.322 251.815 328.322 252.489 328.321 253.202C328.321 254.744 328.321 256.338 327.675 257.874C326.688 260.223 324.328 262.142 320.46 263.738C308.216 268.791 294.283 267.66 280.809 266.564C279.292 266.441 277.782 266.318 276.28 266.204C262.839 265.188 246.024 265.182 235.183 274.209Z" fill="#BDD0FB" fill-opacity="0.5"/>
<path d="M599.127 203.368C592.864 197.824 594.535 188.339 599.768 182.373C603.966 177.587 609.896 174.346 615.632 171.211C616.943 170.495 618.251 169.779 619.537 169.047C627.356 164.596 634.568 159.331 640.971 153.4C642.742 151.76 644.508 149.98 644.941 147.848C645.814 143.551 640.887 139.861 638.728 138.474C634.964 136.057 630.679 134.167 626.536 132.338C623.308 130.915 619.971 129.443 616.852 127.715C608.026 122.827 602.798 116.24 602.51 109.641C602.36 106.215 603.442 102.699 604.489 99.2983C606.129 93.9654 607.679 88.9285 604.289 84.9892C602.128 82.4768 598.617 81.3547 594.9 80.166C593.77 79.8051 592.602 79.4319 591.487 79.0185C584.019 76.2504 577.77 70.9744 574.344 64.5454L576.202 63.7869C579.417 69.8198 585.279 74.7692 592.286 77.3664C593.354 77.7625 594.498 78.1277 595.603 78.4817C599.437 79.7071 603.401 80.9738 605.927 83.9102C609.919 88.5495 608.165 94.2513 606.469 99.7647C605.462 103.036 604.422 106.419 604.559 109.573C604.821 115.573 609.701 121.633 617.948 126.2C620.983 127.88 624.275 129.333 627.459 130.737C631.677 132.599 636.04 134.523 639.941 137.029C645.158 140.381 647.717 144.439 646.96 148.162C646.428 150.783 644.359 152.876 642.462 154.632C635.947 160.667 628.611 166.023 620.655 170.552C619.359 171.29 618.04 172.011 616.718 172.734C611.137 175.784 605.366 178.938 601.395 183.465C596.696 188.823 595.108 197.26 600.586 202.108L599.127 203.368Z" fill="#BDD0FB" fill-opacity="0.5"/>
<path d="M398.51 424.622C397.764 424.622 397.043 424.446 396.44 424.103L395.852 423.769L395.995 423.168C396.532 420.913 396.914 418.15 395.092 416.804C393.773 415.83 391.803 415.94 389.716 416.046C389.105 416.077 388.498 416.12 387.907 416.12C387.885 416.12 387.863 416.12 387.841 416.12C385.639 416.12 383.318 415.225 382.177 413.942C381.419 413.088 381.178 412.107 381.479 411.108C381.786 410.09 382.609 409.36 383.27 408.774L403.085 391.203C407.051 387.686 411.152 384.049 415.858 381.079C417.827 379.835 419.915 378.703 421.934 377.608C424.861 376.02 427.888 374.378 430.514 372.409C432.897 370.621 438.376 365.808 437.781 359.75C437.533 357.226 435.715 354.647 433.149 353.179C431.106 352.01 428.88 351.69 426.882 352.285C425.687 352.639 424.607 353.272 423.464 353.941C423.042 354.188 422.621 354.435 422.193 354.669C416.1 357.995 407.986 358.942 399.343 357.345C391.716 355.935 384.708 352.868 377.931 349.903C370.787 346.778 361.307 341.702 361.45 333.746C361.52 329.825 363.954 326.479 366.308 323.243L367.086 322.169C378.409 306.361 381.366 287.642 374.996 272.097C368.012 255.055 349.084 242.932 330.105 243.311L330.06 241.517C330.35 241.512 330.643 241.51 330.933 241.51C350.52 241.51 369.761 254.004 376.927 271.491C383.507 287.55 380.477 306.851 368.823 323.121L368.038 324.206C365.837 327.231 363.562 330.36 363.5 333.773C363.377 340.642 371.637 345.144 378.848 348.298C385.509 351.213 392.398 354.227 399.767 355.59C407.889 357.092 415.467 356.225 421.107 353.147C421.516 352.923 421.919 352.687 422.322 352.451C423.526 351.745 424.771 351.016 426.224 350.585C428.832 349.812 431.69 350.202 434.271 351.677C437.391 353.462 439.519 356.497 439.823 359.596C440.3 364.444 437.393 369.61 431.848 373.77C429.103 375.83 426.007 377.509 423.013 379.132C421.025 380.211 418.968 381.326 417.057 382.533C412.491 385.415 408.451 388.997 404.545 392.462L384.729 410.031C384.214 410.489 383.629 411.006 383.461 411.563C383.326 412.012 383.435 412.427 383.796 412.833C384.555 413.687 386.306 414.287 387.887 414.311C388.445 414.306 389.018 414.276 389.595 414.247C391.88 414.134 394.469 413.997 396.414 415.433C398.833 417.219 398.703 420.209 398.166 422.804C398.516 422.857 398.907 422.826 399.289 422.705C399.911 422.507 400.378 422.113 400.54 421.651L402.501 422.175C402.152 423.174 401.213 424.001 399.989 424.39C399.504 424.545 399.001 424.622 398.51 424.622Z" fill="#BDD0FB" fill-opacity="0.5"/>
<path opacity="0.3" d="M289.424 13.4158H283.398V519.818H289.424V13.4158Z" fill="#FFF1EB"/>
<path opacity="0.3" d="M552.688 33.74H546.662V540.143H552.688V33.74Z" fill="#FFF1EB"/>
<path d="M438.009 249.951C447.936 249.951 455.984 241.903 455.984 231.976C455.984 222.048 447.936 214 438.009 214C428.081 214 420.033 222.048 420.033 231.976C420.033 241.903 428.081 249.951 438.009 249.951Z" fill="#F95F13"/>
<path d="M455.951 230.423H438.008H420.033C420.033 230.423 418.602 240.695 434.645 268.022C435.345 269.215 436.624 270.074 438.006 270.075C439.389 270.076 440.67 269.154 441.37 267.962C457.411 240.632 455.951 230.423 455.951 230.423Z" fill="#F95F13"/>
<path opacity="0.8" d="M438.066 242.297C443.799 242.297 448.446 237.65 448.446 231.918C448.446 226.185 443.799 221.538 438.066 221.538C432.334 221.538 427.687 226.185 427.687 231.918C427.687 237.65 432.334 242.297 438.066 242.297Z" fill="#FFF1EB"/>
<path d="M438.066 242.877C432.023 242.877 427.107 237.96 427.107 231.917C427.107 225.875 432.024 220.958 438.066 220.958C444.109 220.958 449.026 225.875 449.026 231.917C449.026 237.96 444.109 242.877 438.066 242.877ZM438.066 222.118C432.663 222.118 428.267 226.514 428.267 231.917C428.267 237.321 432.663 241.717 438.066 241.717C443.47 241.717 447.866 237.321 447.866 231.917C447.866 226.514 443.47 222.118 438.066 222.118Z" fill="#E1473D"/>
<rect x="391" y="255.633" width="93" height="38" rx="19" fill="#F95F13"/>
<path d="M408.366 281.633V267.633H411.586V281.633H408.366ZM419.523 281.873C418.883 281.873 418.323 281.747 417.843 281.493C417.363 281.227 416.963 280.847 416.643 280.353L416.523 281.633H413.563V267.633H416.683V272.833C417.003 272.367 417.397 272.013 417.863 271.773C418.343 271.52 418.897 271.393 419.523 271.393C420.457 271.393 421.263 271.607 421.943 272.033C422.623 272.447 423.143 273.047 423.503 273.833C423.863 274.607 424.043 275.54 424.043 276.633C424.043 277.713 423.863 278.647 423.503 279.433C423.143 280.22 422.623 280.827 421.943 281.253C421.263 281.667 420.457 281.873 419.523 281.873ZM418.723 278.993C419.123 278.993 419.477 278.893 419.783 278.693C420.09 278.493 420.337 278.22 420.523 277.873C420.71 277.513 420.803 277.1 420.803 276.633C420.803 276.167 420.717 275.76 420.543 275.413C420.37 275.053 420.123 274.773 419.803 274.573C419.497 274.373 419.143 274.273 418.743 274.273C418.343 274.273 417.983 274.373 417.663 274.573C417.357 274.773 417.117 275.053 416.943 275.413C416.77 275.773 416.683 276.18 416.683 276.633C416.683 277.1 416.77 277.513 416.943 277.873C417.117 278.22 417.357 278.493 417.663 278.693C417.97 278.893 418.323 278.993 418.723 278.993ZM428.356 281.873C427.182 281.873 426.269 281.613 425.616 281.093C424.962 280.56 424.636 279.8 424.636 278.813C424.636 277.76 424.976 276.973 425.656 276.453C426.336 275.933 427.289 275.673 428.516 275.673H430.956C430.889 275.153 430.729 274.747 430.476 274.453C430.236 274.147 429.842 273.993 429.296 273.993C428.922 273.993 428.596 274.08 428.316 274.253C428.036 274.427 427.796 274.66 427.596 274.953L424.856 274.053C425.096 273.56 425.409 273.113 425.796 272.713C426.196 272.313 426.682 271.993 427.256 271.753C427.829 271.513 428.496 271.393 429.256 271.393C430.296 271.393 431.176 271.587 431.896 271.973C432.616 272.36 433.156 272.9 433.516 273.593C433.876 274.287 434.056 275.107 434.056 276.053L434.016 281.633H431.096L431.056 280.613C430.776 281.027 430.409 281.34 429.956 281.553C429.502 281.767 428.969 281.873 428.356 281.873ZM429.056 279.513C429.442 279.513 429.776 279.433 430.056 279.273C430.349 279.113 430.576 278.9 430.736 278.633C430.909 278.353 430.996 278.053 430.996 277.733V277.693H429.676C429.022 277.693 428.549 277.787 428.256 277.973C427.962 278.147 427.816 278.4 427.816 278.733C427.816 278.973 427.922 279.167 428.136 279.313C428.362 279.447 428.669 279.513 429.056 279.513ZM439.556 281.873C438.623 281.873 437.816 281.667 437.136 281.253C436.47 280.827 435.95 280.22 435.576 279.433C435.216 278.647 435.036 277.713 435.036 276.633C435.036 275.54 435.216 274.607 435.576 273.833C435.95 273.047 436.47 272.447 437.136 272.033C437.816 271.607 438.623 271.393 439.556 271.393C440.183 271.393 440.73 271.52 441.196 271.773C441.676 272.013 442.076 272.36 442.396 272.813V267.633H445.516V281.633H442.536L442.456 280.373C442.15 280.853 441.75 281.227 441.256 281.493C440.763 281.747 440.196 281.873 439.556 281.873ZM440.376 278.993C440.75 278.993 441.076 278.907 441.356 278.733C441.65 278.56 441.883 278.313 442.056 277.993C442.243 277.66 442.356 277.293 442.396 276.893V276.373C442.356 275.973 442.243 275.613 442.056 275.293C441.883 274.973 441.65 274.727 441.356 274.553C441.063 274.367 440.73 274.273 440.356 274.273C439.956 274.273 439.596 274.373 439.276 274.573C438.97 274.773 438.723 275.053 438.536 275.413C438.363 275.76 438.276 276.167 438.276 276.633C438.276 277.1 438.37 277.513 438.556 277.873C438.743 278.22 438.99 278.493 439.296 278.693C439.616 278.893 439.976 278.993 440.376 278.993ZM450.349 281.873C449.175 281.873 448.262 281.613 447.609 281.093C446.955 280.56 446.629 279.8 446.629 278.813C446.629 277.76 446.969 276.973 447.649 276.453C448.329 275.933 449.282 275.673 450.509 275.673H452.949C452.882 275.153 452.722 274.747 452.469 274.453C452.229 274.147 451.835 273.993 451.289 273.993C450.915 273.993 450.589 274.08 450.309 274.253C450.029 274.427 449.789 274.66 449.589 274.953L446.849 274.053C447.089 273.56 447.402 273.113 447.789 272.713C448.189 272.313 448.675 271.993 449.249 271.753C449.822 271.513 450.489 271.393 451.249 271.393C452.289 271.393 453.169 271.587 453.889 271.973C454.609 272.36 455.149 272.9 455.509 273.593C455.869 274.287 456.049 275.107 456.049 276.053L456.009 281.633H453.089L453.049 280.613C452.769 281.027 452.402 281.34 451.949 281.553C451.495 281.767 450.962 281.873 450.349 281.873ZM451.049 279.513C451.435 279.513 451.769 279.433 452.049 279.273C452.342 279.113 452.569 278.9 452.729 278.633C452.902 278.353 452.989 278.053 452.989 277.733V277.693H451.669C451.015 277.693 450.542 277.787 450.249 277.973C449.955 278.147 449.809 278.4 449.809 278.733C449.809 278.973 449.915 279.167 450.129 279.313C450.355 279.447 450.662 279.513 451.049 279.513ZM457.549 281.633V271.633H460.489L460.609 272.913C460.943 272.433 461.349 272.06 461.829 271.793C462.309 271.527 462.849 271.393 463.449 271.393C464.249 271.393 464.923 271.56 465.469 271.893C466.016 272.213 466.423 272.707 466.689 273.373C466.969 274.04 467.109 274.893 467.109 275.933V281.633H463.989V276.513C463.989 275.98 463.929 275.56 463.809 275.253C463.689 274.933 463.516 274.7 463.289 274.553C463.076 274.407 462.809 274.327 462.489 274.313C461.889 274.3 461.436 274.467 461.129 274.813C460.823 275.147 460.669 275.66 460.669 276.353V281.633H457.549Z" fill="white"/>
<rect x="317" y="438" width="85" height="38" rx="19" fill="#738ADF"/>
<path d="M334.642 464V450H337.382V461.5H343.542V464H334.642ZM347.844 464.24C346.644 464.24 345.711 463.973 345.044 463.44C344.391 462.907 344.064 462.153 344.064 461.18C344.064 460.113 344.418 459.313 345.124 458.78C345.844 458.233 346.851 457.96 348.144 457.96H350.504C350.411 457.347 350.218 456.88 349.924 456.56C349.631 456.227 349.211 456.06 348.664 456.06C348.238 456.06 347.851 456.153 347.504 456.34C347.158 456.527 346.864 456.813 346.624 457.2L344.304 456.4C344.491 455.973 344.764 455.56 345.124 455.16C345.484 454.747 345.951 454.413 346.524 454.16C347.111 453.893 347.824 453.76 348.664 453.76C349.678 453.76 350.518 453.953 351.184 454.34C351.864 454.727 352.364 455.273 352.684 455.98C353.018 456.673 353.178 457.5 353.164 458.46L353.104 464H350.644L350.604 462.84C350.351 463.293 349.991 463.64 349.524 463.88C349.071 464.12 348.511 464.24 347.844 464.24ZM348.284 462.04C348.711 462.04 349.098 461.94 349.444 461.74C349.791 461.54 350.064 461.28 350.264 460.96C350.464 460.64 350.564 460.307 350.564 459.96V459.92H349.064C348.198 459.92 347.598 460.027 347.264 460.24C346.931 460.44 346.764 460.727 346.764 461.1C346.764 461.393 346.898 461.627 347.164 461.8C347.431 461.96 347.804 462.04 348.284 462.04ZM359.369 468.26C358.609 468.26 357.935 468.207 357.349 468.1C356.762 467.993 356.269 467.853 355.869 467.68C355.469 467.507 355.142 467.333 354.889 467.16L355.929 465.04C356.115 465.147 356.362 465.267 356.669 465.4C356.975 465.547 357.342 465.667 357.769 465.76C358.195 465.867 358.689 465.92 359.249 465.92C359.782 465.92 360.249 465.813 360.649 465.6C361.062 465.4 361.382 465.08 361.609 464.64C361.849 464.213 361.969 463.667 361.969 463V462.04C361.635 462.56 361.202 462.973 360.669 463.28C360.135 463.573 359.529 463.72 358.849 463.72C357.929 463.72 357.129 463.52 356.449 463.12C355.782 462.72 355.262 462.16 354.889 461.44C354.515 460.72 354.329 459.867 354.329 458.88C354.329 457.84 354.515 456.94 354.889 456.18C355.262 455.407 355.782 454.813 356.449 454.4C357.129 453.973 357.929 453.76 358.849 453.76C359.529 453.76 360.135 453.92 360.669 454.24C361.202 454.547 361.635 454.987 361.969 455.56V454H364.609V462.92C364.609 464.04 364.395 465 363.969 465.8C363.542 466.613 362.935 467.227 362.149 467.64C361.375 468.053 360.449 468.26 359.369 468.26ZM359.609 461.5C360.062 461.5 360.455 461.387 360.789 461.16C361.135 460.92 361.402 460.6 361.589 460.2C361.775 459.787 361.869 459.32 361.869 458.8C361.869 458.267 361.769 457.8 361.569 457.4C361.382 457 361.115 456.687 360.769 456.46C360.435 456.233 360.042 456.12 359.589 456.12C359.122 456.12 358.709 456.233 358.349 456.46C357.989 456.687 357.709 457 357.509 457.4C357.309 457.8 357.202 458.267 357.189 458.8C357.202 459.32 357.309 459.787 357.509 460.2C357.709 460.6 357.989 460.92 358.349 461.16C358.722 461.387 359.142 461.5 359.609 461.5ZM371.18 464.24C370.167 464.24 369.26 464.02 368.46 463.58C367.674 463.127 367.054 462.507 366.6 461.72C366.16 460.933 365.94 460.027 365.94 459C365.94 457.973 366.16 457.067 366.6 456.28C367.04 455.493 367.654 454.88 368.44 454.44C369.227 453.987 370.127 453.76 371.14 453.76C372.167 453.76 373.074 453.987 373.86 454.44C374.647 454.88 375.26 455.493 375.7 456.28C376.14 457.067 376.36 457.973 376.36 459C376.36 460.027 376.14 460.933 375.7 461.72C375.26 462.507 374.647 463.127 373.86 463.58C373.087 464.02 372.194 464.24 371.18 464.24ZM371.18 461.8C371.674 461.8 372.107 461.68 372.48 461.44C372.854 461.2 373.14 460.873 373.34 460.46C373.554 460.033 373.66 459.547 373.66 459C373.66 458.453 373.554 457.973 373.34 457.56C373.127 457.133 372.827 456.8 372.44 456.56C372.067 456.32 371.634 456.2 371.14 456.2C370.66 456.2 370.227 456.32 369.84 456.56C369.467 456.8 369.174 457.133 368.96 457.56C368.747 457.973 368.64 458.453 368.64 459C368.64 459.547 368.747 460.033 368.96 460.46C369.174 460.873 369.474 461.2 369.86 461.44C370.247 461.68 370.687 461.8 371.18 461.8ZM381.441 464.24C380.801 464.24 380.201 464.147 379.641 463.96C379.081 463.76 378.588 463.48 378.161 463.12C377.735 462.747 377.401 462.293 377.161 461.76L379.421 460.72C379.621 461.04 379.895 461.32 380.241 461.56C380.588 461.787 380.988 461.9 381.441 461.9C381.881 461.9 382.221 461.84 382.461 461.72C382.701 461.587 382.821 461.4 382.821 461.16C382.821 460.92 382.721 460.747 382.521 460.64C382.335 460.52 382.075 460.42 381.741 460.34L380.821 460.1C379.861 459.847 379.101 459.447 378.541 458.9C377.995 458.34 377.721 457.7 377.721 456.98C377.721 455.953 378.048 455.16 378.701 454.6C379.368 454.04 380.308 453.76 381.521 453.76C382.148 453.76 382.728 453.853 383.261 454.04C383.808 454.227 384.275 454.487 384.661 454.82C385.048 455.153 385.315 455.54 385.461 455.98L383.281 456.98C383.188 456.713 382.961 456.5 382.601 456.34C382.241 456.167 381.881 456.08 381.521 456.08C381.161 456.08 380.881 456.16 380.681 456.32C380.495 456.467 380.401 456.673 380.401 456.94C380.401 457.113 380.495 457.26 380.681 457.38C380.868 457.487 381.135 457.58 381.481 457.66L382.781 457.98C383.435 458.14 383.955 458.4 384.341 458.76C384.741 459.107 385.028 459.5 385.201 459.94C385.388 460.367 385.481 460.787 385.481 461.2C385.481 461.8 385.301 462.333 384.941 462.8C384.595 463.253 384.115 463.607 383.501 463.86C382.901 464.113 382.215 464.24 381.441 464.24Z" fill="white" fill-opacity="0.8"/>
<rect x="132" y="232" width="119" height="38" rx="19" fill="#738ADF"/>
<path d="M148.285 258L153.805 244H156.725L162.245 258H159.345L158.145 254.92H152.385L151.185 258H148.285ZM153.285 252.5H157.245L155.265 247.42L153.285 252.5ZM168.802 258.24C168.122 258.24 167.529 258.1 167.022 257.82C166.515 257.527 166.089 257.113 165.742 256.58L165.642 258H163.142V244H165.782V249.36C166.115 248.84 166.535 248.447 167.042 248.18C167.549 247.9 168.135 247.76 168.802 247.76C169.722 247.76 170.515 247.973 171.182 248.4C171.862 248.827 172.389 249.433 172.762 250.22C173.135 250.993 173.322 251.92 173.322 253C173.322 254.067 173.135 254.993 172.762 255.78C172.389 256.567 171.862 257.173 171.182 257.6C170.515 258.027 169.722 258.24 168.802 258.24ZM168.122 255.82C168.602 255.82 169.022 255.7 169.382 255.46C169.755 255.22 170.049 254.887 170.262 254.46C170.475 254.033 170.582 253.547 170.582 253C170.582 252.453 170.475 251.967 170.262 251.54C170.062 251.113 169.775 250.787 169.402 250.56C169.042 250.32 168.622 250.2 168.142 250.2C167.689 250.2 167.282 250.32 166.922 250.56C166.562 250.8 166.282 251.133 166.082 251.56C165.882 251.973 165.782 252.453 165.782 253C165.782 253.547 165.882 254.033 166.082 254.46C166.282 254.887 166.555 255.22 166.902 255.46C167.262 255.7 167.669 255.82 168.122 255.82ZM179.176 258.24C178.189 258.24 177.316 258.02 176.556 257.58C175.796 257.127 175.196 256.507 174.756 255.72C174.329 254.933 174.116 254.027 174.116 253C174.116 251.973 174.336 251.067 174.776 250.28C175.229 249.493 175.843 248.88 176.616 248.44C177.403 247.987 178.303 247.76 179.316 247.76C180.196 247.76 181.003 247.993 181.736 248.46C182.483 248.913 183.076 249.587 183.516 250.48C183.969 251.36 184.196 252.433 184.196 253.7H176.876C176.943 254.367 177.229 254.9 177.736 255.3C178.243 255.687 178.816 255.88 179.456 255.88C180.003 255.88 180.449 255.767 180.796 255.54C181.143 255.3 181.409 254.993 181.596 254.62L183.956 255.54C183.676 256.1 183.309 256.587 182.856 257C182.416 257.4 181.889 257.707 181.276 257.92C180.663 258.133 179.963 258.24 179.176 258.24ZM177.016 251.74H181.336C181.296 251.327 181.163 250.993 180.936 250.74C180.709 250.487 180.443 250.3 180.136 250.18C179.829 250.06 179.529 250 179.236 250C178.956 250 178.649 250.06 178.316 250.18C177.996 250.287 177.709 250.467 177.456 250.72C177.216 250.973 177.069 251.313 177.016 251.74ZM190.03 258.24C189.017 258.24 188.11 258.02 187.31 257.58C186.524 257.127 185.904 256.507 185.45 255.72C185.01 254.933 184.79 254.027 184.79 253C184.79 251.973 185.01 251.067 185.45 250.28C185.89 249.493 186.504 248.88 187.29 248.44C188.077 247.987 188.977 247.76 189.99 247.76C191.017 247.76 191.924 247.987 192.71 248.44C193.497 248.88 194.11 249.493 194.55 250.28C194.99 251.067 195.21 251.973 195.21 253C195.21 254.027 194.99 254.933 194.55 255.72C194.11 256.507 193.497 257.127 192.71 257.58C191.937 258.02 191.044 258.24 190.03 258.24ZM190.03 255.8C190.524 255.8 190.957 255.68 191.33 255.44C191.704 255.2 191.99 254.873 192.19 254.46C192.404 254.033 192.51 253.547 192.51 253C192.51 252.453 192.404 251.973 192.19 251.56C191.977 251.133 191.677 250.8 191.29 250.56C190.917 250.32 190.484 250.2 189.99 250.2C189.51 250.2 189.077 250.32 188.69 250.56C188.317 250.8 188.024 251.133 187.81 251.56C187.597 251.973 187.49 252.453 187.49 253C187.49 253.547 187.597 254.033 187.81 254.46C188.024 254.873 188.324 255.2 188.71 255.44C189.097 255.68 189.537 255.8 190.03 255.8ZM196.551 258V244H199.191V251.72L202.611 248H205.751L201.971 252.22L206.051 258H202.951L200.291 254.12L199.191 255.32V258H196.551ZM210.473 258.24C209.673 258.24 208.993 258.08 208.433 257.76C207.886 257.44 207.466 256.947 207.173 256.28C206.88 255.6 206.733 254.727 206.733 253.66V248H209.373V253.12C209.373 253.787 209.446 254.313 209.593 254.7C209.753 255.073 209.973 255.347 210.253 255.52C210.546 255.68 210.873 255.76 211.233 255.76C211.926 255.773 212.453 255.567 212.813 255.14C213.173 254.7 213.353 254.067 213.353 253.24V248H215.993V258H213.513L213.413 256.64C213.08 257.147 212.66 257.54 212.153 257.82C211.66 258.1 211.1 258.24 210.473 258.24ZM222 258.24C220.894 258.24 220.054 257.967 219.48 257.42C218.92 256.873 218.64 256.093 218.64 255.08V250.24H217.02V248H218.64V244.88H221.28V248H223.78V250.24H221.28V254.5C221.28 254.927 221.374 255.253 221.56 255.48C221.747 255.693 222.02 255.8 222.38 255.8C222.514 255.8 222.66 255.773 222.82 255.72C222.98 255.653 223.147 255.56 223.32 255.44L224.24 257.42C223.92 257.66 223.56 257.853 223.16 258C222.774 258.16 222.387 258.24 222 258.24ZM228.591 258.24C227.391 258.24 226.458 257.973 225.791 257.44C225.138 256.907 224.811 256.153 224.811 255.18C224.811 254.113 225.165 253.313 225.871 252.78C226.591 252.233 227.598 251.96 228.891 251.96H231.251C231.158 251.347 230.965 250.88 230.671 250.56C230.378 250.227 229.958 250.06 229.411 250.06C228.985 250.06 228.598 250.153 228.251 250.34C227.905 250.527 227.611 250.813 227.371 251.2L225.051 250.4C225.238 249.973 225.511 249.56 225.871 249.16C226.231 248.747 226.698 248.413 227.271 248.16C227.858 247.893 228.571 247.76 229.411 247.76C230.425 247.76 231.265 247.953 231.931 248.34C232.611 248.727 233.111 249.273 233.431 249.98C233.765 250.673 233.925 251.5 233.911 252.46L233.851 258H231.391L231.351 256.84C231.098 257.293 230.738 257.64 230.271 257.88C229.818 258.12 229.258 258.24 228.591 258.24ZM229.031 256.04C229.458 256.04 229.845 255.94 230.191 255.74C230.538 255.54 230.811 255.28 231.011 254.96C231.211 254.64 231.311 254.307 231.311 253.96V253.92H229.811C228.945 253.92 228.345 254.027 228.011 254.24C227.678 254.44 227.511 254.727 227.511 255.1C227.511 255.393 227.645 255.627 227.911 255.8C228.178 255.96 228.551 256.04 229.031 256.04Z" fill="white" fill-opacity="0.8"/>
<rect x="611" y="207" width="103" height="38" rx="19" fill="#738ADF"/>
<path d="M635.307 233.24C633.893 233.24 632.64 232.933 631.547 232.32C630.467 231.693 629.62 230.84 629.007 229.76C628.393 228.667 628.087 227.42 628.087 226.02C628.087 224.593 628.393 223.34 629.007 222.26C629.62 221.167 630.46 220.313 631.527 219.7C632.607 219.087 633.847 218.78 635.247 218.78C636.66 218.78 637.9 219.093 638.967 219.72C640.047 220.333 640.893 221.187 641.507 222.28C642.12 223.36 642.427 224.607 642.427 226.02C642.427 227.42 642.12 228.667 641.507 229.76C640.907 230.84 640.067 231.693 638.987 232.32C637.92 232.933 636.693 233.24 635.307 233.24ZM635.307 230.74C636.16 230.74 636.907 230.54 637.547 230.14C638.2 229.727 638.707 229.167 639.067 228.46C639.44 227.753 639.627 226.94 639.627 226.02C639.627 225.087 639.44 224.267 639.067 223.56C638.693 222.853 638.18 222.3 637.527 221.9C636.873 221.487 636.113 221.28 635.247 221.28C634.407 221.28 633.653 221.487 632.987 221.9C632.333 222.3 631.82 222.853 631.447 223.56C631.073 224.267 630.887 225.087 630.887 226.02C630.887 226.94 631.073 227.753 631.447 228.46C631.82 229.167 632.34 229.727 633.007 230.14C633.673 230.54 634.44 230.74 635.307 230.74ZM647.609 233.24C646.969 233.24 646.369 233.147 645.809 232.96C645.249 232.76 644.756 232.48 644.329 232.12C643.902 231.747 643.569 231.293 643.329 230.76L645.589 229.72C645.789 230.04 646.062 230.32 646.409 230.56C646.756 230.787 647.156 230.9 647.609 230.9C648.049 230.9 648.389 230.84 648.629 230.72C648.869 230.587 648.989 230.4 648.989 230.16C648.989 229.92 648.889 229.747 648.689 229.64C648.502 229.52 648.242 229.42 647.909 229.34L646.989 229.1C646.029 228.847 645.269 228.447 644.709 227.9C644.162 227.34 643.889 226.7 643.889 225.98C643.889 224.953 644.216 224.16 644.869 223.6C645.536 223.04 646.476 222.76 647.689 222.76C648.316 222.76 648.896 222.853 649.429 223.04C649.976 223.227 650.442 223.487 650.829 223.82C651.216 224.153 651.482 224.54 651.629 224.98L649.449 225.98C649.356 225.713 649.129 225.5 648.769 225.34C648.409 225.167 648.049 225.08 647.689 225.08C647.329 225.08 647.049 225.16 646.849 225.32C646.662 225.467 646.569 225.673 646.569 225.94C646.569 226.113 646.662 226.26 646.849 226.38C647.036 226.487 647.302 226.58 647.649 226.66L648.949 226.98C649.602 227.14 650.122 227.4 650.509 227.76C650.909 228.107 651.196 228.5 651.369 228.94C651.556 229.367 651.649 229.787 651.649 230.2C651.649 230.8 651.469 231.333 651.109 231.8C650.762 232.253 650.282 232.607 649.669 232.86C649.069 233.113 648.382 233.24 647.609 233.24ZM657.485 233.24C656.472 233.24 655.565 233.02 654.765 232.58C653.979 232.127 653.359 231.507 652.905 230.72C652.465 229.933 652.245 229.027 652.245 228C652.245 226.973 652.465 226.067 652.905 225.28C653.345 224.493 653.959 223.88 654.745 223.44C655.532 222.987 656.432 222.76 657.445 222.76C658.472 222.76 659.379 222.987 660.165 223.44C660.952 223.88 661.565 224.493 662.005 225.28C662.445 226.067 662.665 226.973 662.665 228C662.665 229.027 662.445 229.933 662.005 230.72C661.565 231.507 660.952 232.127 660.165 232.58C659.392 233.02 658.499 233.24 657.485 233.24ZM657.485 230.8C657.979 230.8 658.412 230.68 658.785 230.44C659.159 230.2 659.445 229.873 659.645 229.46C659.859 229.033 659.965 228.547 659.965 228C659.965 227.453 659.859 226.973 659.645 226.56C659.432 226.133 659.132 225.8 658.745 225.56C658.372 225.32 657.939 225.2 657.445 225.2C656.965 225.2 656.532 225.32 656.145 225.56C655.772 225.8 655.479 226.133 655.265 226.56C655.052 226.973 654.945 227.453 654.945 228C654.945 228.547 655.052 229.033 655.265 229.46C655.479 229.873 655.779 230.2 656.165 230.44C656.552 230.68 656.992 230.8 657.485 230.8ZM668.506 237.26C667.746 237.26 667.073 237.207 666.486 237.1C665.9 236.993 665.406 236.853 665.006 236.68C664.606 236.507 664.28 236.333 664.026 236.16L665.066 234.04C665.253 234.147 665.5 234.267 665.806 234.4C666.113 234.547 666.48 234.667 666.906 234.76C667.333 234.867 667.826 234.92 668.386 234.92C668.92 234.92 669.386 234.813 669.786 234.6C670.2 234.4 670.52 234.08 670.746 233.64C670.986 233.213 671.106 232.667 671.106 232V231.04C670.773 231.56 670.34 231.973 669.806 232.28C669.273 232.573 668.666 232.72 667.986 232.72C667.066 232.72 666.266 232.52 665.586 232.12C664.92 231.72 664.4 231.16 664.026 230.44C663.653 229.72 663.466 228.867 663.466 227.88C663.466 226.84 663.653 225.94 664.026 225.18C664.4 224.407 664.92 223.813 665.586 223.4C666.266 222.973 667.066 222.76 667.986 222.76C668.666 222.76 669.273 222.92 669.806 223.24C670.34 223.547 670.773 223.987 671.106 224.56V223H673.746V231.92C673.746 233.04 673.533 234 673.106 234.8C672.68 235.613 672.073 236.227 671.286 236.64C670.513 237.053 669.586 237.26 668.506 237.26ZM668.746 230.5C669.2 230.5 669.593 230.387 669.926 230.16C670.273 229.92 670.54 229.6 670.726 229.2C670.913 228.787 671.006 228.32 671.006 227.8C671.006 227.267 670.906 226.8 670.706 226.4C670.52 226 670.253 225.687 669.906 225.46C669.573 225.233 669.18 225.12 668.726 225.12C668.26 225.12 667.846 225.233 667.486 225.46C667.126 225.687 666.846 226 666.646 226.4C666.446 226.8 666.34 227.267 666.326 227.8C666.34 228.32 666.446 228.787 666.646 229.2C666.846 229.6 667.126 229.92 667.486 230.16C667.86 230.387 668.28 230.5 668.746 230.5ZM681.278 233.24C680.598 233.24 680.005 233.1 679.498 232.82C678.991 232.527 678.565 232.113 678.218 231.58L678.118 233H675.618V219H678.258V224.36C678.591 223.84 679.011 223.447 679.518 223.18C680.025 222.9 680.611 222.76 681.278 222.76C682.198 222.76 682.991 222.973 683.658 223.4C684.338 223.827 684.865 224.433 685.238 225.22C685.611 225.993 685.798 226.92 685.798 228C685.798 229.067 685.611 229.993 685.238 230.78C684.865 231.567 684.338 232.173 683.658 232.6C682.991 233.027 682.198 233.24 681.278 233.24ZM680.598 230.82C681.078 230.82 681.498 230.7 681.858 230.46C682.231 230.22 682.525 229.887 682.738 229.46C682.951 229.033 683.058 228.547 683.058 228C683.058 227.453 682.951 226.967 682.738 226.54C682.538 226.113 682.251 225.787 681.878 225.56C681.518 225.32 681.098 225.2 680.618 225.2C680.165 225.2 679.758 225.32 679.398 225.56C679.038 225.8 678.758 226.133 678.558 226.56C678.358 226.973 678.258 227.453 678.258 228C678.258 228.547 678.358 229.033 678.558 229.46C678.758 229.887 679.031 230.22 679.378 230.46C679.738 230.7 680.145 230.82 680.598 230.82ZM691.832 233.24C690.819 233.24 689.912 233.02 689.112 232.58C688.326 232.127 687.706 231.507 687.252 230.72C686.812 229.933 686.592 229.027 686.592 228C686.592 226.973 686.812 226.067 687.252 225.28C687.692 224.493 688.306 223.88 689.092 223.44C689.879 222.987 690.779 222.76 691.792 222.76C692.819 222.76 693.726 222.987 694.512 223.44C695.299 223.88 695.912 224.493 696.352 225.28C696.792 226.067 697.012 226.973 697.012 228C697.012 229.027 696.792 229.933 696.352 230.72C695.912 231.507 695.299 232.127 694.512 232.58C693.739 233.02 692.846 233.24 691.832 233.24ZM691.832 230.8C692.326 230.8 692.759 230.68 693.132 230.44C693.506 230.2 693.792 229.873 693.992 229.46C694.206 229.033 694.312 228.547 694.312 228C694.312 227.453 694.206 226.973 693.992 226.56C693.779 226.133 693.479 225.8 693.092 225.56C692.719 225.32 692.286 225.2 691.792 225.2C691.312 225.2 690.879 225.32 690.492 225.56C690.119 225.8 689.826 226.133 689.612 226.56C689.399 226.973 689.292 227.453 689.292 228C689.292 228.547 689.399 229.033 689.612 229.46C689.826 229.873 690.126 230.2 690.512 230.44C690.899 230.68 691.339 230.8 691.832 230.8Z" fill="white" fill-opacity="0.8"/>
<rect x="617" y="359" width="82" height="38" rx="19" fill="#738ADF"/>
<path d="M634.675 385V371H639.415C640.375 371 641.215 371.147 641.935 371.44C642.655 371.733 643.215 372.18 643.615 372.78C644.015 373.367 644.215 374.1 644.215 374.98C644.215 375.527 644.075 376.033 643.795 376.5C643.529 376.953 643.149 377.347 642.655 377.68C643.309 378.013 643.809 378.46 644.155 379.02C644.515 379.567 644.695 380.227 644.695 381C644.695 381.853 644.502 382.58 644.115 383.18C643.729 383.78 643.189 384.233 642.495 384.54C641.802 384.847 640.989 385 640.055 385H634.675ZM637.355 382.58H639.795C640.449 382.58 640.962 382.42 641.335 382.1C641.709 381.767 641.895 381.327 641.895 380.78C641.895 380.207 641.689 379.76 641.275 379.44C640.862 379.107 640.295 378.94 639.575 378.94H637.355V382.58ZM637.355 376.7H639.475C640.075 376.7 640.549 376.547 640.895 376.24C641.242 375.933 641.415 375.5 641.415 374.94C641.415 374.38 641.222 373.947 640.835 373.64C640.449 373.333 639.922 373.18 639.255 373.18H637.355V376.7ZM650.662 385.24C649.675 385.24 648.802 385.02 648.042 384.58C647.282 384.127 646.682 383.507 646.242 382.72C645.815 381.933 645.602 381.027 645.602 380C645.602 378.973 645.822 378.067 646.262 377.28C646.715 376.493 647.328 375.88 648.102 375.44C648.888 374.987 649.788 374.76 650.802 374.76C651.682 374.76 652.488 374.993 653.222 375.46C653.968 375.913 654.562 376.587 655.002 377.48C655.455 378.36 655.682 379.433 655.682 380.7H648.362C648.428 381.367 648.715 381.9 649.222 382.3C649.728 382.687 650.302 382.88 650.942 382.88C651.488 382.88 651.935 382.767 652.282 382.54C652.628 382.3 652.895 381.993 653.082 381.62L655.442 382.54C655.162 383.1 654.795 383.587 654.342 384C653.902 384.4 653.375 384.707 652.762 384.92C652.148 385.133 651.448 385.24 650.662 385.24ZM648.502 378.74H652.822C652.782 378.327 652.648 377.993 652.422 377.74C652.195 377.487 651.928 377.3 651.622 377.18C651.315 377.06 651.015 377 650.722 377C650.442 377 650.135 377.06 649.802 377.18C649.482 377.287 649.195 377.467 648.942 377.72C648.702 377.973 648.555 378.313 648.502 378.74ZM656.816 385V375H659.296L659.416 376.36C659.736 375.84 660.142 375.447 660.636 375.18C661.142 374.9 661.716 374.76 662.356 374.76C663.142 374.76 663.816 374.92 664.376 375.24C664.936 375.56 665.362 376.06 665.656 376.74C665.949 377.407 666.089 378.273 666.076 379.34V385H663.436V379.88C663.436 379.2 663.356 378.673 663.196 378.3C663.049 377.927 662.836 377.66 662.556 377.5C662.276 377.327 661.949 377.24 661.576 377.24C660.896 377.227 660.369 377.433 659.996 377.86C659.636 378.287 659.456 378.92 659.456 379.76V385H656.816ZM667.943 385V375H670.583V385H667.943ZM669.263 373.38C668.863 373.38 668.51 373.233 668.203 372.94C667.896 372.633 667.743 372.273 667.743 371.86C667.743 371.447 667.896 371.093 668.203 370.8C668.51 370.493 668.863 370.34 669.263 370.34C669.676 370.34 670.03 370.493 670.323 370.8C670.63 371.093 670.783 371.447 670.783 371.86C670.783 372.273 670.63 372.633 670.323 372.94C670.03 373.233 669.676 373.38 669.263 373.38ZM672.617 385V375H675.097L675.217 376.36C675.537 375.84 675.944 375.447 676.437 375.18C676.944 374.9 677.517 374.76 678.157 374.76C678.944 374.76 679.617 374.92 680.177 375.24C680.737 375.56 681.164 376.06 681.457 376.74C681.751 377.407 681.891 378.273 681.877 379.34V385H679.237V379.88C679.237 379.2 679.157 378.673 678.997 378.3C678.851 377.927 678.637 377.66 678.357 377.5C678.077 377.327 677.751 377.24 677.377 377.24C676.697 377.227 676.171 377.433 675.797 377.86C675.437 378.287 675.257 378.92 675.257 379.76V385H672.617Z" fill="white" fill-opacity="0.8"/>
</svg>
