<svg width="186" height="198" viewBox="0 0 186 198" fill="none" xmlns="http://www.w3.org/2000/svg">
<path d="M84.0125 30.0178L-54 108.318L-53.6112 183.197L98.0594 69.644L84.0125 30.0178Z" fill="#C28264"/>
<path d="M147.108 50.8882C147.108 50.8882 137.654 58.433 126.822 59.1502C126.822 59.1502 113.434 72.5432 98.0597 69.6443C82.6854 66.7458 81.74 38.5552 81.74 38.5552L116.229 21.1084L138.544 23.5797L147.108 50.8882Z" fill="#9FD24A"/>
<path d="M102.586 68.1712C102.586 68.1712 85.082 89.7025 52.5428 104.64C52.5428 104.64 35.8472 77.6638 29.905 56.1647C29.905 56.1647 66.0863 34.3683 87.2978 27.0618C108.509 19.7552 99.964 46.5062 99.964 46.5062L102.586 68.1712Z" fill="#9FD24A"/>
<g opacity="0.3">
<path d="M123.045 54.3623C115.991 60.9143 105.577 65.3689 96.4756 61.9824C82.6488 76.2134 67.8181 91.1429 48.5146 97.7725C50.9235 102.024 52.5425 104.64 52.5425 104.64C79.3941 92.3136 95.9953 75.5087 100.982 70.0066C115.091 70.882 126.822 59.1501 126.822 59.1501C137.654 58.4329 147.108 50.8881 147.108 50.8881L145.309 45.1531C139.3 51.5425 131.475 55.72 123.045 54.3623Z" fill="#9FD24A"/>
</g>
<path d="M120.486 21.6954C130.055 18.5817 139.771 15.9182 149.59 13.7168C151.704 13.2431 153.953 12.7968 155.996 13.5174C157.668 14.1066 158.98 15.4057 160.175 16.7154C163.782 20.6691 166.875 25.091 169.352 29.8347C169.855 30.7983 170.34 31.7978 170.485 32.8751C170.63 33.9527 170.384 35.1369 169.601 35.891C168.376 37.0712 166.375 36.8129 164.783 36.2127C160.448 34.5774 157.065 31.1099 154.229 27.4454C154.055 27.2205 153.87 26.9856 153.609 26.8749C153.239 26.7181 152.816 26.8485 152.435 26.976C144.13 29.7542 136.595 32.9829 127.899 31.9426C128.032 32.1176 126.776 29.9757 126.908 30.1506L120.486 21.6954Z" fill="#9FD24A"/>
<path d="M127.906 31.9436C127.904 31.9431 127.902 31.9431 127.9 31.9431C127.909 31.9556 127.91 31.9532 127.906 31.9436Z" fill="#C1002A"/>
<g opacity="0.3">
<path d="M154.016 23.3663C153.2 23.2709 152.55 22.4295 152.663 21.616C148.528 25.4761 142.613 26.6041 137.039 27.5687C133.338 28.2091 129.595 28.8506 125.852 28.76L126.909 30.1517C126.786 29.9892 127.857 31.819 127.906 31.9441C136.599 32.982 144.133 29.7547 152.436 26.9771C152.817 26.8496 153.24 26.7187 153.61 26.8754C153.872 26.9862 154.056 27.2211 154.229 27.4459C157.065 31.1105 160.448 34.578 164.784 36.2132C166.087 36.7046 167.659 36.9524 168.86 36.3834C166.412 36.1533 163.984 35.2045 161.969 33.7754C158.367 31.2207 155.905 27.3563 154.016 23.3663Z" fill="#9FD24A"/>
</g>
<path d="M169.6 35.8909C168.924 36.6037 167.875 36.866 166.904 36.8075C165.922 36.7662 164.957 36.4892 164.058 36.1229C162.248 35.3865 160.574 34.3295 159.068 33.0892C157.546 31.8605 156.21 30.4262 154.953 28.9444C154.639 28.5723 154.334 28.1941 154.035 27.8111C153.88 27.6174 153.745 27.4304 153.615 27.324C153.484 27.2156 153.38 27.184 153.205 27.1869C152.866 27.2013 152.378 27.4141 151.927 27.5579L150.56 28.0287C146.913 29.2708 143.258 30.5863 139.456 31.4075C137.558 31.816 135.632 32.1142 133.694 32.2287C131.755 32.3193 129.807 32.2546 127.9 31.9435C129.827 32.0782 131.756 32.0638 133.663 31.8457C135.572 31.6549 137.46 31.2948 139.318 30.8202C143.038 29.8729 146.655 28.5503 150.306 27.2876L151.679 26.824L152.368 26.5934C152.605 26.5176 152.868 26.4333 153.181 26.4217C153.488 26.3992 153.875 26.5272 154.106 26.7425C154.346 26.9486 154.486 27.1658 154.633 27.3465L155.524 28.4731C156.728 29.9612 158.029 31.3677 159.457 32.6314C160.881 33.8975 162.473 34.9805 164.209 35.772C165.071 36.1852 165.973 36.503 166.92 36.6018C167.851 36.7044 168.863 36.5385 169.6 35.8909Z" fill="#548C0C"/>
<path d="M120.413 13.3782C129.982 10.2645 139.698 7.60094 149.517 5.39954C151.631 4.92541 153.881 4.47959 155.923 5.20013C157.595 5.78931 158.908 7.08847 160.102 8.39819C163.709 12.3518 166.802 16.7738 169.279 21.5179C169.782 22.4815 170.267 23.4806 170.412 24.5583C170.557 25.636 170.311 26.8201 169.528 27.5742C168.303 28.7545 166.302 28.4961 164.71 27.8959C160.375 26.2606 156.992 22.7931 154.156 19.1286C153.982 18.9042 153.798 18.6688 153.536 18.5581C153.166 18.4013 152.743 18.5318 152.362 18.6598C144.057 21.4379 136.522 24.6666 127.827 23.6263C127.959 23.8013 126.703 21.6594 126.835 21.8343L120.413 13.3782Z" fill="#9FD24A"/>
<path d="M127.834 23.6269C127.832 23.6265 127.83 23.6265 127.828 23.6265C127.837 23.6389 127.838 23.6365 127.834 23.6269Z" fill="#C1002A"/>
<g opacity="0.3">
<path d="M153.943 15.0491C153.127 14.9537 152.477 14.1124 152.591 13.2988C148.455 17.159 142.541 18.287 136.966 19.2515C133.265 19.892 129.523 20.5334 125.779 20.4428L126.836 21.8345C126.713 21.672 127.784 23.5019 127.834 23.627C136.527 24.6654 144.06 21.4376 152.363 18.6599C152.745 18.5324 153.167 18.4015 153.537 18.5583C153.798 18.669 153.982 18.9039 154.156 19.1288C156.992 22.7933 160.375 26.2608 164.711 27.8961C166.014 28.3874 167.586 28.6358 168.788 28.0662C166.339 27.8361 163.911 26.8874 161.896 25.4583C158.294 22.9036 155.832 19.0396 153.943 15.0491Z" fill="#9FD24A"/>
</g>
<path d="M169.528 27.5744C168.852 28.2873 167.804 28.5495 166.832 28.491C165.85 28.4498 164.885 28.1727 163.985 27.8065C162.175 27.0696 160.502 26.013 158.995 24.7728C157.473 23.5441 156.138 22.1098 154.88 20.6279C154.567 20.2559 154.262 19.8777 153.962 19.4951C153.807 19.3015 153.673 19.1145 153.542 19.0081C153.411 18.8997 153.307 18.8681 153.132 18.871C152.793 18.8853 152.305 19.0982 151.854 19.242L150.487 19.7128C146.841 20.9549 143.185 22.2704 139.383 23.0916C137.486 23.5005 135.559 23.7982 133.621 23.9128C131.682 24.0029 129.734 23.9387 127.827 23.6271C129.754 23.7618 131.683 23.7474 133.59 23.5293C135.499 23.3385 137.387 22.9785 139.245 22.5038C142.965 21.5566 146.582 20.2339 150.233 18.9711L151.606 18.508L152.295 18.2774C152.532 18.2017 152.795 18.1173 153.108 18.1058C153.416 18.0833 153.802 18.2113 154.033 18.4265C154.273 18.6327 154.413 18.8499 154.56 19.0306L155.452 20.1572C156.655 21.6452 157.956 23.0518 159.384 24.3155C160.808 25.5821 162.399 26.6645 164.136 27.456C164.998 27.8688 165.9 28.1866 166.847 28.2859C167.779 28.3875 168.791 28.2216 169.528 27.5744Z" fill="#548C0C"/>
<path d="M137.31 50.8656C139.738 50.5324 142.199 52.6978 142.177 55.1485C142.166 56.4457 141.583 57.8207 142.155 58.9847C142.837 60.3725 144.783 60.6587 145.665 61.9291C147.242 64.2015 144.362 67.4561 145.492 69.9811C146.053 71.2357 147.475 71.9366 148.041 73.1893C149.007 75.3298 147.05 77.7124 147.211 80.0552C147.329 81.7835 148.579 83.2116 149.882 84.3535C157.462 91.0018 168.829 92.8255 175.033 100.773C178.729 105.508 179.954 111.677 180.742 117.631C181.597 124.091 185.907 173.695 185.991 180.211C185.991 180.211 186.527 185.28 179.193 187.433C171.859 189.586 134.945 198.095 127.973 197.716C121.002 197.338 120.973 195.371 118.502 188.095C116.08 180.963 89.6627 100.805 116.226 56.9942C117.223 55.3489 118.881 54.2103 120.773 53.8671L137.31 50.8656Z" fill="#FFA52E"/>
<g opacity="0.39">
<path d="M184.851 163.387C185.497 171.541 185.964 178.113 185.991 180.211C185.991 180.211 186.526 185.28 179.192 187.433C171.858 189.586 134.944 198.095 127.972 197.716C121 197.338 120.973 195.371 118.501 188.095C117.978 186.556 116.337 181.609 114.353 174.367C118.547 177.087 123.09 179.387 128.076 181.149C149.032 189.611 175.33 183.861 184.851 163.387Z" fill="#FFA52E"/>
</g>
<g opacity="0.47">
<path d="M138.32 93.9698C129.457 90.8389 138.324 80.934 135.927 74.2593C135.461 72.0895 133.078 72.2847 131.271 72.2161C130.113 72.1725 129.034 71.4332 128.743 70.3119C128.212 68.2668 130.824 67.6474 132.785 66.4058C133.943 65.6733 134.71 64.3779 134.6 63.0131C134.251 58.698 126.656 57.6318 127.09 52.7208L137.309 50.866C139.737 50.5329 142.197 52.6983 142.175 55.149C142.164 56.4463 141.581 57.8212 142.153 58.9851C142.835 60.373 144.781 60.6592 145.663 61.9296C147.241 64.202 144.36 67.4566 145.49 69.9816C146.051 71.2362 147.474 71.9371 148.039 73.1898C149.005 75.3303 147.049 77.7129 147.209 80.0557C147.328 81.784 148.578 83.2121 149.88 84.354C157.46 91.0024 168.827 92.826 175.032 100.774C177.929 104.485 179.3 109.08 180.141 113.761C167.938 96.8424 151.688 100.48 138.32 93.9698Z" fill="#FE6E27"/>
</g>
<g opacity="0.7">
<path d="M114.795 67.3C125.544 63.112 134.649 62.5703 139.169 62.6273C139.358 62.8268 139.551 63.0152 139.755 63.1753C140.345 63.6398 140.606 64.3896 140.44 65.1216C139.849 67.732 140.332 71.5806 142.319 73.6545C142.764 74.1185 142.995 74.7561 142.859 75.3842C138.267 96.6153 176.724 90.841 175.701 117.623C176.628 124.769 180.861 173.704 180.913 179.869C174.4 185.589 155.453 186.845 139.091 190.93C127.306 192.56 124.663 194.662 123.088 187.722C114.119 168.737 102.057 97.227 114.795 67.3Z" fill="#FFA52E"/>
</g>
<g opacity="0.45">
<path d="M144.05 171.227C158.099 172.618 174.014 166.286 178.923 152.542C179.984 165.208 180.888 177.041 180.912 179.869C174.399 185.589 155.452 186.845 139.09 190.93C127.305 192.559 124.662 194.662 123.087 187.722C120.301 181.825 117.217 170.858 114.671 157.646C123.108 164.453 133.204 169.326 144.05 171.227Z" fill="#FFA52E"/>
</g>
<g opacity="0.67">
<path d="M127.942 65.9268C116.775 67.9537 114.795 67.2998 114.795 67.2998C125.543 63.1117 134.648 62.57 139.168 62.6271C139.168 62.6271 139.108 63.8999 127.942 65.9268Z" fill="#FE6E27"/>
</g>
<path d="M137.485 103.796C145.25 102.386 152.851 104.257 158.864 108.422C164.876 112.587 169.3 119.046 170.709 126.811L174.645 148.494C175.16 151.331 174.476 154.109 172.954 156.306C171.432 158.503 169.071 160.12 166.234 160.635L130.548 167.113C127.71 167.628 124.932 166.944 122.735 165.422C120.537 163.9 118.92 161.539 118.406 158.702L114.47 137.019C112.865 128.18 115.512 119.554 120.953 113.241C125.073 108.463 130.794 105.01 137.485 103.796Z" fill="white"/>
<path opacity="0.4" d="M137.306 156.926C150.491 159.948 167.555 150.866 172.68 137.671L174.644 148.494C175.16 151.332 174.476 154.109 172.953 156.307C171.431 158.504 169.071 160.121 166.233 160.636L130.547 167.114C127.709 167.629 124.931 166.945 122.734 165.423C120.536 163.901 118.92 161.54 118.405 158.702L115.97 145.287C121.804 151.109 128.57 155.542 137.306 156.926Z" fill="#FFE0B3"/>
<mask id="mask0_1178_1652" style="mask-type:luminance" maskUnits="userSpaceOnUse" x="115" y="137" width="60" height="31">
<path d="M137.306 156.926C150.491 159.948 167.556 150.866 172.68 137.671L174.645 148.494C175.16 151.332 174.476 154.109 172.954 156.307C171.432 158.504 169.071 160.121 166.233 160.636L130.547 167.114C127.709 167.629 124.932 166.945 122.734 165.423C120.537 163.901 118.92 161.54 118.405 158.702L115.97 145.287C121.804 151.109 128.57 155.542 137.306 156.926Z" fill="white"/>
</mask>
<g mask="url(#mask0_1178_1652)">
<g opacity="0.11">
<path d="M137.307 156.926C128.57 155.542 121.805 151.109 115.971 145.287L114.47 137.02C112.865 128.181 115.512 119.554 120.953 113.242C125.073 108.463 130.794 105.011 137.485 103.796H137.485C145.25 102.386 152.852 104.257 158.864 108.422C164.876 112.587 169.299 119.046 170.709 126.811L172.68 137.671C167.557 150.865 150.492 159.948 137.307 156.926Z" fill="#A85E25"/>
</g>
</g>
<path d="M155.721 49.6905C155.087 51.6186 153.594 53.1422 151.999 54.3972C148.945 56.8005 145.333 58.4899 141.531 59.2938C140.676 59.4746 139.787 59.6107 138.934 59.4233C137.051 59.0091 135.798 57.021 135.784 55.0933C135.77 53.1657 136.77 51.3526 138.067 49.9269C139.364 48.5006 140.956 47.3832 142.443 46.1564C142.618 46.0116 142.801 45.8529 142.867 45.6357C142.98 45.2661 142.72 44.8922 142.449 44.6156C141.134 43.2704 139.295 42.603 137.538 41.929C135.782 41.255 133.962 40.4745 132.799 38.9956C131.635 37.5166 131.411 35.1292 132.811 33.8718C133.216 33.5074 133.717 33.2682 134.216 33.05C138.93 30.9915 144.023 30.7801 148.333 33.8737C150.899 35.715 152.444 39.2151 154.144 41.8005C155.647 44.0849 156.609 46.9872 155.721 49.6905Z" fill="#9FD24A"/>
<g opacity="0.3">
<path d="M154.42 42.5265C149.591 40.3184 136.211 40.1295 131.853 36.207C131.846 37.1908 131.47 38.8222 132.332 39.3092C134.42 40.489 135.782 41.2546 137.539 41.9287C139.295 42.6027 141.134 43.27 142.45 44.6152C142.72 44.8914 142.981 45.2658 142.868 45.6354C142.801 45.8526 142.619 46.0112 142.444 46.156C140.957 47.3828 139.364 48.5003 138.068 49.9265C136.771 51.3527 135.771 53.1658 135.785 55.093C135.791 55.9085 136.029 56.7273 136.432 57.4406C136.177 56.0398 136.743 54.9242 138.212 53.7344C140.896 53.929 155.922 50.8004 154.42 42.5265Z" fill="#9FD24A"/>
</g>
<path d="M155.722 49.6905C155.429 50.7159 154.874 51.6603 154.194 52.4868C153.514 53.3176 152.721 54.0516 151.889 54.7237C150.214 56.0579 148.366 57.183 146.404 58.0618C145.423 58.5033 144.413 58.8806 143.378 59.1797C142.862 59.3341 142.34 59.4664 141.815 59.5863C141.292 59.7076 140.754 59.8159 140.192 59.8566C139.632 59.8974 139.043 59.8605 138.478 59.6754C137.918 59.4899 137.411 59.1706 136.989 58.7756C136.143 57.9798 135.612 56.9021 135.447 55.7669C135.297 54.6178 135.528 53.4758 135.969 52.4538C136.412 51.4293 137.052 50.5155 137.788 49.7068C138.526 48.9009 139.352 48.1986 140.186 47.5308L141.443 46.5456L142.069 46.0595C142.28 45.8927 142.492 45.7379 142.559 45.6046C142.63 45.4838 142.613 45.3256 142.501 45.1333C142.397 44.9459 142.216 44.7723 142.034 44.5906C141.666 44.2373 141.251 43.9305 140.812 43.6563C139.933 43.105 138.956 42.7009 137.975 42.2977C135.991 41.5047 134.11 40.4726 132.332 39.3101C134.2 40.3254 136.099 41.2808 138.11 41.9477C139.111 42.3068 140.118 42.6917 141.064 43.2363C141.535 43.5091 141.99 43.8217 142.403 44.1913C142.601 44.3773 142.82 44.5647 142.989 44.8375C143.073 44.9713 143.146 45.128 143.177 45.3121C143.207 45.4957 143.179 45.7071 143.091 45.8778C142.905 46.2206 142.654 46.3692 142.464 46.5437L141.848 47.0562L140.611 48.0562C139.795 48.7245 139.005 49.4139 138.315 50.1847C137.631 50.9527 137.048 51.8123 136.657 52.7452C136.266 53.6719 136.084 54.6945 136.222 55.6571C136.349 56.6236 136.803 57.5627 137.502 58.231C137.85 58.5642 138.261 58.8274 138.709 58.9822C139.156 59.1347 139.646 59.1764 140.144 59.1452C141.141 59.0709 142.185 58.7981 143.19 58.5292C144.198 58.2411 145.192 57.9031 146.165 57.509C148.111 56.7175 149.957 55.6724 151.654 54.4203C153.352 53.1968 154.956 51.6987 155.722 49.6905Z" fill="#548C0C"/>
<path d="M120.218 53.9773L137.619 50.8186L136.374 43.9604L118.973 47.1191L120.218 53.9773Z" fill="#3276D2"/>
<path d="M115.598 41.0258C115.74 41.8091 120.633 41.5771 126.525 40.5076C132.418 39.438 137.079 37.9356 136.937 37.1522C136.795 36.3689 131.903 36.6009 126.01 37.6705C120.118 38.74 115.456 40.2425 115.598 41.0258Z" fill="#3276D2"/>
<path d="M136.938 37.1523L138.31 44.7144C138.449 45.481 133.785 46.969 127.892 48.0386C121.999 49.1081 117.11 49.354 116.971 48.5879L115.599 41.0254L136.938 37.1523Z" fill="#3276D2"/>
<g opacity="0.22">
<path d="M115.598 41.0258C115.74 41.8091 120.633 41.5771 126.525 40.5076C132.418 39.438 137.079 37.9356 136.937 37.1522C136.795 36.3689 131.903 36.6009 126.01 37.6705C120.118 38.74 115.456 40.2425 115.598 41.0258Z" fill="#FE6E27"/>
</g>
<path d="M149.708 12.0798C149.708 12.0798 156.935 30.1532 164.748 36.9463C165.129 37.2766 164.755 37.8831 164.292 37.686C160.645 36.1366 153.118 31.4226 142.891 17.1591L149.708 12.0798Z" fill="#3276D2"/>
<g opacity="0.22">
<path d="M149.708 12.0798C149.708 12.0798 155.704 27.0692 162.677 34.8767C155.163 29.6762 150.376 21.8903 148.058 13.3095L149.708 12.0798Z" fill="#FE6E27"/>
</g>
<path d="M101.21 29.6693C102.789 17.0022 112.413 6.82883 124.973 4.54881L149.3 0.133057L151.449 11.9733C151.449 11.9733 143.566 15.9787 138.562 25.2503L115.348 29.4642L106.629 31.0467L103.304 31.6502C102.116 31.866 101.06 30.8674 101.21 29.6693Z" fill="#3276D2"/>
<g opacity="0.3">
<path d="M144.109 17.7086C136.252 12.8652 128.134 7.80178 118.96 6.32715C109.429 10.2951 102.526 19.1142 101.21 29.6687C101.061 30.8667 102.116 31.8653 103.304 31.65L106.629 31.0465L115.348 29.464L138.563 25.25C140.225 22.1689 142.205 19.6732 144.109 17.7086Z" fill="#3276D2"/>
</g>
<path d="M151.248 10.8485L161.412 9.00342L159.778 -4.46202e-05L149.614 1.845L151.248 10.8485Z" fill="#3276D2"/>
<g opacity="0.5">
<path d="M151.165 1.55444L149.609 1.8368L151.244 10.8404L161.408 8.99521L161.279 8.28524C157.116 7.60401 153.065 5.2137 151.165 1.55444Z" fill="#3276D2"/>
</g>
<path d="M138.562 25.2502C136.783 28.5466 135.368 32.5055 134.801 37.1902C134.799 37.206 134.798 37.2233 134.796 37.2391C134.04 37.4697 131.829 38.067 126.592 39.0176C126.592 39.0176 119.419 40.3259 117.326 40.3623L115.347 29.4642L138.562 25.2502Z" fill="#3276D2"/>
<g opacity="0.3">
<path d="M130.259 34.7193C130.652 34.7025 131.034 34.7141 131.411 34.738C132.696 34.82 133.895 35.1216 135.043 35.5367C135.715 31.5668 136.997 28.1511 138.563 25.2502L115.348 29.4642L117.327 40.3623C119.42 40.3259 126.593 39.0176 126.593 39.0176C126.992 38.9452 127.367 38.8757 127.732 38.8077C129.119 37.6715 130.375 36.3311 131.411 34.7385C131.033 34.7141 130.652 34.7021 130.259 34.7193Z" fill="#3276D2"/>
</g>
<path d="M154.42 42.5264C153.787 44.4546 152.294 45.9781 150.699 47.2332C147.645 49.6364 144.032 51.3258 140.23 52.1298C139.375 52.3105 138.487 52.4467 137.633 52.2592C135.751 51.845 134.498 49.857 134.484 47.9293C134.47 46.0016 135.47 44.189 136.766 42.7628C138.063 41.3366 139.656 40.2191 141.142 38.9923C141.318 38.8475 141.5 38.6888 141.567 38.4717C141.68 38.1021 141.419 37.7281 141.149 37.4515C139.833 36.1063 136.949 33.6604 135.192 32.9864C133.435 32.3123 132.662 33.31 131.498 31.8315C130.335 30.3526 130.111 27.9651 131.51 26.7082C131.916 26.3438 132.416 26.1046 132.916 25.8865C137.63 23.8279 142.723 23.6165 147.032 26.7101C149.598 28.5515 151.143 32.0515 152.843 34.6369C154.346 36.9208 155.309 39.8231 154.42 42.5264Z" fill="#9FD24A"/>
<g opacity="0.3">
<path d="M145.121 36.6676C140.291 34.4595 134.911 32.9647 130.553 29.0427C130.546 30.0265 130.888 31.0533 131.5 31.8304C132.663 33.3094 132.917 32.1147 134.674 32.7888C136.431 33.4628 139.835 36.1053 141.15 37.4505C141.42 37.7266 141.681 38.101 141.568 38.4706C141.502 38.6878 141.319 38.8465 141.144 38.9912C139.657 40.218 138.065 41.3355 136.768 42.7617C135.471 44.1879 134.471 46.0006 134.485 47.9282C134.491 48.7437 134.729 49.5625 135.132 50.2758C134.878 48.875 134.971 47.3625 135.498 45.8112C137.252 41.7569 142.385 40.0426 145.121 36.6676Z" fill="#9FD24A"/>
</g>
<path d="M154.42 42.5265C154.087 43.6627 153.445 44.7001 152.656 45.5884C151.871 46.4859 150.962 47.2639 150.018 47.984C148.117 49.4136 146.006 50.5665 143.778 51.4227C142.663 51.8489 141.516 52.1965 140.347 52.4501C139.764 52.5781 139.158 52.6907 138.526 52.6955C137.898 52.707 137.232 52.5786 136.655 52.2766C135.485 51.685 134.693 50.5622 134.328 49.3589C133.947 48.1341 134.088 46.8071 134.507 45.6455C134.943 44.4772 135.643 43.4445 136.46 42.5447C137.28 41.6473 138.206 40.8769 139.134 40.142L140.523 39.048C140.741 38.8682 141.013 38.6697 141.151 38.5178C141.278 38.3639 141.283 38.2757 141.195 38.0686C141.103 37.8725 140.915 37.686 140.704 37.4804C140.498 37.28 140.284 37.0834 140.066 36.8907C139.632 36.5024 139.185 36.126 138.729 35.7588C137.815 35.0297 136.873 34.3283 135.884 33.718C135.391 33.416 134.882 33.1327 134.363 32.9495C134.102 32.8618 133.837 32.8019 133.566 32.7928C133.294 32.7774 133.019 32.8316 132.68 32.823C132.33 32.8163 131.988 32.6264 131.774 32.3997C131.551 32.1734 131.374 31.9294 131.203 31.6743C130.87 31.1618 130.655 30.5842 130.539 29.9931C130.422 29.4015 130.436 28.7845 130.583 28.2025C130.734 27.6215 131.064 27.0917 131.511 26.7068C130.645 27.5462 130.47 28.844 130.743 29.9499C130.881 30.5089 131.114 31.0459 131.449 31.5075C131.785 31.9529 132.211 32.4299 132.692 32.4073C132.944 32.404 133.252 32.334 133.571 32.3335C133.891 32.3277 134.211 32.3834 134.513 32.4692C135.118 32.6533 135.647 32.95 136.166 33.2477C137.2 33.8556 138.169 34.5459 139.115 35.2674C139.586 35.6308 140.051 36.0033 140.503 36.3935C140.728 36.5906 140.951 36.7915 141.169 37.001C141.377 37.2061 141.63 37.4295 141.801 37.7685C141.885 37.9358 141.95 38.1453 141.93 38.3759C141.913 38.606 141.796 38.8236 141.671 38.9641C141.408 39.2479 141.191 39.3879 140.959 39.5888L139.579 40.6986C138.666 41.4354 137.779 42.1914 137.015 43.0462C136.256 43.8976 135.622 44.8636 135.242 45.9149C134.857 46.9586 134.729 48.1 135.045 49.147C135.347 50.1883 136.03 51.1562 136.979 51.6423C137.918 52.1601 139.08 52.0301 140.205 51.788C141.343 51.544 142.468 51.2362 143.571 50.858C145.773 50.089 147.875 49.0185 149.793 47.6743C150.758 47.0108 151.689 46.2908 152.502 45.4489C153.315 44.6095 154.006 43.6349 154.42 42.5265Z" fill="#548C0C"/>
<g opacity="0.22">
<path d="M116.972 48.5881L116.374 45.2942C118.75 46.8925 121.191 48.1308 123.757 48.6788C119.871 49.1677 117.077 49.1649 116.972 48.5881Z" fill="#FE6E27"/>
</g>
<g opacity="0.22">
<path d="M136.389 44.1031C136.356 44.0849 136.332 44.0527 136.324 44.0125L135.413 38.9956C135.401 38.9246 135.448 38.8565 135.519 38.8436C135.59 38.8302 135.658 38.8771 135.671 38.9491L136.582 43.966C136.594 44.0369 136.548 44.105 136.476 44.118C136.445 44.1237 136.414 44.1175 136.389 44.1031Z" fill="white"/>
</g>
<g opacity="0.22">
<path d="M134.691 44.9954C134.658 44.9772 134.634 44.9451 134.627 44.9048L133.716 39.8879C133.704 39.8169 133.75 39.7489 133.822 39.7359C133.893 39.7225 133.961 39.7695 133.974 39.8414L134.884 44.8583C134.897 44.9293 134.85 44.9973 134.779 45.0103C134.748 45.016 134.717 45.0098 134.691 44.9954Z" fill="white"/>
</g>
<g opacity="0.22">
<path d="M132.92 45.4815C132.887 45.4633 132.863 45.4312 132.856 45.3909L131.945 40.374C131.932 40.303 131.979 40.235 132.05 40.222C132.121 40.2086 132.189 40.2556 132.202 40.3275L133.113 45.3444C133.125 45.4154 133.079 45.4834 133.008 45.4964C132.976 45.5021 132.946 45.4959 132.92 45.4815Z" fill="white"/>
</g>
<g opacity="0.22">
<path d="M131.145 45.9441C131.113 45.9259 131.088 45.8938 131.081 45.8535L130.17 40.8366C130.158 40.7657 130.205 40.6976 130.276 40.6847C130.346 40.6712 130.415 40.7182 130.428 40.7901L131.338 45.807C131.351 45.878 131.304 45.9461 131.233 45.959C131.202 45.9647 131.171 45.9585 131.145 45.9441Z" fill="white"/>
</g>
<g opacity="0.22">
<path d="M129.345 46.2712C129.313 46.253 129.288 46.2209 129.281 46.1806L128.37 41.1637C128.358 41.0927 128.404 41.0246 128.476 41.0117C128.546 40.9978 128.615 41.0453 128.628 41.1172L129.539 46.1341C129.551 46.205 129.504 46.2731 129.433 46.2861C129.402 46.2918 129.371 46.2856 129.345 46.2712Z" fill="white"/>
</g>
<g opacity="0.22">
<path d="M118.393 47.3697C118.36 47.3515 118.336 47.3193 118.329 47.2791L117.418 42.2621C117.406 42.1912 117.452 42.1231 117.524 42.1102C117.594 42.0968 117.663 42.1437 117.676 42.2157L118.586 47.2326C118.599 47.3035 118.552 47.3716 118.481 47.3845C118.449 47.3903 118.419 47.3841 118.393 47.3697Z" fill="white"/>
</g>
<g opacity="0.22">
<path d="M120.296 47.6087C120.263 47.5905 120.239 47.5584 120.231 47.5181L119.32 42.5012C119.308 42.4302 119.354 42.3622 119.426 42.3492C119.497 42.3358 119.565 42.3828 119.578 42.4547L120.489 47.4716C120.501 47.5425 120.455 47.6106 120.383 47.6236C120.352 47.6298 120.321 47.6236 120.296 47.6087Z" fill="white"/>
</g>
<g opacity="0.22">
<path d="M122.123 47.4412C122.091 47.423 122.066 47.3909 122.059 47.3506L121.149 42.3337C121.136 42.2627 121.183 42.1947 121.254 42.1817C121.324 42.1683 121.393 42.2153 121.406 42.2872L122.316 47.3041C122.329 47.3751 122.282 47.4432 122.211 47.4561C122.18 47.4618 122.149 47.4561 122.123 47.4412Z" fill="white"/>
</g>
<g opacity="0.22">
<path d="M123.948 47.2504C123.915 47.2322 123.891 47.2001 123.883 47.1598L122.973 42.1429C122.96 42.072 123.007 42.0039 123.078 41.9909C123.149 41.977 123.217 42.0245 123.23 42.0964L124.141 47.1133C124.153 47.1843 124.107 47.2524 124.035 47.2653C124.004 47.2715 123.973 47.2653 123.948 47.2504Z" fill="white"/>
</g>
<g opacity="0.22">
<path d="M125.747 46.9239C125.715 46.9057 125.69 46.8736 125.683 46.8333L124.772 41.8164C124.76 41.7454 124.806 41.6773 124.878 41.6644C124.949 41.651 125.017 41.698 125.03 41.7699L125.94 46.7868C125.953 46.8577 125.906 46.9258 125.835 46.9388C125.803 46.9445 125.773 46.9383 125.747 46.9239Z" fill="white"/>
</g>
<g opacity="0.22">
<path d="M127.567 46.7044C127.534 46.6862 127.51 46.6541 127.502 46.6138L126.591 41.5974C126.579 41.5264 126.625 41.4583 126.696 41.4454C126.767 41.432 126.835 41.4789 126.848 41.5509L127.76 46.5673C127.772 46.6383 127.726 46.7063 127.654 46.7193C127.623 46.725 127.592 46.7188 127.567 46.7044Z" fill="white"/>
</g>
<g opacity="0.22">
<path d="M115.284 29.5778C115.251 29.5596 115.227 29.5275 115.22 29.4872C115.207 29.4163 115.254 29.3482 115.325 29.3353L138.539 25.1213C138.61 25.1074 138.679 25.1549 138.691 25.2268C138.704 25.2977 138.657 25.3658 138.586 25.3788L115.372 29.5927C115.34 29.5984 115.309 29.5922 115.284 29.5778Z" fill="white"/>
</g>
<path d="M81.7401 38.5553C81.7401 38.5553 83.2564 26.5943 94.9006 21.6737C106.545 16.7537 112.139 13.0407 120.814 12.0771C129.489 11.1135 145.259 20.7984 151.682 23.6786C158.104 26.5584 155.506 35.8434 144.872 35.0519C136.716 34.4445 128.061 30.1471 128.061 30.1471C128.061 30.1471 129.981 36.1679 119.134 43.449C108.287 50.7302 81.7401 38.5553 81.7401 38.5553Z" fill="#9FD24A"/>
<g opacity="0.3">
<path d="M151.263 31.3551C148.747 32.9994 145.576 33.3048 142.577 33.091C138.544 32.8033 134.518 31.6274 131.207 29.3061C129.581 28.1666 128.007 26.3338 128.516 24.4153C128.065 25.3017 127.474 26.1641 126.607 26.6517C125.74 27.1392 124.544 27.1503 123.832 26.4556C125.27 31.1762 124.059 36.5264 121.033 40.4244C119.571 42.3074 117.718 43.8511 115.644 45.0247C116.925 44.657 118.101 44.1421 119.133 43.4494C129.98 36.1682 128.06 30.1475 128.06 30.1475C128.06 30.1475 136.715 34.4453 144.871 35.0522C153.151 35.6687 156.557 30.1772 154.629 26.3559C154.291 28.3444 152.986 30.2295 151.263 31.3551Z" fill="#9FD24A"/>
</g>
<path d="M116.6 12.8026C118.12 12.4239 119.661 12.1142 121.227 11.969C122.802 11.8299 124.383 12.0227 125.927 12.3151C129.022 12.9182 131.993 14.0031 134.892 15.203C137.792 16.4111 140.624 17.7678 143.431 19.1657C146.242 20.5512 148.996 22.0666 151.822 23.3561C153.306 24.0105 154.668 25.2042 155.219 26.8193C155.5 27.6127 155.586 28.4738 155.476 29.3065C155.358 30.1387 155.051 30.9359 154.609 31.6392C153.72 33.0578 152.314 34.0588 150.81 34.6676C149.289 35.2649 147.663 35.4854 146.062 35.4754C142.86 35.3881 139.758 34.7146 136.733 33.8301C133.708 32.9326 130.767 31.808 127.915 30.4393L128.371 30.0476C128.666 31.3775 128.431 32.622 128.054 33.8133C127.652 34.9941 127.064 36.0962 126.352 37.1006C124.932 39.1193 123.091 40.7723 121.162 42.2507C120.157 42.9372 119.203 43.6995 118.092 44.246C116.99 44.7891 115.812 45.1521 114.62 45.4009C112.226 45.8788 109.775 45.8937 107.364 45.6904C109.78 45.7983 112.22 45.7086 114.571 45.1775C115.741 44.8999 116.886 44.5116 117.944 43.9545C118.999 43.4027 119.927 42.6127 120.911 41.9223C122.793 40.4309 124.574 38.7722 125.914 36.7966C126.586 35.8143 127.129 34.7486 127.489 33.6316C127.577 33.3512 127.665 33.0712 127.711 32.7826C127.739 32.6392 127.773 32.4969 127.796 32.353L127.843 31.9201C127.893 31.354 127.878 30.7394 127.749 30.2446L127.57 29.5553L128.206 29.853C131.013 31.1689 133.946 32.2826 136.932 33.1469C139.913 34.0036 142.996 34.6465 146.064 34.7122C146.829 34.716 147.59 34.6527 148.34 34.5353C149.086 34.4025 149.82 34.2107 150.521 33.9403C151.911 33.3861 153.179 32.4815 153.969 31.2346C154.364 30.6162 154.633 29.922 154.74 29.2029C154.838 28.4829 154.768 27.7446 154.53 27.06C154.067 25.6707 152.889 24.6064 151.534 23.9976C150.095 23.3394 148.703 22.6169 147.31 21.8978L143.143 19.7309C140.366 18.2903 137.567 16.8929 134.703 15.6445C131.838 14.4077 128.91 13.283 125.869 12.5922C124.35 12.2614 122.794 12.0294 121.238 12.1248C119.684 12.235 118.131 12.4752 116.6 12.8026Z" fill="#548C0C"/>
<path d="M81.74 38.5557C81.8939 36.6941 82.3704 34.8518 83.0756 33.1073C83.7678 31.3536 84.7271 29.704 85.871 28.1982C86.1567 27.8209 86.4419 27.4432 86.7727 27.1033C87.0949 26.7567 87.4022 26.3957 87.7373 26.062C88.4516 25.4402 89.1184 24.7648 89.9157 24.2504C90.3073 23.9872 90.6659 23.6765 91.083 23.4541L92.3165 22.7681C92.7206 22.5288 93.1655 22.3687 93.5979 22.1889C94.0299 22.0087 94.4647 21.8375 94.9 21.6741C93.2772 22.6003 91.6832 23.5332 90.2896 24.7345C89.559 25.2897 88.9257 25.9546 88.2646 26.5841C87.662 27.2701 87.0163 27.9211 86.4937 28.6733C85.3772 30.1177 84.4213 31.6916 83.6336 33.3518L83.0694 34.6112C82.903 35.0402 82.7204 35.465 82.5665 35.8998C82.2323 36.7632 81.9711 37.6515 81.74 38.5557Z" fill="#548C0C"/>
<g opacity="0.23">
<path d="M87.3928 27.0517C89.2553 24.9812 91.7261 23.0449 94.9951 21.6637C106.639 16.7437 112.234 13.0307 120.909 12.0671C129.584 11.1035 145.354 20.7884 151.777 23.6681C153.28 24.3422 154.282 25.3685 154.81 26.533C153.817 26.8072 152.787 26.8077 151.817 26.3877C114.21 6.99411 84.4344 37.9638 55.7582 56.9346C49.153 61.0766 41.4644 64.3486 33.49 66.5658C32.1324 63.0436 30.9334 59.5311 30 56.1537C30 56.1547 66.1813 34.3583 87.3928 27.0517Z" fill="white"/>
</g>
</svg>
