<svg width="200" height="181" viewBox="0 0 200 181" fill="none" xmlns="http://www.w3.org/2000/svg">
<path d="M73.0292 102.877L200 180.315V109.384L91.3609 76.5923L73.0292 102.877Z" fill="#C28264"/>
<path d="M164.886 94.9879C153.025 91.3385 112.152 85.3172 109.598 79.2955C107.043 73.2742 95.1827 70.7195 95.1827 70.7195C94.2704 64.333 91.0592 59.4148 91.0592 59.4148L82.9573 53.02L70.1849 53.5973V53.6007C69.7724 53.2564 69.3479 52.9257 68.9019 52.6202C63.2366 48.734 55.8254 48.8954 48.9623 49.2038C48.869 48.6323 49.1549 48.0176 49.6524 47.7214L42.7455 49.8034C38.6983 50.4605 34.7026 51.8718 31.4826 54.4104C29.6423 55.8617 28.0953 57.6441 26.5609 59.4158C22.4577 64.1516 18.3551 68.887 14.2519 73.6224C13.3989 74.6073 12.4996 75.7049 12.4666 77.0073C12.4043 79.4531 15.3369 80.8527 17.7831 80.8819C22.8653 80.9427 27.6231 77.8341 30.5357 73.6696C31.7189 71.9772 32.6887 70.0664 34.3247 68.8063C35.9607 67.5467 38.5845 67.2165 39.9428 68.7718C40.8926 69.8592 40.9126 71.4403 41.0813 72.874C41.5954 77.2422 43.8904 81.1698 46.1343 84.9525C47.8496 87.8432 49.5712 90.7442 51.6469 93.3884C54.3431 96.8234 57.6239 99.7977 61.3074 102.143C62.8393 103.118 66.1702 105.717 70.5948 104.196C70.5968 104.196 70.5977 104.195 70.5992 104.194C90.5524 131.426 153.026 156.114 153.026 156.114C165.068 141.152 164.886 94.9879 164.886 94.9879Z" fill="#FFA52E"/>
<g opacity="0.4">
<path d="M47.3367 85.9916C47.0867 85.9084 46.8363 85.8131 46.5863 85.71C48.1552 88.3478 49.7523 90.975 51.6466 93.3882C54.3428 96.8231 57.6236 99.7975 61.3071 102.143C62.839 103.118 66.1699 105.717 70.5945 104.196C70.5965 104.195 70.5975 104.194 70.5989 104.194C90.5521 131.426 153.025 156.114 153.025 156.114C156.095 152.3 158.369 146.458 160.055 139.871C124.909 134.955 91.2806 115.223 65.0849 89.5408C62.2447 85.9916 53.0161 88.8313 47.3367 85.9916Z" fill="#FFA52E"/>
</g>
<g opacity="0.4">
<path d="M48.9607 49.2038C48.8673 48.6323 49.1533 48.0176 49.6508 47.7214L42.7439 49.8034C38.6966 50.4605 34.7009 51.8718 31.4809 54.4104C29.6407 55.8617 28.0936 57.6441 26.5593 59.4158C23.2683 63.2145 19.9773 67.0132 16.6863 70.8115C17.1488 74.2012 17.9001 77.5656 18.9399 80.8352C23.5795 80.4554 27.8442 77.516 30.5341 73.6696C31.7173 71.9772 32.687 70.0664 34.3231 68.8063C35.9591 67.5467 38.5828 67.2165 39.9412 68.7723C40.891 69.8592 40.9109 71.4408 41.0797 72.8745C41.5937 77.2427 43.8887 81.1703 46.1327 84.953C47.7371 87.657 49.3585 90.361 51.2581 92.8641C51.2887 77.5505 56.2615 62.0128 66.6831 51.3388C61.3786 48.7782 54.9605 48.9343 48.9607 49.2038Z" fill="#FFA52E"/>
</g>
<path d="M4.16261 46.51C2.45607 47.4345 0.592914 48.5755 0.130899 50.4605C-0.289777 52.1773 0.673655 54.0107 2.09861 55.0563C3.52356 56.1019 5.32201 56.4939 7.07863 56.687C14.3712 57.4885 21.7838 55.2523 28.0351 51.4127C30.7002 49.7758 36.8299 46.9584 36.8299 46.9584C36.8299 46.9584 39.4314 52.1432 41.7458 55.4493C43.4353 57.8629 43.1814 61.4175 45.4229 63.3293C48.782 66.1948 54.4381 64.6152 56.9193 60.9628C59.4006 57.3105 59.2824 52.4277 58.0034 48.2015C56.7238 43.9753 54.423 40.1406 52.7233 36.0656C51.809 33.8737 50.9812 31.4882 49.1088 30.0268C43.2145 25.4256 34.6877 31.5758 29.2865 34.0259C20.7689 37.8903 12.387 42.0552 4.16261 46.51Z" fill="#FFA52E"/>
<g opacity="0.4">
<path d="M58.0033 48.202C56.7242 43.9758 54.4229 40.141 52.7232 36.0661C51.8089 33.8742 50.9806 31.4887 49.1087 30.0273C43.2144 25.4261 34.6876 31.5763 29.2864 34.0264C23.0078 36.8744 16.8052 39.8887 10.6832 43.059C10.8189 47.7171 11.2411 52.3372 12.1111 56.7682C17.7175 56.368 23.2209 54.3692 28.0351 51.4127C30.7001 49.7762 36.8299 46.9584 36.8299 46.9584C36.8299 46.9584 39.4313 52.1432 41.7457 55.4498C43.4352 57.8634 43.1814 61.418 45.4224 63.3298C48.782 66.1952 54.4375 64.6157 56.9188 60.9633C59.401 57.311 59.2828 52.4282 58.0033 48.202Z" fill="#FFA52E"/>
</g>
<path d="M47.3277 20.7481C46.6371 20.9781 8.4304 18.9068 2.67613 20.7481C-3.07765 22.5893 0.834871 31.1055 13.7241 32.0261C26.6133 32.9467 40.8833 33.4073 40.8833 33.4073C40.8833 33.4073 47.7882 56.2444 57.455 61.9729C67.1218 67.7014 69.6537 48.5978 69.6537 48.5978L52.8519 21.2086L47.3277 20.7481Z" fill="#FFA52E"/>
<g opacity="0.4">
<path d="M52.8507 21.2082L47.3265 20.7476C46.7482 20.9402 19.8551 19.5191 7.75176 20.1339C6.43234 23.3422 6.11187 27.016 6.71638 30.5385C8.64128 31.2864 10.9761 31.8297 13.7229 32.0256C26.6122 32.9463 40.8821 33.4063 40.8821 33.4063C40.8821 33.4063 47.787 56.2435 57.4538 61.972C67.1207 67.7004 69.6525 48.5969 69.6525 48.5969L52.8507 21.2082Z" fill="#FFA52E"/>
</g>
<path d="M91.0576 59.415C91.0576 59.415 71.0334 32.2559 67.5809 26.9622C64.1285 21.6685 34.2074 4.40614 28.2231 0.723647C22.2388 -2.95885 18.3263 9.23979 28.9137 16.3748C39.5011 23.5097 52.8504 31.3353 52.8504 31.3353C52.8504 31.3353 60.446 53.6608 66.8903 59.415C73.3352 65.1688 91.0576 59.415 91.0576 59.415Z" fill="#FFA52E"/>
<g opacity="0.4">
<path d="M58.9024 25.3794C47.5937 17.8403 26.292 16.9629 22.5214 3.57861C21.6825 7.08457 23.1366 12.4814 28.9142 16.3749C39.5017 23.5099 52.851 31.3355 52.851 31.3355C52.851 31.3355 60.446 53.6609 66.8909 59.4152C69.0935 61.3819 72.614 62.0035 76.2941 61.9704C69.7427 54.0972 65.5082 44.2344 63.8717 33.1888C63.8717 30.3492 61.032 26.7994 58.9024 25.3794Z" fill="#FFA52E"/>
</g>
<path d="M28.2235 0.723828C27.7527 0.479689 27.2708 0.236058 26.7446 0.160676C26.2271 0.0711913 25.6907 0.0891868 25.1956 0.25308C24.204 0.600321 23.4682 1.4475 23.0597 2.39779C22.6341 3.351 22.4673 4.40585 22.4843 5.44855C22.5004 6.49221 22.6769 7.53248 22.9955 8.52703C23.6384 10.5161 24.7992 12.3228 26.2772 13.7993C27.725 15.3191 29.5595 16.3822 31.3297 17.5732C34.8911 19.9008 38.4924 22.1701 42.1204 24.3955C45.7548 26.6103 49.3736 28.8556 53.0352 31.0218L53.1519 31.0908L53.1957 31.2187C54.0453 33.6995 54.9635 36.1676 55.9211 38.6149C56.8689 41.0669 57.8567 43.5039 58.9217 45.9069C59.9858 48.3099 61.1233 50.6807 62.3761 52.9894C63.0064 54.141 63.6688 55.2775 64.4071 56.364C65.1482 57.4461 65.9366 58.5053 66.8907 59.4162C65.8967 58.5496 65.0456 57.5268 64.2689 56.4608C63.4893 55.3943 62.7842 54.2762 62.1106 53.1406C60.7571 50.8719 59.5802 48.5049 58.4582 46.1175C57.3392 43.7277 56.2926 41.3052 55.2951 38.8629C54.3166 36.4118 53.3805 33.949 52.506 31.4531L52.6665 31.6501C48.9913 29.4879 45.3224 27.3213 41.7129 25.0535C38.0956 22.7999 34.505 20.502 30.9518 18.1447C30.0662 17.5451 29.1772 16.9765 28.3052 16.3351C27.4225 15.7087 26.6099 14.983 25.8614 14.2005C24.3625 12.638 23.1948 10.7364 22.5714 8.65686C22.264 7.61757 22.0948 6.53209 22.122 5.44611C22.1419 4.36257 22.3525 3.27173 22.8311 2.29128C23.2902 1.31522 24.0985 0.445162 25.1523 0.118348C26.2218 -0.196795 27.3389 0.155793 28.2235 0.723828Z" fill="#CE7000"/>
<path d="M2.6756 20.7476C1.72337 21.0681 0.823642 21.6891 0.420473 22.6092C0.00903654 23.526 0.167571 24.5905 0.593111 25.4742C1.02108 26.371 1.68202 27.1428 2.42902 27.7984C3.18138 28.4525 4.02177 29.0035 4.90446 29.4704C6.67568 30.4022 8.61806 30.9853 10.5882 31.3403C12.5573 31.7138 14.5795 31.7425 16.6056 31.8826C20.6504 32.1316 24.6976 32.3422 28.7468 32.5221L40.8944 33.0352L41.2164 33.0488L41.2524 33.3708C41.4561 35.1814 41.8292 37.0085 42.2907 38.7919C42.7658 40.5753 43.3003 42.3474 43.9933 44.0618C44.6698 45.7819 45.4971 47.4413 46.4376 49.0345C47.3772 50.6311 48.4977 52.1183 49.751 53.4951C48.3927 52.22 47.1997 50.7654 46.1633 49.2077C45.6391 48.4324 45.1576 47.6271 44.7233 46.7969C44.2803 45.9716 43.8747 45.1259 43.5026 44.266C42.7561 42.5473 42.1195 40.7781 41.6298 38.9679C41.141 37.1539 40.7456 35.3292 40.5132 33.4432L40.8711 33.7783C36.8146 33.6553 32.762 33.5045 28.7109 33.2837C24.6597 33.0756 20.6095 32.8358 16.5618 32.5586C14.5479 32.3996 12.5 32.3106 10.4841 31.8913C8.47752 31.4857 6.50108 30.8477 4.69971 29.8507C3.79999 29.3542 2.94698 28.7638 2.19559 28.0561C1.44713 27.3515 0.787642 26.5276 0.372801 25.5744C-0.0410665 24.6363 -0.170404 23.5002 0.296961 22.5519C0.759948 21.6001 1.71364 21.0257 2.6756 20.7476Z" fill="#CE7000"/>
<path d="M2.099 55.056C3.39264 55.9275 4.92798 56.2957 6.44728 56.4717C7.97971 56.6181 9.52091 56.676 11.0553 56.5962C14.1255 56.4299 17.1514 55.7806 20.0509 54.7861C21.5007 54.2871 22.9193 53.6977 24.2995 53.029C25.6875 52.3578 26.9904 51.588 28.3273 50.7773C31.0586 49.2468 33.8647 47.9439 36.6844 46.6405L36.9913 46.4985L37.1436 46.8015C37.8361 48.1788 38.5641 49.5473 39.298 50.9071C40.0397 52.263 40.809 53.6058 41.6514 54.8965C41.8605 55.2116 42.0827 55.5467 42.2763 55.8998C42.4625 56.2534 42.6255 56.6166 42.7597 56.9877C43.0282 57.7303 43.2188 58.4871 43.4187 59.235C43.8136 60.713 44.263 62.2571 45.4238 63.3304C44.8159 62.8451 44.3412 62.1973 43.9964 61.4965C43.6468 60.7947 43.3978 60.0506 43.159 59.3119C42.6867 57.8276 42.2286 56.3667 41.2657 55.1581C40.3713 53.8776 39.5553 52.5504 38.7655 51.2091C37.9713 49.8693 37.2316 48.5037 36.5181 47.1157L36.9772 47.2767C34.1896 48.599 31.3864 49.9413 28.7266 51.4645C27.4082 52.2465 26.0338 53.0392 24.6239 53.7016C23.2101 54.3688 21.758 54.9548 20.2742 55.4485C17.3144 56.4625 14.1897 56.9746 11.0718 57.0602C9.50972 57.1039 7.95006 56.9726 6.40985 56.7382C4.88131 56.4844 3.32553 56.0262 2.099 55.056Z" fill="#CE7000"/>
<path d="M20.0912 13.6982L36.6342 74.2717L73.0293 92.3419L60.0492 28.4545L20.0912 13.6982Z" fill="#FE6E27"/>
<path d="M8.19507 22.3649L20.0907 13.698L60.0487 28.4542L48.153 37.1211L8.19507 22.3649Z" fill="#BFE576"/>
<path d="M48.1531 37.1212L61.1333 101.009L73.0289 92.3417L60.0488 28.4543L48.1531 37.1212Z" fill="#BFE576"/>
<g opacity="0.5">
<path d="M48.1531 37.1212L61.1333 101.009L73.0289 92.3417L60.0488 28.4543L48.1531 37.1212Z" fill="#BFE576"/>
</g>
<g opacity="0.5">
<path d="M49.3979 43.2466L61.1336 101.009L73.0293 92.3418L63.593 45.8972C59.0667 43.6926 54.182 42.54 49.3979 43.2466Z" fill="#BFE576"/>
</g>
<path d="M8.19507 22.365L24.7381 82.9385L61.1332 101.009L48.153 37.1212L8.19507 22.365Z" fill="#548C0C"/>
<g opacity="0.4">
<path d="M61.1333 101.009L49.3704 43.1113C43.9585 50.7594 44.0004 64.7642 39.5276 73.2128C37.0055 78.7618 30.8981 82.1564 24.5179 82.1302L24.7387 82.9384L61.1333 101.009Z" fill="#548C0C"/>
</g>
<path d="M74.2983 92.2031C69.6539 88.0955 69.0158 82.2853 67.1585 79.8196C64.6709 76.517 62.1829 73.2148 59.6953 69.9121C56.8449 66.1285 53.942 62.2437 52.5486 57.7164C51.9047 55.6247 51.6052 53.3501 52.2403 51.256C52.876 49.1618 54.6058 47.305 56.7734 47.0045C59.7862 46.5872 62.3302 49.0597 64.4609 51.2297C72.5981 59.5183 72.5981 59.5183 83.0227 65.8941L74.2983 92.2031Z" fill="#FFA52E"/>
<g opacity="0.24">
<path d="M64.459 51.2304C62.3283 49.0599 59.7843 46.5878 56.7715 47.0046C56.0819 47.1004 55.4438 47.3669 54.8636 47.7351C55.1404 53.4013 63.4975 56.5644 67.9226 59.7251C72.3789 63.0672 77.4202 65.0363 82.6356 65.6588C72.6021 59.5213 72.4927 59.4134 64.459 51.2304Z" fill="#FE6E27"/>
</g>
<g opacity="0.5">
<path d="M56.0495 47.1726C54.2262 47.7387 52.8037 49.4019 52.2405 51.2563C51.6049 53.3505 51.905 55.625 52.5489 57.7167C53.9422 62.2445 56.8451 66.1288 59.6955 69.9125C62.1831 73.2151 64.6712 76.5173 67.1587 79.82C68.5176 81.6243 69.23 85.2178 71.3305 88.626C70.0373 83.7452 68.7281 78.843 66.7128 74.3643C62.8951 66.7294 53.3853 56.8141 56.0495 47.1726Z" fill="#FFA52E"/>
</g>
<path d="M74.2978 92.2033C72.8733 91.0736 71.6905 89.6355 70.7461 88.0671C69.8075 86.4913 69.0955 84.7936 68.4039 83.1225C68.0635 82.287 67.7255 81.4505 67.2951 80.6943C67.083 80.3145 66.8297 79.9891 66.5471 79.6176L65.7252 78.534L62.4381 74.1998L59.1636 69.8554C58.0786 68.4013 56.9921 66.9389 55.9869 65.4138C53.9866 62.3762 52.229 59.0477 51.6659 55.3535C51.4247 53.5215 51.5735 51.5475 52.5096 49.8765C52.9668 49.0497 53.5947 48.3158 54.3572 47.7507C55.1217 47.1939 56.038 46.8116 56.9917 46.7435C57.942 46.6647 58.8961 46.8739 59.7453 47.2546C60.6003 47.6335 61.3638 48.1685 62.067 48.754C63.4749 49.9334 64.665 51.3087 65.9479 52.5878C68.4914 55.1663 70.9868 57.8178 73.9019 59.9751C76.8218 62.1203 79.9518 63.9679 83.0225 65.8933C79.929 64.0024 76.781 62.1933 73.828 60.0753C70.8827 57.934 68.3582 55.2966 65.7928 52.7405C64.5118 51.4595 63.2644 50.1303 61.8516 49.022C61.1454 48.471 60.3906 47.9832 59.5804 47.6379C58.7717 47.2945 57.8948 47.1243 57.034 47.2123C55.2968 47.3738 53.8174 48.6261 53.0169 50.1513C52.1896 51.6871 52.0865 53.5274 52.3351 55.2597C52.5928 57.008 53.1939 58.7116 53.9356 60.3345C54.6831 61.9594 55.6042 63.5064 56.6075 64.9999C58.6233 67.9811 60.9168 70.8067 63.0587 73.7315L66.3181 78.0871L67.1327 79.176C67.3987 79.5256 67.6963 79.9239 67.9195 80.3412C68.3738 81.1699 68.7011 82.0268 69.0318 82.874C69.6601 84.5776 70.2695 86.2711 71.1191 87.856C71.5471 88.6439 71.9979 89.4234 72.5309 90.15C73.063 90.8771 73.6539 91.5633 74.2978 92.2033Z" fill="#CE7000"/>
<g opacity="0.24">
<path d="M164.885 94.9879C153.024 91.3385 112.152 85.3172 109.597 79.2954C107.042 73.2742 95.182 70.7195 95.182 70.7195C94.2696 64.333 91.0584 59.4147 91.0584 59.4147C91.0584 59.4147 71.0342 32.2556 67.5817 26.9619C64.1292 21.6682 34.2082 4.40584 28.2239 0.723342C26.7444 -0.187069 25.3924 -0.124326 24.3536 0.590094C26.0461 2.76448 28.2856 4.25558 30.2981 5.06046C61.024 18.7161 82.5466 43.5399 87.9371 75.7345C95.1688 77.0467 101.586 81.1007 104.646 87.8923C108.233 88.0586 111.843 89.0036 114.778 90.9606C130.396 99.9528 147.591 103.576 164.682 103.524C164.898 98.3392 164.885 94.9879 164.885 94.9879Z" fill="#FE6E27"/>
</g>
<g opacity="0.56">
<path d="M88.736 68.4341C88.9247 69.0153 89.1353 69.6295 89.6075 70.0176C90.0797 70.4057 90.9016 70.432 91.2221 69.9111C91.4274 69.577 91.3651 69.15 91.2883 68.7653C90.585 65.2404 89.2666 61.8405 87.419 58.7576C86.9512 57.977 86.4609 57.1931 85.9075 56.4699C85.4926 55.9277 85.017 55.204 84.8356 56.2243C84.7077 56.9431 85.4105 58.1973 85.6332 58.8831C85.9591 59.8864 86.2854 60.8902 86.6112 61.8935C87.3193 64.0737 88.0279 66.2539 88.736 68.4341Z" fill="#FE6E27"/>
</g>
<g opacity="0.56">
<path d="M66.6599 56.7903C67.0004 56.9503 67.5008 57.0495 67.671 56.7145C67.7737 56.5126 67.6764 56.267 67.5495 56.0793C67.3501 55.7836 67.0806 55.5434 66.8122 55.308C64.9787 53.7011 63.0567 52.1955 61.0579 50.7992C60.8765 50.6723 60.0848 50.1894 59.898 50.5269C59.7759 50.7472 60.3561 51.3989 60.4753 51.5691C60.9937 52.3102 61.5768 53.0057 62.2149 53.6472C63.5008 54.9403 65.0098 56.0127 66.6599 56.7903Z" fill="#FE6E27"/>
</g>
</svg>
