<svg width="1200" height="246" viewBox="0 0 1200 246" fill="none" xmlns="http://www.w3.org/2000/svg">
<path d="M1072.71 13.6429C1073.89 9.39169 1078.34 6.87794 1082.59 8.06116L1194.06 39.0472C1198.31 40.2293 1200.83 44.676 1199.64 48.9272L1197.05 58.2747C1195.86 62.5283 1191.42 65.0384 1187.17 63.8564L1075.7 32.8703C1071.44 31.6883 1068.93 27.244 1070.11 22.9892L1072.71 13.6429Z" fill="#FFD824"/>
<path d="M1199.36 49.9392L1199.64 48.9274C1199.87 48.1245 1199.92 47.3168 1199.89 46.5211L1073.74 11.4541C1073.3 12.1218 1072.93 12.8402 1072.71 13.6431L1072.43 14.6536L1199.36 49.9392Z" fill="#FDBB30"/>
<path d="M1071.16 19.1887L1070.24 22.4995L1197.18 57.7822L1198.1 54.4714L1071.16 19.1887Z" fill="#FDBB30"/>
<path opacity="0.4" d="M1130.07 21.2597L1082.59 8.06066C1078.34 6.87864 1073.89 9.3924 1072.71 13.6424L1070.11 22.9887C1068.93 27.2422 1071.44 31.6878 1075.7 32.8698L1112.33 43.0528L1122.19 39.1711C1122.19 39.1711 1096.96 32.1575 1100.96 22.5842C1103.81 15.7565 1120.64 18.8956 1130.07 21.2597Z" fill="#FFD824"/>
<path d="M1118.75 68.3862L1067.28 253.575L1081.45 257.515L1132.92 72.326L1118.75 68.3862Z" fill="#BCBEC0"/>
<path opacity="0.3" d="M1118.76 68.4061L1067.29 253.596L1072.04 254.916L1123.51 69.7256L1118.76 68.4061Z" fill="#BCBEC0"/>
<path d="M1111.13 51.7138C1112.7 46.044 1118.63 42.6947 1124.3 44.2703L1141.59 49.0769C1147.26 50.6525 1150.61 56.5807 1149.03 62.2493L1146.77 70.4112C1145.19 76.081 1139.26 79.4315 1133.59 77.8547L1116.3 73.0469C1110.63 71.4713 1107.28 65.5431 1108.86 59.8732L1111.13 51.7138Z" fill="#0069AA"/>
<path d="M1074.61 28.72C1075 27.3038 1076.48 26.4671 1077.9 26.8595L1190.32 58.1112C1191.74 58.5048 1192.58 59.9874 1192.19 61.4049L1188.16 75.9006C1187.76 77.3181 1186.28 78.1548 1184.86 77.7612L1072.44 46.5095C1071.02 46.1171 1070.18 44.6345 1070.58 43.2158L1074.61 28.72Z" fill="#0076C0"/>
<path opacity="0.3" d="M1074.6 28.7209L1070.58 43.2167C1070.18 44.6354 1071.02 46.1168 1072.44 46.5104L1109.69 56.8673L1108.86 59.8749C1107.28 65.5447 1110.63 71.4729 1116.3 73.0485L1121.22 74.4165C1119.18 73.715 1117.26 72.2613 1117.47 67.2471C1117.76 60.4556 1124.58 61.0062 1124.58 61.0062C1124.58 61.0062 1100.38 48.7115 1104.4 42.2556C1108.42 35.7986 1144.11 45.2644 1144.11 45.2644L1077.9 26.8604C1076.48 26.4668 1075 27.3047 1074.6 28.7209Z" fill="#0076C0"/>
<path d="M651.108 260.063C651.108 260.063 645.101 221.122 646.333 212.866C647.555 204.613 654.853 195.198 657.092 189.854C659.335 184.508 658.914 181.054 653.914 183.985C648.915 186.916 647.097 190.864 646.101 192.66C645.099 194.452 643.521 195.453 643.832 188.42C644.146 181.377 644.903 160.869 641.279 159.64C637.654 158.405 636.906 164.806 636.425 172.3C635.939 179.79 636.344 184.406 635.364 182.37C634.38 180.331 634.231 159.476 630.218 156.694C626.2 153.908 626.935 164.973 627.038 173.108C627.136 181.234 627.732 188.468 627.365 189.836C627.002 191.197 626.936 185.673 626.096 180.424C625.259 175.178 622.481 158.343 619.392 158.819C616.302 159.295 616.059 164.801 616.828 171.737C617.593 178.671 618.097 188.04 618.29 190.503C618.491 192.959 617.276 189.229 617.085 186.617C616.892 184.003 613.896 165.166 611.766 164.765C609.643 164.362 607.686 170.408 610.143 187.534C612.606 204.662 616.168 210.798 617.885 223.901C619.602 237.01 618.467 262.563 618.467 262.563C618.467 262.563 640.21 264.527 651.108 260.063Z" fill="#B9407C"/>
<g opacity="0.3">
<path d="M610.34 188.811C610.345 188.836 610.352 188.869 610.354 188.897C610.352 188.869 610.346 188.839 610.34 188.811Z" fill="#B9407C"/>
<path d="M618.469 262.564C618.469 262.564 619.603 237.011 617.887 223.903C616.388 212.455 613.48 206.32 611.128 193.543C613.217 202.922 618.17 210.372 619.84 214.942C621.757 220.184 622.83 224.959 623.788 242.189C624.74 259.42 634.329 256.408 641.639 256.304C648.93 256.199 648.786 243.7 648.784 243.634C649.972 252.665 651.109 260.064 651.109 260.064C640.21 264.526 618.469 262.564 618.469 262.564Z" fill="#B9407C"/>
</g>
<path d="M631.245 247.12C631.245 247.12 653.515 213.735 655.935 205.74C658.358 197.744 655.699 186.446 655.938 180.738C656.171 175.026 658.046 172.021 661.383 176.543C664.72 181.062 664.692 185.341 664.838 187.352C664.988 189.36 666.008 190.854 668.745 184.309C671.483 177.76 679.608 158.732 683.473 158.944C687.332 159.151 685.261 165.28 682.486 172.305C679.714 179.331 677.353 183.402 679.128 181.9C680.908 180.401 690.012 161.394 694.9 160.328C699.791 159.262 694.355 169.109 690.768 176.501C687.185 183.895 683.523 190.284 683.273 191.669C683.024 193.052 685.454 188.025 688.489 183.538C691.516 179.049 701.303 164.688 703.943 166.257C706.573 167.83 704.428 172.957 700.745 179.013C697.061 185.071 692.57 193.446 691.329 195.63C690.089 197.803 692.808 194.837 694.112 192.518C695.411 190.2 706.261 174.087 708.389 174.505C710.52 174.922 709.72 181.168 700.091 195.916C690.469 210.665 684.553 214.963 677.34 226.308C670.124 237.656 660.184 261.431 660.184 261.431C660.184 261.431 639.347 255.21 631.245 247.12Z" fill="#EB539E"/>
<g opacity="0.3">
<path d="M698.606 197.608C698.591 197.629 698.573 197.658 698.554 197.683C698.573 197.658 698.586 197.633 698.606 197.608Z" fill="#EB539E"/>
<path d="M660.598 261.288C660.598 261.288 670.761 237.856 678.075 226.641C684.462 216.845 689.801 212.334 697.548 201.637C691.533 209.361 683.753 214.344 680.224 217.878C676.175 221.936 673.102 225.861 664.676 241.063C656.255 256.264 648.835 250.193 642.213 247.541C635.611 244.9 641.225 233.678 641.25 233.621C636.21 241.348 631.923 247.62 631.923 247.62C639.907 255.449 660.598 261.288 660.598 261.288Z" fill="#EB539E"/>
</g>
<path d="M855.993 249.481C853.757 228.144 852.719 218.142 856.529 214.017C860.341 209.893 864.802 205.85 862.744 201.313C860.685 196.775 847.991 182.666 847.991 182.666L837.952 181.398L827.913 180.128C827.913 180.128 812.109 190.633 808.984 194.516C805.861 198.398 809.175 203.424 811.84 208.367C814.504 213.31 811.008 222.739 803.532 242.847C796.053 262.964 790.444 307.327 789.337 316.07C788.231 324.814 789.925 329.636 793.314 336.645C796.706 343.654 817.255 345.069 817.255 345.069C817.255 345.069 837.506 348.814 842.537 342.871C847.566 336.924 850.407 332.677 851.513 323.932C852.62 315.187 858.231 270.824 855.993 249.481Z" fill="#FFD200"/>
<path opacity="0.5" d="M810.582 242.396L801.654 313.036L840.934 318.001L849.863 247.361L810.582 242.396Z" fill="white"/>
<path d="M829.044 167.446L827.446 180.076L848.494 182.738L850.092 170.108L829.044 167.446Z" fill="#EF3E42"/>
<path d="M833.746 162.099L833.007 167.938L846.097 169.594L846.836 163.755L833.746 162.099Z" fill="#A30046"/>
<path d="M846.834 163.756L833.745 162.102L838.514 156.769L843.542 157.405L846.834 163.756Z" fill="#860038"/>
<path opacity="0.3" d="M848.48 182.729L850.076 170.099L846.097 169.596L846.834 163.756L843.541 157.406L838.513 156.771L837.756 157.618C845.61 157.726 841.85 163.127 841.85 163.127C843.061 163.817 843.964 164.373 843.574 166.595C843.186 168.818 839.941 168.819 839.941 168.819C846.621 171.697 846.889 176.318 838.818 178.543C830.747 180.767 827.88 176.511 827.88 176.511L827.428 180.068L848.48 182.729Z" fill="#BCBEC0"/>
<path opacity="0.3" d="M842.541 342.87C847.57 336.922 850.411 332.676 851.517 323.931C852.621 315.188 858.232 270.823 855.995 249.48C853.759 228.144 852.72 218.142 856.531 214.016C860.342 209.893 864.804 205.849 862.745 201.312C860.686 196.775 847.992 182.665 847.992 182.665L837.953 181.398L827.915 180.127C827.915 180.127 826.433 181.113 824.299 182.583C829.941 180.773 846.821 185.126 851.688 229.928C857.324 281.805 835.2 331.885 815.41 331.951C795.633 332.018 789.141 318.109 789.131 318.088C788.521 325.592 790.195 330.195 793.315 336.644C796.708 343.653 817.256 345.068 817.256 345.068C817.256 345.068 837.51 348.812 842.541 342.87Z" fill="#FFD200"/>
<path d="M251.603 141.46C251.025 144.089 252.702 146.714 255.332 147.293L279.86 152.69C282.49 153.268 285.116 151.59 285.694 148.96L290.282 128.115C290.86 125.486 289.182 122.858 286.552 122.279L262.022 116.882C259.392 116.304 256.768 117.986 256.191 120.614L251.603 141.46Z" fill="#FFD200"/>
<path d="M244.546 137.766L292.683 148.358L290.438 158.557L242.302 147.965L244.546 137.766Z" fill="#F6A01A"/>
<path d="M200.29 191.545C215.504 169.495 228.435 159.403 234.688 156.298C240.941 153.194 243.276 153.589 243.632 151.968C243.986 150.353 244.409 148.445 244.409 148.445L285.207 157.421L281.768 173.044C281.768 173.044 286.105 187.366 287.246 208.004C288.387 228.643 285.51 275.136 274.071 290.668C262.634 306.199 259.516 305.181 252.183 303.568C244.849 301.953 180.136 287.716 180.136 287.716C180.136 287.716 175.448 281.671 176.055 266.764C176.662 251.853 185.077 213.6 200.29 191.545ZM201.473 247.379C207.333 243.317 216.208 228.44 222.625 218.543C229.04 208.639 229.756 201.827 225.565 197.983C221.372 194.141 215.988 195.485 215.988 195.485C205.356 200.251 195.481 230.651 193.041 237.117C189.591 246.264 198.532 249.419 201.473 247.379Z" fill="#0076C0"/>
<path opacity="0.2" d="M259.054 177.375C259.054 177.375 276.37 179.374 276.801 187.862C277.008 191.891 278.731 244.384 274.39 260.822C270.046 277.256 258.867 288.563 253.874 288.19C248.887 287.817 227.61 282.413 221.738 281.121C215.861 279.827 210.06 274.927 211.393 270.51C212.727 266.095 240.34 219.634 244.121 210.683C247.899 201.729 253.253 175.629 259.054 177.375Z" fill="white"/>
<path opacity="0.2" d="M218.119 195.262C216.841 195.277 215.987 195.486 215.987 195.486C205.355 200.253 195.48 230.652 193.04 237.119C189.59 246.266 198.531 249.422 201.472 247.38C202.272 246.825 203.128 246.057 204.024 245.142C203.662 266.055 210.326 283.455 221.898 287.986C252.648 300.022 275.173 289.014 275.188 289.007C274.821 289.593 274.453 290.15 274.07 290.67C262.633 306.2 259.515 305.182 252.182 303.569C244.848 301.955 180.135 287.717 180.135 287.717C180.135 287.717 175.447 281.672 176.054 266.766C176.66 251.855 185.076 213.602 200.288 191.546C215.502 169.496 228.433 159.405 234.686 156.3C240.939 153.195 243.274 153.59 243.63 151.97C243.984 150.354 244.406 148.447 244.406 148.447L273.463 154.84C244.409 148.447 221.915 176.044 218.119 195.262Z" fill="#0076C0"/>
<path opacity="0.4" d="M252.049 139.434L256.191 120.615C256.77 117.986 259.392 116.304 262.022 116.883L277.598 120.31C277.598 120.31 260.983 119.612 259.733 130.27C258.481 140.928 268.235 142.994 268.235 142.994C252.23 144.494 262.861 152.506 262.861 152.506L242.297 147.982L244.54 137.782L252.049 139.434Z" fill="#BCBEC0"/>
<path d="M959.927 171.656L965.39 327.022C965.883 341.112 977.825 352.637 991.924 352.637H1109.62C1123.72 352.637 1135.66 341.112 1136.16 327.022L1141.62 171.656H959.927Z" fill="#EF3E42"/>
<path d="M1097.61 307.924C1078.66 345.108 1037.67 344.9 1006.05 344.047C974.44 343.192 965.614 329.629 965.614 329.629C967.389 342.511 978.705 352.637 991.924 352.637H1109.62C1123.72 352.637 1135.66 341.113 1136.16 327.023L1141.62 171.656H1059.88C1152.16 195.788 1113.33 277.081 1097.61 307.924Z" fill="#EF3E42"/>
<path d="M1150.31 158.261H951.231V173.209H1150.31V158.261Z" fill="#C60C46"/>
<path d="M1050.77 296.248C993.553 296.248 947 247.571 947 187.736C947 186.316 948.147 185.173 949.563 185.173H955.739C957.153 185.173 958.302 186.316 958.302 187.736C958.302 189.151 957.153 190.299 955.739 190.299H952.157C953.458 246.131 997.197 291.126 1050.77 291.126C1104.35 291.126 1148.08 246.131 1149.39 190.299H1145.88C1144.46 190.299 1143.31 189.151 1143.31 187.736C1143.31 186.316 1144.46 185.173 1145.88 185.173H1151.98C1153.4 185.173 1154.54 186.316 1154.54 187.736C1154.54 247.57 1107.99 296.248 1050.77 296.248Z" fill="#A7A9AC"/>
<path d="M1148.38 193.7H1141.14L1141.53 182.661H1148.38V193.7Z" fill="#8C2004"/>
<path d="M961.002 193.7H953.17V182.661H960.611L961.002 193.7Z" fill="#8C2004"/>
<path d="M499.058 206.434C495.608 193.415 492.755 172.268 483.036 167.295C473.318 162.321 462.244 156.672 461.79 154.865C461.338 153.054 461.79 152.153 461.79 152.153H433.767C433.767 152.153 433.089 154.64 429.922 157.352C426.76 160.062 415.005 165.033 415.005 172.946C415.005 180.856 415.005 303.796 415.005 303.796C415.005 303.796 414.319 314.65 428.781 314.65C441.438 314.65 484.842 314.65 490.944 314.65C497.046 314.65 502.243 310.355 502.243 302.897C502.245 295.438 506.622 234.981 499.058 206.434ZM483.939 245.04C479.193 245.04 475.125 241.651 474.448 238.033C473.768 234.416 464.958 198.935 466.313 190.12C467.668 181.306 475.334 181.05 475.334 181.05C478.241 180.451 482.838 182.814 483.94 187.861C484.424 190.08 489.365 212.041 490.948 227.412C492.529 242.78 488.686 245.04 483.939 245.04Z" fill="#00B259"/>
<path opacity="0.2" d="M428.784 314.649C441.441 314.649 484.844 314.649 490.947 314.649C497.049 314.649 502.245 310.355 502.245 302.897C502.245 295.438 506.622 234.982 499.056 206.434C495.607 193.414 492.754 172.267 483.035 167.294C473.316 162.321 462.242 156.672 461.788 154.864C461.337 153.053 461.788 152.152 461.788 152.152H440.005C455.34 157.361 466.17 168.081 473.358 181.428C474.506 181.083 475.332 181.05 475.332 181.05C478.239 180.451 482.835 182.814 483.938 187.86C484.422 190.08 489.362 212.041 490.945 227.412C492.471 242.235 488.946 244.852 484.436 245.022C482.142 270.484 472.844 291.992 460.612 295.713C430.992 304.731 415.005 288.414 415.005 288.414C415.005 297.814 415.005 303.794 415.005 303.794C415.005 303.794 414.321 314.649 428.784 314.649Z" fill="#00B259"/>
<path opacity="0.2" d="M426.659 184.746H446.413C446.413 184.746 451.612 186.479 451.958 191.332C452.306 196.183 466.862 267.934 467.207 270.361C467.553 272.787 468.244 279.025 463.741 281.106H427.349C427.349 281.106 423.017 281.45 423.017 276.772C423.017 272.093 423.017 190.289 423.017 190.289C423.017 190.289 422.152 184.746 426.659 184.746Z" fill="white"/>
<path d="M458.524 143.273C458.524 146.131 457.12 148.468 455.399 148.468H439.36C437.643 148.468 436.237 146.131 436.237 143.273V127.965C436.237 125.107 437.643 122.769 439.36 122.769H455.399C457.12 122.769 458.524 125.107 458.524 127.965V143.273Z" fill="#FFD200"/>
<path d="M463.43 141.072H431.96V152.152H463.43V141.072Z" fill="#F6A01A"/>
<path opacity="0.4" d="M458.524 141.072V127.966C458.524 125.108 457.119 122.77 455.399 122.77H445.216C445.216 122.77 455.188 123.525 454.99 129.831C454.633 141.171 447.943 141.073 447.943 141.073C457.716 146.276 449.986 152.153 449.986 152.153H463.43V141.073H458.524V141.072Z" fill="#BCBEC0"/>
<path d="M0.541542 15.9336L146.136 2.83964L127.741 54.1421L25.3352 63.3519L0.541542 15.9336Z" fill="#FFD824"/>
<g opacity="0.4">
<path d="M79.1373 59.4807L73.2661 8.42637L74.0887 59.9322L79.1373 59.4807Z" fill="#FFD824"/>
<path d="M71.0245 60.0454L60.3871 9.49756L66.1054 60.497L71.0245 60.0454Z" fill="#FFD824"/>
<path d="M62.9068 60.5578L47.7971 10.5669L58.1315 61.0082L62.9068 60.5578Z" fill="#FFD824"/>
<path d="M54.7915 61.0719L35.2082 11.6343L50.0883 61.5214L54.7915 61.0719Z" fill="#FFD824"/>
<path d="M46.6738 61.5875L22.617 12.6997L42.0169 62.0361L46.6738 61.5875Z" fill="#FFD824"/>
<path d="M38.5584 62.1049L10.0292 13.7632L33.9294 62.5528L38.5584 62.1049Z" fill="#FFD824"/>
<path d="M119.014 56.3856L136.787 3.56391L114.384 56.8336L119.014 56.3856Z" fill="#FFD824"/>
<path d="M110.946 57.0051L124.178 4.52556L106.29 57.4535L110.946 57.0051Z" fill="#FFD824"/>
<path d="M102.908 57.6234L111.557 5.48688L98.2021 58.0732L102.908 57.6234Z" fill="#FFD824"/>
<path d="M94.9105 58.2424L98.9223 6.44793L90.1365 58.6927L94.9105 58.2424Z" fill="#FFD824"/>
<path d="M87.0316 58.8611L86.2363 7.40959L82.1123 59.3127L87.0316 58.8611Z" fill="#FFD824"/>
</g>
<path d="M86.7812 95.2479L73.7829 96.2935L97.4378 422.575L110.436 421.529L86.7812 95.2479Z" fill="#FDBB30"/>
<path opacity="0.4" d="M79.6649 95.7474L73.7829 96.2095L98.0099 422.575L103.892 422.113L79.6649 95.7474Z" fill="#FDBB30"/>
<path d="M24.0645 68.4633C22.8576 66.7243 23.7445 65.1363 26.0358 64.9335L128.008 55.9096C130.3 55.7067 131.385 57.1213 130.419 59.0515L126.859 66.1698C125.893 68.0977 123.228 69.8442 120.934 70.0472L34.8833 77.6622C32.5908 77.8651 29.7278 76.6111 28.5209 74.8721L24.0645 68.4633Z" fill="#00853F"/>
<path d="M24.0645 68.4633C22.8576 66.7243 23.7445 65.1363 26.0358 64.9335L128.008 55.9096C130.3 55.7067 131.385 57.1213 130.419 59.0515L126.859 66.1698C125.893 68.0977 123.228 69.8442 120.934 70.0472L34.8833 77.6622C32.5908 77.8651 29.7278 76.6111 28.5209 74.8721L24.0645 68.4633Z" fill="#00853F"/>
<path d="M57.7912 76.6787L98.5953 72.9683L91.3121 96.9733L68.0524 99.0884L57.7912 76.6787Z" fill="#00B259"/>
<path opacity="0.4" d="M79.6703 59.5912L26.055 64.477C23.7457 64.6874 22.8559 66.3888 24.077 68.2588L28.5815 75.1508C29.8002 77.021 32.6876 78.3757 34.998 78.1652L57.9068 76.0776L68.182 98.566L79.1386 97.5675C79.1386 97.5675 70.0935 95.5418 68.6414 86.4141C67.1871 77.2901 74.2597 74.5874 74.2597 74.5874C74.2597 74.5874 58.8349 73.5608 54.4072 72.2813C49.9781 71.0007 46.9906 69.59 49.4046 66.5662C51.8173 63.5413 79.6703 59.5912 79.6703 59.5912Z" fill="#BCBEC0"/>
</svg>
