<svg width="160" height="230" viewBox="0 0 160 230" fill="none" xmlns="http://www.w3.org/2000/svg">
<path d="M157.826 2.38672H2.6886V163.863H157.826V2.38672Z" fill="#8BBDDB"/>
<path d="M103.566 23.4513C103.566 23.4513 94.588 35.5709 106.355 46.0129C118.122 56.4548 133.785 46.5095 133.785 46.5095C133.785 46.5095 135.462 61.1054 141.615 66.2386C147.768 71.3718 140.124 60.5561 140.683 51.7919C141.243 43.0277 148.295 30.6378 136.564 30.9589C124.833 31.2836 103.566 23.4513 103.566 23.4513Z" fill="#11393D"/>
<path d="M54.8507 307.933C56.7285 305.574 59.8119 306.118 59.8119 306.118C60.1699 306.431 60.4209 307.126 60.6087 307.933H63.7044C64.0712 306.241 64.3081 304.509 64.0764 303.537C63.6605 301.864 62.411 297.995 61.8705 296.145C61.7196 295.629 61.5967 295.183 61.5704 294.646C63.0814 288.321 68.2707 266.734 77.2912 249.335C84.4566 235.515 86.7643 230.022 88.1841 217.634C89.6038 205.244 100.899 174.273 100.899 174.273C100.899 174.273 85.0357 131.196 78.5038 157.985C71.9702 184.774 71.0962 217.636 70.0029 224.194C68.9096 230.752 59.0854 276.714 53.2414 295.978C52.2446 299.262 47.8151 305.441 45.3757 307.935L54.8507 307.933Z" fill="#CD6034"/>
<path d="M83.5793 123.106C83.5793 123.106 61.4003 209.628 58.3414 276.867C58.3414 276.867 61.0897 278.743 66.3896 276.867C66.3896 276.867 102.47 214.647 104.482 177.195C106.495 139.743 99.4247 132.832 99.4247 132.832L83.5793 123.106Z" fill="#EEB465"/>
<path d="M105.367 285.772C105.367 290.98 102.773 302.94 101.638 307.931H111.906V294.151C111.906 294.151 118.362 255.527 121.267 246.417C125.631 232.735 121.304 220.426 122.825 211.931C124.836 200.699 130.012 193.925 128.262 166.618L103.889 171.72C103.889 171.72 108.171 196.863 108.747 209.616C109.338 222.664 105.367 256.985 105.367 285.772Z" fill="#DB7B4D"/>
<path d="M114.837 124.561C114.837 124.561 137.258 138.749 132.321 202.893C127.383 267.036 113.508 284.833 113.508 284.833C113.508 284.833 108.712 287.604 105.369 285.773C105.369 285.773 99.2439 224.173 99.1421 179.224C99.1421 179.224 81.0504 157.685 83.581 123.108L114.837 124.561Z" fill="#FFBF67"/>
<path d="M99.1405 56.6583C94.9006 52.3412 87.1893 54.6208 75.2891 77.6597C65.9089 95.8199 67.5954 107.31 72.4373 105.495C78.4041 103.257 93.5054 78.453 93.5054 78.453L99.1405 56.6583Z" fill="#F95F13"/>
<path d="M99.1403 56.6584C99.1403 56.6584 105.906 62.7148 115.579 64.9576C125.252 67.2004 129.281 61.3091 134.227 67.5461C141.652 76.9088 129.573 94.1651 123.216 103.108C120.847 106.443 115.847 115.69 114.837 124.561C114.837 124.561 98.054 129.436 83.581 123.106L82.4999 102.517C82.4999 102.517 73.376 74.7677 99.1403 56.6584Z" fill="#D55211"/>
<path d="M123.866 23.304C123.866 23.304 105.344 17.1021 101.613 30.143C97.8839 43.184 101.652 56.8094 111.623 56.4795C123.918 56.0741 138.255 30.6397 123.866 23.304Z" fill="#DB7B4D"/>
<path d="M111.564 38.2086C111.509 39.0457 111.035 39.695 110.505 39.6599C109.975 39.6248 109.589 38.9193 109.644 38.0822C109.698 37.2451 110.172 36.5958 110.702 36.6309C111.232 36.666 111.618 37.3715 111.564 38.2086Z" fill="#1A4850"/>
<path d="M114.538 41.6218C114.621 42.4028 113.896 43.1206 112.918 43.2223C111.941 43.3259 111.083 42.7748 111 41.9939C110.918 41.2129 111.642 40.4952 112.62 40.3934C113.596 40.2916 114.456 40.8409 114.538 41.6218Z" fill="#ED7D66"/>
<path d="M112.067 37.9909C112.067 37.9909 111.625 36.0657 110.942 36.0201C110.26 35.9744 109.119 37.2573 109.119 37.2573L107.866 36.3447L109.073 36.8185C109.073 36.8185 110.116 35.3532 111.063 35.6515C112.011 35.9499 112.067 37.9909 112.067 37.9909Z" fill="#1A4850"/>
<path d="M103.819 37.0081C103.765 37.8452 103.291 38.4946 102.761 38.4612C102.231 38.4261 101.845 37.7206 101.899 36.8835C101.954 36.0464 102.428 35.3971 102.958 35.4304C103.487 35.4655 103.874 36.171 103.819 37.0081Z" fill="#1A4850"/>
<path d="M104.323 36.7924C104.323 36.7924 103.88 34.8672 103.198 34.8216C102.515 34.776 101.374 36.0588 101.374 36.0588L100.121 35.1462L101.329 35.6201C101.329 35.6201 102.371 34.1547 103.319 34.453C104.267 34.7514 104.323 36.7924 104.323 36.7924Z" fill="#1A4850"/>
<path d="M113.099 33.6246C112.98 33.6176 112.866 33.5562 112.797 33.4474C112.027 32.2417 110.534 32.3839 110.518 32.3857C110.305 32.4085 110.118 32.254 110.095 32.0434C110.072 31.8328 110.225 31.6433 110.437 31.6205C110.516 31.6117 112.42 31.431 113.445 33.0332C113.559 33.2122 113.506 33.4491 113.327 33.565C113.257 33.6106 113.178 33.6299 113.099 33.6246Z" fill="#11393D"/>
<path d="M104.561 31.647C104.482 31.6417 104.405 31.6136 104.34 31.5592C103.247 30.6519 101.903 31.2188 101.845 31.2433C101.65 31.3276 101.423 31.2381 101.339 31.0433C101.255 30.8485 101.343 30.6238 101.536 30.5378C101.611 30.5045 103.368 29.7516 104.832 30.9661C104.995 31.1012 105.018 31.3434 104.883 31.5083C104.8 31.6066 104.681 31.6522 104.561 31.647Z" fill="#11393D"/>
<path d="M104.279 39.3984C104.279 39.3984 100.971 39.4283 101.294 40.59C101.617 41.7518 103.526 43.2663 103.526 43.2663C103.526 43.2663 105.02 40.8463 104.279 39.3984Z" fill="#DD774E"/>
<path d="M116.49 30.006C116.49 30.006 120.728 35.4077 120.512 42.4205C120.512 42.4205 123.62 38.6122 125.245 41.9221C126.87 45.2319 120.361 50.0668 120.361 50.0668C120.361 50.0668 118.615 56.1283 121.456 55.6054C131.547 53.7521 133.771 42.5784 132.077 37.0995C130.38 31.6205 125.178 26.1714 116.49 30.006Z" fill="#11393D"/>
<path d="M120.129 47.1395C118.708 50.9671 113.261 57.5972 107.49 55.7036C107.49 55.7036 108.285 59.4996 105.886 61.5792C105.886 61.5792 104.268 63.2008 106.725 64.8715C114.435 70.1152 119.78 66.4 120.561 65.0593C120.561 65.0593 120.372 60.6473 120.266 57.3656C120.059 50.9583 122.521 48.1767 122.521 48.1767C120.963 49.2051 120.129 47.1395 120.129 47.1395Z" fill="#CD6034"/>
<path d="M104.323 46.5111C104.323 46.5111 108.887 47.622 107.866 48.3433C106.232 49.4945 104.384 48.1274 104.323 46.5111Z" fill="#1A4850"/>
<path d="M107.241 18.4181C105.219 19.0955 101.239 22.1473 102.222 25.3168C103.205 28.4862 110.095 28.7213 110.095 28.7213C110.095 28.7213 105.853 27.8421 106.114 26.2065C106.114 26.2065 113.647 30.8273 119.427 30.9624C125.208 31.0975 131.735 46.0146 131.735 46.0146C131.735 46.0146 139.846 33.6264 132.077 24.1988C125.863 16.6579 113.285 16.3929 107.241 18.4181Z" fill="#11393D"/>
<path d="M57.8939 52.7274C57.8939 52.7274 61.0633 73.6112 67.2179 79.206C73.3707 84.8008 75.0502 98.2472 74.4904 100.939C73.9306 103.633 71.693 106.638 67.0319 100.939C62.3708 95.2409 54.7262 64.103 54.7262 64.103L57.8939 52.7274Z" fill="#CD6034"/>
<path d="M67.6321 45.5232C67.5478 44.0737 67.7584 42.6083 68.2604 41.2605C63.1149 36.5941 62.7182 31.1134 58.2659 34.4109C53.7908 37.726 36.5854 34.0968 38.5 41.5606C41.8572 54.6349 38.5 81.4417 38.5 81.4417C38.5 81.4417 39.6197 76.9666 45.2127 77.9072C50.8074 78.8479 51.1795 74.3552 54.5771 73.9832C57.9746 73.6111 66.2264 77.9072 66.2264 77.9072C66.2264 77.9072 68.3341 68.0164 66.2264 61.6757C64.682 57.0287 66.5317 49.3174 67.6321 45.5232Z" fill="white"/>
<path d="M132.319 66.2403C136.81 65.619 139.564 70.0994 143.54 83.9126C147.519 97.7257 149.507 104.314 148.265 108.664C147.022 113.015 144.163 115.645 139.19 111.781C134.218 107.918 130.736 88.1525 127.132 86.1641C127.132 86.1641 123.585 67.4477 132.319 66.2403Z" fill="#F95F13"/>
<path d="M109.552 69.0992C109.552 69.0992 106.988 69.7187 107.101 70.6629C107.213 71.6071 109.31 71.6527 109.31 71.6527C109.31 71.6527 110.542 69.9697 109.552 69.0992Z" fill="#CD6034"/>
<path d="M100.899 73.4252C102.645 72.8197 105.695 71.8598 105.955 72.4459C106.214 73.0321 106.514 74.7309 105.721 74.7765C104.928 74.8221 100.899 75.2889 100.899 75.2889V73.4252Z" fill="#CD6034"/>
<path d="M108.561 66.2404C108.561 66.2404 109.803 70.7137 111.016 71.3665L109.789 71.9562C109.789 71.9562 107.382 70.1539 106.355 67.8233L108.561 66.2404Z" fill="#0C476B"/>
<path d="M99.858 66.2404H108.559V68.2287L106.321 71.958H104.209C104.209 71.958 104.209 68.3533 99.858 68.3533V66.2404Z" fill="#105E99"/>
<path d="M104.21 71.9579L99.8213 87.1452C99.3123 88.9071 100.634 90.6674 102.469 90.6674H107.789C109.603 90.6674 110.923 88.944 110.449 87.1908L106.325 71.9596L104.21 71.9579Z" fill="#CFD8DC"/>
<path d="M100.899 73.4251C100.899 73.4251 107.023 73.6691 108.561 71.958C110.098 70.2469 109.552 69.0992 109.552 69.0992C109.552 69.0992 112.825 68.5762 112.769 69.8819C112.715 71.1876 115.047 77.5264 115.047 77.5264C115.047 77.5264 115.363 81.0697 111.8 82.5614C110.202 83.2317 108.099 82.7948 104.605 83.6459C101.474 84.4093 98.6893 83.3739 99.7106 82.6544C100.218 82.2981 100.825 82.6351 101.339 82.5614C102.847 82.3473 103.138 81.4417 103.138 81.4417C103.138 81.4417 100.156 80.6958 101.306 79.2041C101.306 79.2041 99.8985 77.3386 100.897 76.0347C100.897 76.0347 97.5872 74.8905 100.899 73.4251Z" fill="#DB7B4D"/>
<path d="M113.777 73.8534C126.421 89.2741 139.316 95.4883 144.288 100.834C149.26 106.179 148.017 113.668 141.18 113.659C137.277 113.654 111.801 82.5614 111.801 82.5614L113.777 73.8534Z" fill="#DB7B4D"/>
<g opacity="0.25">
<path d="M34.167 163.864L129.922 2.38672H125.445L29.6884 163.864H34.167Z" fill="white"/>
<path d="M2.6886 71.9562L43.9421 2.38672H39.4652L2.6886 64.4047V71.9562Z" fill="white"/>
<path d="M59.4627 163.864L155.218 2.38672H140.292L44.5369 163.864H59.4627Z" fill="white"/>
<path d="M2.6886 162.139L97.4204 2.38672H82.4946L2.6886 136.968V162.139Z" fill="white"/>
<path d="M97.2749 163.864L157.826 61.7565V6.38098L64.4364 163.864H97.2749Z" fill="white"/>
<path d="M145.857 163.864L157.825 143.683V88.3053L113.018 163.864H145.857Z" fill="white"/>
<path d="M2.6886 2.38672V57.6236L35.4429 2.38672H2.6886Z" fill="white"/>
</g>
<path d="M78.597 0H73.8972H0V165.851H73.8972H78.597H160V0H78.597ZM155.186 4.81206V80.5748H78.597V4.81206H155.186ZM73.8972 4.81206V80.5748H4.81383V4.81206H73.8972ZM4.81555 161.03V85.2745H73.899V161.03H4.81555ZM78.597 161.03V85.2745H155.186V161.03H78.597Z" fill="#6097B2"/>
</svg>
