<svg width="1645" height="565" viewBox="0 0 1645 565" fill="none" xmlns="http://www.w3.org/2000/svg">
<path d="M340.933 269.357C340.933 282.368 331.775 290.934 313.108 286.588C295.268 291.09 285.05 281.136 285.05 268.125C285.05 255.114 295.269 240.019 312.774 247.936C331.775 242.19 340.933 256.346 340.933 269.357Z" fill="#A15419"/>
<path d="M310.708 248.184C310.535 247.074 315.341 237.718 316.822 237.521C318.303 237.325 317.331 237.507 316.822 239.498C316.313 241.488 315.408 248.184 315.408 248.184C315.408 248.184 311.075 250.536 310.708 248.184Z" fill="#78330B"/>
<path d="M331.359 263.804L330.979 263.8C331.024 254.178 321.104 250.732 321.005 250.699L321.126 250.338C321.227 250.372 331.406 253.907 331.359 263.804Z" fill="#411A03"/>
<path d="M317.745 285.429L317.471 285.164C317.544 285.09 324.709 277.584 323.261 270.205L323.635 270.132C325.122 277.705 317.82 285.353 317.745 285.429Z" fill="#411A03"/>
<path d="M296.775 258.636C296.559 252.211 306.296 249.173 306.712 249.047L306.821 249.411C306.723 249.441 296.949 252.49 297.155 258.624L296.775 258.636Z" fill="#411A03"/>
<path d="M304.98 286.326C304.644 286.107 296.775 280.915 296.772 275.583H297.152C297.155 280.712 305.106 285.956 305.186 286.007L304.98 286.326Z" fill="#411A03"/>
<path d="M326.226 285.453L326.007 285.143C326.067 285.101 332.004 280.91 332.653 277.696L333.027 277.772C332.348 281.134 326.475 285.28 326.226 285.453Z" fill="#411A03"/>
<path d="M310.555 284.618C310.219 284.197 306.393 277.862 306.578 276.565L306.955 276.62C306.805 277.662 310.356 283.76 310.853 284.38L310.555 284.618Z" fill="#411A03"/>
<path d="M306.449 255.26L306.075 255.196C306.425 253.146 309.426 251.908 309.554 251.855L309.697 252.208C309.668 252.221 306.763 253.418 306.449 255.26Z" fill="#411A03"/>
<path d="M297.069 250.674L296.853 250.361C297.055 250.223 301.831 246.963 305.072 246.963C305.075 246.963 305.078 246.963 305.082 246.963V247.343C305.078 247.343 305.075 247.343 305.072 247.343C301.951 247.343 297.119 250.64 297.069 250.674Z" fill="#411A03"/>
<path d="M318.532 255.298C317.971 253.853 314.843 251.535 314.811 251.512L315.037 251.205C315.17 251.303 318.286 253.613 318.888 255.161L318.532 255.298Z" fill="#411A03"/>
<path d="M328.571 250.218C326.796 248.041 321.081 248.751 320.745 248.988L320.514 248.685C321.012 248.304 326.966 247.645 328.867 249.978L328.571 250.218Z" fill="#411A03"/>
<path d="M488.911 260.016C488.911 268.382 486.049 275.281 481.195 280.272C474.087 287.589 462.711 290.828 449.722 288.659C436.261 290.892 424.655 287.328 417.652 279.549C413.154 274.558 410.544 267.838 410.544 259.797C410.544 239.206 430.14 221.603 451.39 231.825C472.922 224.716 488.911 239.424 488.911 260.016Z" fill="#E3A33B"/>
<path d="M446.728 231.376C446.728 231.376 453.204 212.616 454.073 212.395C454.942 212.172 454.942 212.172 454.942 212.172C454.942 212.172 456.83 211.839 456.94 213.282C457.051 214.726 454.315 220.943 454.073 224.272C453.832 227.602 454.942 230.266 455.719 231.487C455.165 233.929 449.194 233.365 446.728 231.376Z" fill="#411A03"/>
<path d="M482.409 240.064C481.937 241.343 481.243 239.636 479.513 238.702C475.78 236.71 470.406 233.448 465.751 234.413C462.973 234.989 464.86 238.479 465.379 241.81C462.943 237.411 459.189 235.241 454.523 237.202C452.374 238.104 449.903 238.708 444.638 245.289C447.497 238.449 446.86 236.673 446.388 236.227C445.703 235.579 442.325 235.335 439.883 235.889C436.574 236.641 433.815 237.962 430.558 240.366C432.852 237.406 437.223 234.385 439.279 232.116C439.766 231.577 439.371 230.715 438.647 230.767C434.945 231.043 429.593 232.572 426.858 233.779C424.269 234.933 421.012 236.961 417.041 240.243C424.569 230.431 437.527 225.258 451.177 231.822C464.575 227.399 475.836 231.425 482.409 240.064Z" fill="#C4792F"/>
<path d="M481.195 280.27C474.087 287.588 462.711 290.827 449.722 288.657C436.261 290.89 424.655 287.326 417.652 279.547C422.191 282.095 426.549 284.102 429.338 284.585C435.261 285.622 424.15 274.517 425.785 275.408C427.41 276.29 435.926 289.22 442.363 285.25C443.915 284.292 441.526 279.792 441.475 279.477C441.621 279.876 445.555 285.485 450.429 285.842C455.462 286.198 457.277 285.544 458.865 284.138C461.16 282.104 463.602 277.183 463.602 277.183C463.602 277.183 461.785 284.887 465.046 284.436C468.139 284.017 473.458 275.435 473.815 274.89C473.595 275.403 471.339 284.521 473.038 284.658C474.808 284.806 477.189 280.994 481.195 280.27Z" fill="#C4792F"/>
<path d="M485.334 288.438H241.229V398.766H485.334V288.438Z" fill="#411A03"/>
<path d="M250.618 468.858H241.229V398.766H255.311L250.618 468.858Z" fill="#411A03"/>
<path d="M475.945 468.858H485.332V398.766H471.25L475.945 468.858Z" fill="#411A03"/>
<path d="M352.555 168.826C352.49 173.026 355.908 177.697 355.529 181.86C354.162 181.415 352.334 181.421 350.984 180.941C348.884 183.969 353.95 187.275 355.772 190.266C356.556 191.551 358.085 193.438 357.731 194.746C357.303 196.325 355.532 195.463 354.814 196.785C351.558 202.777 362.672 213.265 366.614 219.234C368.76 222.484 370.445 225.708 371.25 229.058C372.011 229.402 373.366 229.704 374.199 229.735C376.046 225.104 373.606 218.278 372.555 213.25C371.935 210.288 372.563 201.282 368.026 199.865C366.837 200.876 366.469 200.284 365.119 200.586C364.642 196.087 367.934 189.771 364.656 185.445C363.907 185.772 362.576 185.706 361.903 185.938C359.759 182.576 362.057 178.816 360.175 175.066C359.327 173.376 351.278 162.204 352.555 168.826Z" fill="#A15419"/>
<path d="M377.644 223.26C376.252 217.162 377.642 210.18 377.442 204.046C377.267 198.703 376.865 193.818 380.052 189.492C382.651 194.801 383.027 189.21 383.383 186.029C383.694 183.249 383.412 176.462 386.151 176.743C387.21 176.85 387.522 179.744 387.896 179.622C389.015 179.259 389.021 173.661 389.425 172.216C390.152 169.609 392.896 161.712 393.76 164.386C395.867 170.906 396.593 164.791 398.829 161.851C401.492 158.351 404.39 154.466 405.588 159.428C406.355 162.606 402.176 164.978 400.875 167.226C399.642 169.361 397.571 175.151 397.309 177.666C398.726 178.54 400.696 175.489 401.95 176.003C405.2 177.339 401.129 181.849 398.474 184.563C394.606 188.519 386.726 195.019 390.015 197.473C390.893 198.129 394.087 193.933 395.032 194.505C396.618 195.46 393.386 200.695 392.242 202.73C390.118 206.508 386.237 210.431 384.865 212.804C382.193 217.423 382.054 225.163 377.868 228.366C377.065 226.382 377.625 224.422 377.644 223.26Z" fill="#A15419"/>
<path d="M342.984 178.948C343.579 183.059 346.583 186.857 346.963 191.001C345.977 190.869 344.751 191.28 343.772 191.11C342.824 194.527 346.726 196.632 348.405 199.146C349.126 200.226 350.44 201.728 350.401 203.081C350.354 204.716 349.035 204.266 348.754 205.713C347.48 212.277 356.534 220.047 360.087 224.996C362.023 227.69 363.643 230.462 364.694 233.55C365.256 233.719 366.212 233.714 366.776 233.558C367.31 228.633 364.635 222.516 363.163 217.845C362.297 215.095 361.347 206.174 358.088 205.794C357.443 207.043 357.107 206.547 356.246 207.139C355.241 202.857 356.489 195.969 353.631 192.474C353.178 192.959 352.275 193.189 351.859 193.564C349.909 190.76 350.878 186.585 349.045 183.342C348.221 181.888 341.12 172.775 342.984 178.948Z" fill="#E3A33B"/>
<path d="M373.769 235.46C374.903 231.302 376.506 227.265 377.792 223.314C378.412 221.41 378.743 219.759 378.616 217.925C378.485 216.036 377.437 214.62 378.262 212.582C379.608 209.252 383.615 208.281 384.68 204.4C385.433 201.656 384.921 198.256 383.537 195.858C381.701 192.678 380.597 192.059 381.892 187.74C382.889 184.419 383.211 183.494 381.428 180.474C380.301 178.565 376.965 175.33 376.875 172.783C376.711 168.187 379.971 167.904 376.407 163.785C372.418 159.174 369.982 149.811 363.219 148.858C361.19 152.711 365.497 155.2 365.449 158.761C365.413 161.348 361.856 163.274 363.666 166.223C364.879 168.2 367.744 168.374 368.677 171.221C369.92 175.017 367.047 177.074 367.078 180.583C367.111 184.31 370.495 183.431 371.586 186.339C372.697 189.296 369.593 191.946 368.873 194.503C367.716 198.619 371.066 198.157 371.965 201.455C372.844 204.686 369.137 206.183 369.574 209.53C369.775 211.074 371.005 212.202 371.538 213.557C372.204 215.256 372.155 216.838 372.373 218.668C372.723 221.623 373.444 224.345 373.45 227.326C373.455 230.313 372.969 233.513 373.224 236.381C372.67 236.707 372.085 236.656 373.769 235.46Z" fill="#E3A33B"/>
<path d="M385.804 227.491C385.482 221.852 387.561 215.833 388.219 210.336C388.794 205.549 389.121 201.136 392.315 197.746C393.734 202.857 394.793 197.929 395.511 195.147C396.14 192.714 396.819 186.625 399.027 187.273C399.88 187.524 399.746 190.148 400.069 190.095C401.036 189.936 401.793 184.947 402.317 183.718C403.263 181.5 406.573 174.863 406.924 177.372C407.776 183.49 409.191 178.146 411.42 175.854C414.073 173.124 416.97 170.084 417.286 174.681C417.488 177.626 413.743 179.129 412.376 180.943C411.077 182.665 408.603 187.524 408.051 189.727C409.096 190.713 411.121 188.281 412.078 188.924C414.562 190.589 410.619 194.015 408.079 196.047C404.376 199.007 397.045 203.649 399.412 206.318C400.042 207.03 403.225 203.758 403.925 204.405C405.096 205.487 401.743 209.681 400.531 211.328C398.283 214.384 394.575 217.314 393.131 219.228C390.32 222.955 389.166 229.832 385.304 232.076C384.909 230.188 385.633 228.522 385.804 227.491Z" fill="#E3A33B"/>
<path d="M382.204 215.941H365.292H349.115L359.041 288.438H365.292H382.204H388.453L398.381 215.941H382.204Z" fill="#99928C"/>
<path d="M266.802 256.025H243.82V284.285H266.802V256.025Z" fill="#411A03"/>
<path d="M269.213 284.285H241.411V287.533H269.213V284.285Z" fill="#411A03"/>
<path d="M266.802 253.43H243.82L254.118 246.48H257.177L266.802 253.43Z" fill="#411A03"/>
<path d="M264.834 282.316V257.995H245.79V282.316H264.834Z" fill="#E3A33B"/>
<path d="M269.623 253.431H241V256.025H269.623V253.431Z" fill="#411A03"/>
<path d="M249.487 257.995H245.79V282.316H249.487V257.995Z" fill="#C4792F"/>
<path d="M256.749 257.392H254.779V282.9H256.749V257.392Z" fill="#2D2320"/>
<path d="M255.903 247.466C253.049 247.466 250.728 245.144 250.728 242.291C250.728 239.438 253.05 237.117 255.903 237.117C258.756 237.117 261.076 239.438 261.076 242.291C261.078 245.144 258.756 247.466 255.903 247.466ZM255.903 238.429C253.773 238.429 252.041 240.161 252.041 242.291C252.041 244.42 253.773 246.153 255.903 246.153C258.032 246.153 259.764 244.422 259.764 242.291C259.764 240.163 258.032 238.429 255.903 238.429Z" fill="#411A03"/>
<path d="M359.359 302.699H257.111V385.752H359.359V302.699Z" fill="#A15419"/>
<path d="M312.991 319.798C312.991 322.871 310.499 325.362 307.427 325.362C304.354 325.362 301.863 322.871 301.863 319.798C301.863 316.726 304.354 314.234 307.427 314.234C310.501 314.234 312.991 316.726 312.991 319.798Z" fill="#411A03"/>
<path d="M468.774 302.699H366.527V385.752H468.774V302.699Z" fill="#A15419"/>
<path d="M422.408 319.798C422.408 322.871 419.916 325.362 416.844 325.362C413.771 325.362 411.28 322.871 411.28 319.798C411.28 316.726 413.771 314.234 416.844 314.234C419.916 314.234 422.408 316.726 422.408 319.798Z" fill="#411A03"/>
<path d="M1645 564.858H0L77.7483 455.552H1586.98L1645 564.858Z" fill="#F95F13" fill-opacity="0.4"/>
<path d="M554.337 391.133L545.621 468.812H554.337L570.569 391.133H554.337Z" fill="#411A03"/>
<path d="M1080.89 391.133L1089.61 468.812H1080.89L1064.66 391.133H1080.89Z" fill="#411A03"/>
<path d="M1073.18 236.368H570.569V367.057H1073.18V236.368Z" fill="#5E2308"/>
<path d="M1118.78 403.455H535.328C522.445 403.455 512 393.01 512 380.127V360.756H1142.11V380.127C1142.11 393.012 1131.66 403.455 1118.78 403.455Z" fill="#78330B"/>
<path d="M579.242 369.563H512V233.994C512 222.432 521.372 213.06 532.931 213.06H558.309C569.87 213.06 579.242 222.432 579.242 233.994V369.563Z" fill="#78330B"/>
<path d="M1142.11 369.563H1062.96V233.994C1062.96 222.432 1072.34 213.06 1083.9 213.06H1121.17C1132.74 213.06 1142.11 222.432 1142.11 233.994V369.563Z" fill="#78330B"/>
<path d="M613.86 310.213C595.371 310.213 580.327 295.169 580.327 276.68V165.391C580.327 146.902 595.371 131.858 613.86 131.858H793.33C811.821 131.858 826.865 146.902 826.865 165.391V276.682C826.865 295.171 811.821 310.215 793.33 310.215H613.86V310.213Z" fill="#5E2308"/>
<path d="M793.328 297.613H613.86C602.299 297.613 592.927 288.241 592.927 276.682V165.393C592.927 153.832 602.299 144.46 613.86 144.46H793.331C804.892 144.46 814.262 153.832 814.262 165.393V276.682C814.262 288.241 804.89 297.613 793.328 297.613Z" fill="#78330B"/>
<path d="M848.88 310.213C830.389 310.213 815.345 295.169 815.345 276.68V165.391C815.345 146.902 830.389 131.858 848.88 131.858H1028.35C1046.84 131.858 1061.88 146.902 1061.88 165.391V276.682C1061.88 295.171 1046.84 310.215 1028.35 310.215H848.88V310.213Z" fill="#5E2308"/>
<path d="M1028.35 297.613H848.877C837.316 297.613 827.946 288.241 827.946 276.682V165.393C827.946 153.832 837.318 144.46 848.877 144.46H1028.35C1039.91 144.46 1049.28 153.832 1049.28 165.393V276.682C1049.28 288.241 1039.91 297.613 1028.35 297.613Z" fill="#78330B"/>
<path d="M591.317 367.057C579.875 367.057 570.569 357.751 570.569 346.309V332.509C570.569 321.067 579.875 311.761 591.317 311.761H1048.52C1059.96 311.761 1069.26 321.067 1069.26 332.509V346.309C1069.26 357.751 1059.96 367.057 1048.52 367.057H591.317Z" fill="#5E2308"/>
<path d="M1048.52 360.758H591.319C583.339 360.758 576.872 354.289 576.872 346.309V332.507C576.872 324.527 583.341 318.057 591.319 318.057H1048.52C1056.5 318.057 1062.97 324.527 1062.97 332.507V346.309C1062.96 354.289 1056.49 360.758 1048.52 360.758Z" fill="#78330B"/>
<path d="M948.583 297.846C948.476 299.182 948.392 299.922 948.392 299.922L1057.51 300.267C1057.51 300.267 1048.47 241.487 1056.95 209.794C1025.03 213.805 982.652 211.305 947.835 209.449C953.963 235.433 949.625 286.914 948.583 297.846Z" fill="#E3A33B"/>
<path d="M1057.51 300.269C1057.51 300.269 1048.47 241.489 1056.95 209.796C1056.95 209.796 1039.64 234.841 1039.59 252.211C1039.56 262.243 1055.97 297.365 1055.97 297.365C1055.97 297.365 993.352 279.671 956.941 294.049C953.936 295.231 951.157 296.518 948.583 297.846C948.476 299.182 948.392 299.922 948.392 299.922L1057.51 300.269Z" fill="#C4792F"/>
<path d="M815.345 297.613H699.023C699.023 297.613 709.306 276.172 699.023 254.731C740.067 260.438 788.245 260.438 815.345 254.731C805.656 278.571 815.345 297.613 815.345 297.613Z" fill="#A15419"/>
<path d="M938.613 305.162C887.21 297.613 835.809 305.162 835.809 305.162C835.809 305.162 844.896 270.71 835.809 236.261C872.084 245.432 914.66 245.432 938.613 236.261C930.051 274.567 935.311 287.604 938.613 305.162Z" fill="#411A03"/>
<path d="M614.396 305.376C614.293 306.712 614.211 307.452 614.211 307.452H723.328C723.328 307.452 714.098 248.7 722.485 216.981C690.58 221.092 648.192 218.728 613.368 216.981C619.575 242.944 615.404 294.439 614.396 305.376Z" fill="#E3A33B"/>
<path d="M723.328 307.452C723.328 307.452 714.098 248.7 722.485 216.981C722.485 216.981 705.258 242.081 705.258 259.451C705.258 269.483 721.786 304.553 721.786 304.553C721.786 304.553 659.108 287.059 622.743 301.552C619.741 302.744 616.966 304.04 614.396 305.376C614.294 306.712 614.211 307.452 614.211 307.452H723.328Z" fill="#C4792F"/>
<path d="M1404.62 254.815H1371.29V301.298H1404.62V254.815Z" fill="#411A03"/>
<path d="M1399.21 260.024H1376.7V296.085H1399.21V260.024Z" fill="#C4792F"/>
<path d="M1388.93 260.024H1386.98V296.085H1388.93V260.024Z" fill="#411A03"/>
<path d="M1402.21 279.03V277.08H1373.69V279.03H1402.21Z" fill="#411A03"/>
<path d="M1407.38 252.822H1368.06V256.477H1407.38V252.822Z" fill="#411A03"/>
<path d="M1407.38 299.471H1368.06V303.125H1407.38V299.471Z" fill="#411A03"/>
<path d="M1404.62 252.822H1371.29V249.671C1375.34 249.671 1378.61 246.392 1378.61 242.347H1397.29C1397.29 246.392 1400.57 249.671 1404.62 249.671V252.822Z" fill="#411A03"/>
<path d="M1389.62 244.636H1386.29V239.139C1386.29 238.22 1387.04 237.474 1387.95 237.474C1388.87 237.474 1389.62 238.22 1389.62 239.139V244.636Z" fill="#411A03"/>
<path d="M1387.95 241.217C1384.64 241.217 1381.94 238.519 1381.94 235.202C1381.94 231.886 1384.64 229.186 1387.95 229.186C1391.27 229.186 1393.97 231.884 1393.97 235.202C1393.97 238.519 1391.27 241.217 1387.95 241.217ZM1387.95 230.912C1385.59 230.912 1383.66 232.838 1383.66 235.202C1383.66 237.567 1385.59 239.492 1387.95 239.492C1390.32 239.492 1392.24 237.569 1392.24 235.202C1392.24 232.838 1390.32 230.912 1387.95 230.912Z" fill="#411A03"/>
<path d="M1363.21 251.214C1357.52 233.061 1373.45 204.556 1387.37 192.109L1387.7 192.553C1373.9 204.887 1358.1 233.088 1363.71 251L1363.21 251.214Z" fill="#A15419"/>
<path d="M1381.09 198.889C1381.09 198.889 1384.2 189.736 1378.3 187.259C1372.99 193.393 1381.09 198.889 1381.09 198.889Z" fill="#A15419"/>
<path d="M1375.29 207.191C1375.29 207.191 1376.5 197.609 1370.18 196.672C1366.19 203.883 1375.29 207.191 1375.29 207.191Z" fill="#A15419"/>
<path d="M1365.52 226.498C1365.52 226.498 1363.83 217.166 1357.46 218.567C1355.78 226.694 1365.52 226.498 1365.52 226.498Z" fill="#A15419"/>
<path d="M1369.66 216.612C1369.66 216.612 1370.17 206.994 1363.77 206.617C1360.31 214.123 1369.66 216.612 1369.66 216.612Z" fill="#A15419"/>
<path d="M1362.52 236.745C1362.52 236.745 1359.2 228.037 1353.14 230.742C1352.9 238.994 1362.52 236.745 1362.52 236.745Z" fill="#A15419"/>
<path d="M1377.89 202.121C1377.89 202.121 1385.38 196.711 1388.97 202.363C1384.7 209.384 1377.89 202.121 1377.89 202.121Z" fill="#A15419"/>
<path d="M1372.8 211.13C1372.8 211.13 1380.14 205.475 1383.9 210.993C1379.83 218.147 1372.8 211.13 1372.8 211.13Z" fill="#A15419"/>
<path d="M1364.3 229.941C1364.3 229.941 1373.01 228.314 1374.06 235.214C1367.61 239.804 1364.3 229.941 1364.3 229.941Z" fill="#A15419"/>
<path d="M1367.9 220.27C1367.9 220.27 1376.06 216.322 1378.68 222.623C1373.4 228.786 1367.9 220.27 1367.9 220.27Z" fill="#A15419"/>
<path d="M1385.14 194.158C1385.14 194.158 1393.83 192.398 1393.26 185.404C1386.04 183.474 1385.14 194.158 1385.14 194.158Z" fill="#A15419"/>
<path d="M1356.38 239.549C1349.11 221.967 1362.48 192.171 1375.26 178.55L1375.62 178.965C1362.95 192.463 1349.69 221.942 1356.86 239.293L1356.38 239.549Z" fill="#78330B"/>
<path d="M1369.59 185.856C1369.59 185.856 1371.89 176.466 1365.79 174.517C1361.04 181.091 1369.59 185.856 1369.59 185.856Z" fill="#78330B"/>
<path d="M1364.55 194.635C1364.55 194.635 1364.91 184.984 1358.53 184.605C1355.19 192.138 1364.55 194.635 1364.55 194.635Z" fill="#78330B"/>
<path d="M1356.51 214.726C1356.51 214.726 1354 205.58 1347.79 207.533C1346.83 215.776 1356.51 214.726 1356.51 214.726Z" fill="#78330B"/>
<path d="M1359.77 204.515C1359.77 204.515 1359.43 194.888 1353.02 195.075C1350.23 202.857 1359.77 204.515 1359.77 204.515Z" fill="#78330B"/>
<path d="M1354.42 225.197C1354.42 225.197 1350.35 216.813 1344.55 220.041C1345.04 228.282 1354.42 225.197 1354.42 225.197Z" fill="#78330B"/>
<path d="M1366.69 189.356C1366.69 189.356 1373.67 183.309 1377.75 188.623C1374.11 195.994 1366.69 189.356 1366.69 189.356Z" fill="#78330B"/>
<path d="M1362.41 198.778C1362.41 198.778 1369.23 192.499 1373.46 197.666C1370.03 205.15 1362.41 198.778 1362.41 198.778Z" fill="#78330B"/>
<path d="M1355.6 218.262C1355.6 218.262 1364.12 215.877 1365.78 222.656C1359.76 227.797 1355.6 218.262 1355.6 218.262Z" fill="#78330B"/>
<path d="M1358.33 208.313C1358.33 208.313 1366.12 203.662 1369.27 209.709C1364.56 216.312 1358.33 208.313 1358.33 208.313Z" fill="#78330B"/>
<path d="M1373.21 180.787C1373.21 180.787 1381.71 178.271 1380.53 171.354C1373.18 170.063 1373.21 180.787 1373.21 180.787Z" fill="#78330B"/>
<path d="M1338.98 241.357C1344.31 224.343 1329.38 197.624 1316.32 185.957L1316.02 186.374C1328.96 197.934 1343.77 224.367 1338.5 241.156L1338.98 241.357Z" fill="#78330B"/>
<path d="M1322.21 192.313C1322.21 192.313 1319.29 183.735 1324.83 181.413C1329.8 187.161 1322.21 192.313 1322.21 192.313Z" fill="#78330B"/>
<path d="M1327.65 200.096C1327.65 200.096 1326.51 191.114 1332.44 190.234C1336.18 196.993 1327.65 200.096 1327.65 200.096Z" fill="#78330B"/>
<path d="M1336.8 218.191C1336.8 218.191 1338.39 209.445 1344.36 210.758C1345.93 218.376 1336.8 218.191 1336.8 218.191Z" fill="#78330B"/>
<path d="M1332.93 208.926C1332.93 208.926 1332.45 199.91 1338.45 199.555C1341.69 206.592 1332.93 208.926 1332.93 208.926Z" fill="#78330B"/>
<path d="M1339.62 227.797C1339.62 227.797 1342.73 219.633 1348.41 222.171C1348.63 229.905 1339.62 227.797 1339.62 227.797Z" fill="#78330B"/>
<path d="M1325.21 195.342C1325.21 195.342 1318.19 190.27 1314.83 195.569C1318.83 202.15 1325.21 195.342 1325.21 195.342Z" fill="#78330B"/>
<path d="M1329.98 203.787C1329.98 203.787 1323.1 198.486 1319.58 203.657C1323.4 210.363 1329.98 203.787 1329.98 203.787Z" fill="#78330B"/>
<path d="M1337.95 221.416C1337.95 221.416 1329.79 219.891 1328.8 226.358C1334.85 230.664 1337.95 221.416 1337.95 221.416Z" fill="#78330B"/>
<path d="M1334.58 212.353C1334.58 212.353 1326.92 208.653 1324.47 214.558C1329.42 220.335 1334.58 212.353 1334.58 212.353Z" fill="#78330B"/>
<path d="M1318.42 187.88C1318.42 187.88 1310.28 186.23 1310.81 179.674C1317.57 177.863 1318.42 187.88 1318.42 187.88Z" fill="#78330B"/>
<path d="M1339.28 240.955C1350.78 225.799 1345.43 193.584 1336.54 177.16L1336.08 177.469C1344.9 193.744 1350.23 225.628 1338.88 240.585L1339.28 240.955Z" fill="#A15419"/>
<path d="M1340.16 185.665C1340.16 185.665 1340.32 175.999 1346.72 175.666C1349.64 183.232 1340.16 185.665 1340.16 185.665Z" fill="#A15419"/>
<path d="M1342.8 195.439C1342.8 195.439 1344.91 186.013 1351.18 187.27C1352.49 195.404 1342.8 195.439 1342.8 195.439Z" fill="#A15419"/>
<path d="M1345.46 216.913C1345.46 216.913 1350.22 208.705 1355.73 212.175C1354.56 220.392 1345.46 216.913 1345.46 216.913Z" fill="#A15419"/>
<path d="M1344.92 206.21C1344.92 206.21 1347.69 196.985 1353.84 198.796C1354.56 207.033 1344.92 206.21 1344.92 206.21Z" fill="#A15419"/>
<path d="M1344.82 227.571C1344.82 227.571 1350.89 220.499 1355.68 225.096C1353.11 232.942 1344.82 227.571 1344.82 227.571Z" fill="#A15419"/>
<path d="M1342.07 189.79C1342.07 189.79 1336.86 182.166 1331.56 186.269C1333.21 194.32 1342.07 189.79 1342.07 189.79Z" fill="#A15419"/>
<path d="M1343.82 199.99C1343.82 199.99 1338.82 192.184 1333.42 196.105C1334.83 204.214 1343.82 199.99 1343.82 199.99Z" fill="#A15419"/>
<path d="M1345.45 220.566C1345.45 220.566 1337.81 216.091 1334.48 222.225C1339 228.729 1345.45 220.566 1345.45 220.566Z" fill="#A15419"/>
<path d="M1345.33 210.248C1345.33 210.248 1338.99 203.77 1334.4 208.816C1337.28 216.402 1345.33 210.248 1345.33 210.248Z" fill="#A15419"/>
<path d="M1337.95 179.844C1337.95 179.844 1330.37 175.248 1333.27 168.858C1340.71 169.482 1337.95 179.844 1337.95 179.844Z" fill="#A15419"/>
<path d="M1330.86 231.017L1335.74 300.797H1371.64L1376.52 231.017H1330.86Z" fill="#E3A33B"/>
<path d="M1356 283.63C1356 297.97 1345.91 307.41 1325.34 302.619C1305.68 307.58 1294.42 296.609 1294.42 282.27C1294.42 267.931 1305.68 251.295 1324.97 260.02C1345.91 253.689 1356 269.291 1356 283.63Z" fill="#99928C"/>
<path d="M1322.69 260.295C1322.5 259.072 1327.8 248.759 1329.43 248.544C1331.06 248.328 1329.99 248.527 1329.43 250.721C1328.87 252.915 1327.87 260.293 1327.87 260.293C1327.87 260.293 1323.1 262.888 1322.69 260.295Z" fill="#78330B"/>
<path d="M1345.45 277.508L1345.04 277.507C1345.08 266.909 1334.15 263.105 1334.04 263.068L1334.17 262.671C1334.29 262.707 1345.51 266.603 1345.45 277.508Z" fill="#411A03"/>
<path d="M1330.45 301.344L1330.15 301.051C1330.23 300.968 1338.13 292.695 1336.53 284.563L1336.94 284.481C1338.58 292.831 1330.53 301.259 1330.45 301.344Z" fill="#411A03"/>
<path d="M1307.34 271.816C1307.1 264.733 1317.83 261.386 1318.29 261.247L1318.41 261.647C1318.3 261.681 1307.53 265.039 1307.76 271.801L1307.34 271.816Z" fill="#411A03"/>
<path d="M1316.38 302.332C1316.01 302.09 1307.34 296.368 1307.34 290.491H1307.75C1307.76 296.141 1316.52 301.923 1316.61 301.98L1316.38 302.332Z" fill="#411A03"/>
<path d="M1339.8 301.37L1339.56 301.027C1339.62 300.979 1346.16 296.363 1346.88 292.819L1347.29 292.903C1346.54 296.609 1340.07 301.177 1339.8 301.37Z" fill="#411A03"/>
<path d="M1322.53 300.449C1322.16 299.986 1317.94 293.009 1318.14 291.575L1318.56 291.634C1318.4 292.785 1322.31 299.503 1322.85 300.187L1322.53 300.449Z" fill="#411A03"/>
<path d="M1318 268.094L1317.59 268.022C1317.97 265.76 1321.28 264.397 1321.42 264.341L1321.58 264.73C1321.55 264.745 1318.35 266.064 1318 268.094Z" fill="#411A03"/>
<path d="M1307.66 263.04L1307.43 262.695C1307.65 262.542 1312.91 258.951 1316.49 258.951C1316.49 258.951 1316.5 258.951 1316.5 258.951V259.369C1316.49 259.369 1316.49 259.369 1316.49 259.369C1313.05 259.369 1307.72 263.004 1307.66 263.04Z" fill="#411A03"/>
<path d="M1331.32 268.135C1330.7 266.541 1327.25 263.989 1327.22 263.963L1327.46 263.625C1327.61 263.732 1331.04 266.277 1331.71 267.981L1331.32 268.135Z" fill="#411A03"/>
<path d="M1342.38 262.537C1340.43 260.136 1334.13 260.92 1333.76 261.18L1333.5 260.848C1334.05 260.424 1340.61 259.699 1342.71 262.271L1342.38 262.537Z" fill="#411A03"/>
<path d="M1288 468.858L1316.53 312.717L1330.03 313.442L1295.96 468.858H1288Z" fill="#411A03"/>
<path d="M1428.23 468.858L1399.7 312.717L1386.2 313.442L1420.27 468.858H1428.23Z" fill="#411A03"/>
<path d="M1420.43 318.546H1295.8C1291.63 318.546 1288.26 315.172 1288.26 311.009C1288.26 306.847 1291.63 303.473 1295.8 303.473H1420.43C1424.6 303.473 1427.97 306.847 1427.97 311.009C1427.97 315.172 1424.6 318.546 1420.43 318.546Z" fill="#78330B"/>
<path d="M293.114 438.711L286.209 447.449L285.415 448.466L299.143 459.445L299.351 459.276L308.539 451.375C303.281 447.296 298.132 443.083 293.114 438.711Z" fill="#ED8D5D"/>
<path d="M299.333 458.692C299.333 458.692 298.929 469.459 307.744 478.189C307.744 478.189 312.274 483.661 310.267 487.432C310.267 487.432 278.536 463.232 275.521 459.647C272.507 456.062 289.796 445.017 289.796 445.017L299.333 458.692Z" fill="#ED8D5D"/>
<path d="M271.461 460.168L309.49 488.792C310.001 489.177 310.727 489.073 311.109 488.564L311.573 487.948C311.957 487.436 311.854 486.711 311.345 486.329L273.316 457.705C272.804 457.32 272.079 457.424 271.696 457.933L271.233 458.549C270.848 459.059 270.951 459.784 271.461 460.168Z" fill="#F95F13"/>
<path d="M295.797 477.012L296.376 478.677L306.369 475.209L305.098 473.903L295.797 477.012Z" fill="#F95F13"/>
<path d="M454.816 484.155C454.816 484.155 462.393 492.665 474.753 491.608C474.753 491.608 481.856 491.703 483.428 495.677C483.428 495.677 444.433 504.161 439.75 504.133C435.067 504.104 435.82 484.466 435.82 484.466L454.816 484.155Z" fill="#ED8D5D"/>
<path d="M438.236 507.223L484.92 497.934C485.547 497.809 485.953 497.201 485.83 496.575L485.679 495.818C485.555 495.191 484.946 494.783 484.32 494.908L437.638 504.197C437.011 504.322 436.603 504.93 436.728 505.556L436.879 506.313C437.002 506.942 437.61 507.348 438.236 507.223Z" fill="#F95F13"/>
<path d="M467.012 500.299L468.64 500.976L472.71 491.214L470.889 491.289L467.012 500.299Z" fill="#F95F13"/>
<path d="M433.486 474.19L436.464 489.577L454.991 485.992L454.925 474.19H433.486Z" fill="#ED8D5D"/>
<path d="M424.207 127.402C418.783 120.46 416.099 109.669 416.099 109.669L395.494 94.5748C395.494 94.5748 395.222 117.419 389.546 127.21C384.83 129.818 363.539 142.05 359.732 152.345L459.305 152.1C459.305 152.1 450.619 134.2 424.207 127.402Z" fill="#ED8D5D"/>
<path d="M418.83 117.83C418.309 117.887 417.778 117.911 417.245 117.887C408.685 117.39 400.391 109.756 395.591 94.6502L395.73 94.7433C400.645 107.536 408.291 114.025 416.157 114.488C416.608 114.512 417.046 114.5 417.498 114.453C417.859 115.493 418.297 116.651 418.83 117.83Z" fill="#E6794E"/>
<path d="M388.563 126.659C388.563 126.659 401.955 155.154 411.141 150.015C420.326 144.876 424.219 126.504 424.219 126.504C424.219 126.504 453.647 134.289 459.876 151.729C459.876 151.729 445.395 178.821 445.551 195.639C445.708 212.455 449.6 259.789 452.714 268.82C452.714 268.82 381.401 275.204 348.392 268.82C348.392 268.82 365.83 191.746 364.118 173.373C362.405 154.999 363.806 143.944 365.83 141.142C367.855 138.336 388.563 126.659 388.563 126.659Z" fill="#FFBF67"/>
<path d="M455.984 483.843L435.119 486.023L401.798 307.898C401.798 307.898 379.064 386.373 375.329 392.288C371.591 398.206 302.77 458.619 302.77 458.619L286.887 444.916L337.957 379.833L351.348 246.55C351.348 246.55 383.111 256.515 386.538 234.094C388.444 221.589 385.329 191.382 382.178 167.092C380.123 151.073 378.042 137.632 377.408 133.548C377.271 132.713 377.196 132.265 377.196 132.265L385.916 127.905C385.916 127.905 394.947 165.586 397.127 173.993H423.285C423.285 173.993 430.136 139.739 426.399 126.97C426.399 126.97 430.448 127.903 434.183 129.461C434.183 129.461 435.404 135.987 437.073 145.381C440.012 161.91 444.311 187.297 445.706 201.398C445.88 203.13 446.092 205.136 446.328 207.403C449.156 234.084 456.318 294.772 456.604 316.309C456.917 339.661 455.984 483.843 455.984 483.843Z" fill="#F95F13"/>
<path d="M395.559 178.863L389.125 182.01L515.107 439.624L521.541 436.477L395.559 178.863Z" fill="#D16C38"/>
<path d="M408.667 202.854L400.026 207.08L389.463 185.478C388.296 183.092 389.285 180.212 391.671 179.045C394.057 177.877 396.937 178.866 398.104 181.252L408.667 202.854Z" fill="#8F4A26"/>
<path d="M568.693 470.668L512.198 498.293C509.836 499.448 507.012 498.12 506.393 495.566L498.817 464.267L550.055 439.21L570.106 464.409C571.741 466.469 571.055 469.513 568.693 470.668Z" fill="#F5E3CB"/>
<path d="M556.387 441.121L496.433 470.44L494.354 466.189C492.976 463.371 494.144 459.97 496.962 458.591L546.712 434.262C549.53 432.884 552.931 434.052 554.31 436.87L556.387 441.121Z" fill="#D16C38"/>
<path d="M527.318 452.217L523.988 453.846C522.977 454.342 521.755 453.967 521.194 452.99L505.064 424.941C504.445 423.867 504.865 422.496 505.979 421.953L513.205 418.419C514.317 417.876 515.658 418.385 516.126 419.533L528.36 449.486C528.786 450.529 528.33 451.724 527.318 452.217Z" fill="#8F4A26"/>
<path d="M369.401 225.929L373.527 202.472C369.982 200.51 366.476 198.435 362.837 196.651C357.752 194.16 351.675 192.753 346.063 190.66C344.783 197.468 343.738 204.474 342.894 211.535C342.434 215.37 342.036 219.222 341.689 223.065C340.752 233.448 346.885 243.203 356.66 246.829C359.547 247.902 362.393 248.93 365.182 249.919C394.005 260.131 416.84 265.849 416.84 265.849L422.154 254.582L369.401 225.929Z" fill="#ED8D5D"/>
<path d="M420.794 254.414C420.794 254.414 432.316 251.611 434.34 252.779C436.363 253.946 429.758 258.255 429.758 258.255C429.758 258.255 437.687 260.641 438.621 261.965C439.554 263.289 438.387 265.312 438.387 265.312C438.387 265.312 441.916 266.79 440.67 270.06C439.663 272.706 434.494 268.97 434.494 268.97C434.494 268.97 440.256 274.498 438.855 275.199C437.453 275.901 426.742 269.515 426.742 269.515C426.742 269.515 432.237 275.978 430.759 276.757C429.28 277.536 420.511 273.63 416.838 265.851C413.164 258.072 416.357 254.103 420.794 254.414Z" fill="#ED8D5D"/>
<path d="M375.951 136.312C375.945 135.45 376.09 134.687 376.341 134.011C372.306 135.93 363.212 141.877 357.888 148.457C351.971 155.768 343.8 195.704 344.037 196.102C349.642 205.756 373.309 207.787 373.309 207.787C373.309 207.787 376.769 192.291 379.893 177.82C377.733 164.072 376.046 150.27 375.951 136.312Z" fill="#FFBF67"/>
<path d="M475.602 199.067C475.453 199.303 475.29 199.541 475.104 199.777C470.32 205.619 451.76 209.02 447.838 209.68C447.364 209.767 447.103 209.805 447.103 209.805C447.103 209.805 446.815 208.921 446.33 207.401C446.094 205.134 445.882 203.128 445.708 201.396C444.312 187.295 440.016 161.91 437.075 145.379C439.156 142.077 441.784 139.798 444.461 139.737C451.162 139.574 455.821 142.69 459.882 151.733C463.917 160.752 475.602 199.067 475.602 199.067Z" fill="#FFBF67"/>
<path d="M483.025 222.51L475.104 199.777C470.32 205.619 451.76 209.02 447.838 209.68C451.227 218.636 455.087 227.592 459.136 236.262L447.166 283.111C446.716 283.375 446.066 284.074 445.577 284.397C448.989 285.824 452.578 286.859 456.005 288.27C457.129 288.734 458.276 289.193 459.428 289.655C459.309 288.706 459.176 287.842 459.047 287.11C459.059 287.098 459.047 287.085 459.047 287.085C459.995 285.378 465.137 275.85 471.852 261.749C475.116 254.923 478.741 247.026 482.441 238.442C484.621 233.385 484.831 227.691 483.025 222.51Z" fill="#ED8D5D"/>
<path d="M447.341 283.375C447.341 283.375 437.453 288.434 439.322 290.925C441.191 293.416 444.56 291.666 444.56 291.666C444.56 291.666 441.736 297.931 443.137 299.566C444.538 301.201 445.785 300.111 445.785 300.111C445.785 300.111 445.24 302.214 446.641 303.458C448.042 304.705 450.222 302.836 450.222 302.836C450.222 302.836 451.78 305.016 453.569 304.782C455.361 304.548 455.749 299.178 455.749 299.178C455.749 299.178 456.449 304.705 457.539 304.939C458.629 305.173 461.509 295.519 458.552 285.866C455.593 276.212 447.341 283.375 447.341 283.375Z" fill="#ED8D5D"/>
<path d="M432.915 83.9839C431.706 65.8223 423.212 62.9586 423.212 62.9586C412.898 59.6945 404.242 61.3275 395.845 68.1411C395.845 68.1411 390.315 72.8083 393.193 86.3185C392.341 85.9498 391.14 85.8072 389.546 86.4433C385.959 87.8782 388.076 98.5008 396.118 95.6767C401.043 107.837 408.489 114.044 416.163 114.492C417.035 114.542 417.907 114.431 418.753 114.268C419.613 114.106 420.459 113.894 421.256 113.521C426.014 111.329 429.7 106.682 431.607 99.7811C432.243 97.4901 432.677 94.9612 432.889 92.1827C433.101 89.6499 433.113 86.911 432.915 83.9839Z" fill="#ED8D5D"/>
<path d="M418.937 84.085C419.298 85.0442 419.585 85.9796 419.886 86.9051C420.188 87.8386 420.505 88.7106 420.8 89.7055C421.064 90.6845 421.214 91.8815 420.752 92.9537C420.525 93.4888 420.19 93.9545 419.639 94.2796C419.028 94.5392 418.525 94.3985 418.025 94.3152C418.495 94.1309 419.04 94.0219 419.284 93.7464C419.524 93.469 419.708 93.035 419.785 92.6386C419.948 91.8062 419.803 90.9521 419.543 90.0424C419.3 89.1347 418.998 88.126 418.897 87.1212C418.775 86.1164 418.759 85.0937 418.937 84.085Z" fill="#051934"/>
<path d="M412.229 94.8206C412.803 95.435 413.418 95.9681 414.042 96.4517C414.678 96.9214 415.346 97.3177 416.063 97.5714C416.771 97.8509 417.53 97.9757 418.305 97.9559C419.088 97.9678 419.872 97.7993 420.705 97.6368C420.023 98.1164 419.244 98.5445 418.368 98.6594C417.506 98.8338 416.581 98.7308 415.748 98.4196C414.078 97.7874 412.789 96.4081 412.229 94.8206Z" fill="#051934"/>
<path d="M389.426 90.1831C389.544 89.5489 390.089 88.984 390.753 88.7621C391.425 88.5084 392.2 88.6055 392.83 88.9028C393.459 89.2119 393.98 89.7193 394.285 90.3139C394.606 90.8985 394.719 91.5585 394.666 92.1887C393.972 91.1304 393.294 90.2802 392.375 89.8541C391.927 89.6301 391.445 89.5251 390.946 89.5608C390.446 89.6123 389.905 89.7669 389.426 90.1831Z" fill="#051934"/>
<path d="M392.113 93.5027C391.728 93.3798 391.421 93.0251 391.312 92.6168C391.183 92.2046 391.235 91.7646 391.372 91.3821C391.526 91.0095 391.754 90.6528 392.127 90.413C392.479 90.1613 392.993 90.1078 393.334 90.3357C392.987 90.5339 392.832 90.7935 392.693 91.0115C392.571 91.2434 392.452 91.497 392.359 91.7567C392.252 92.0103 392.186 92.262 392.129 92.5296C392.091 92.8011 392.043 93.1103 392.113 93.5027Z" fill="#051934"/>
<path d="M413.507 86.376C413.507 87.8049 412.863 88.9623 412.066 88.9623C411.269 88.9623 410.627 87.8049 410.627 86.376C410.627 84.9471 411.271 83.7897 412.066 83.7897C412.861 83.7897 413.507 84.9491 413.507 86.376Z" fill="#051934"/>
<path d="M409.547 95.435C409.547 98.2353 407.278 100.504 404.477 100.504C401.677 100.504 399.408 98.2353 399.408 95.435C399.408 92.6346 401.677 90.3654 404.477 90.3654C407.278 90.3654 409.547 92.6346 409.547 95.435Z" fill="#E6794E"/>
<path d="M432.889 92.1788C432.677 94.9574 432.241 97.4862 431.607 99.7772C430.848 100.237 429.962 100.501 429.003 100.501C426.212 100.501 423.933 98.2333 423.933 95.431C423.933 92.6406 426.212 90.3615 429.003 90.3615C430.573 90.3615 431.968 91.071 432.889 92.1788Z" fill="#E6794E"/>
<path d="M414.24 99.0201C414.704 99.0915 415.023 99.2817 415.376 99.4184C415.707 99.6127 416.006 99.7356 416.404 99.9754C415.992 100.243 415.501 100.118 415.11 99.9595C414.742 99.7375 414.387 99.4759 414.24 99.0201Z" fill="#051934"/>
<path d="M422.746 86.376C422.746 87.8049 423.39 88.9623 424.185 88.9623C424.98 88.9623 425.626 87.8049 425.626 86.376C425.626 84.9471 424.982 83.7897 424.185 83.7897C423.39 83.7897 422.746 84.9491 422.746 86.376Z" fill="#051934"/>
<path d="M406.192 82.9275C406.243 82.113 406.598 81.354 407.1 80.7039C407.601 80.0459 408.31 79.5307 409.105 79.2136C409.908 78.9262 410.792 78.8014 411.604 78.9916C412.423 79.1284 413.16 79.5188 413.757 80.0539C412.938 80.1173 412.227 80.0915 411.547 80.1867C410.869 80.2481 410.247 80.4126 409.658 80.6425C408.459 81.0805 407.409 81.899 406.192 82.9275Z" fill="#051934"/>
<path d="M428.25 82.7135C427.003 81.7226 425.929 80.9358 424.714 80.5355C424.118 80.3234 423.491 80.1788 422.812 80.1391C422.13 80.0658 421.418 80.1134 420.598 80.0737C421.177 79.5208 421.902 79.1086 422.716 78.9461C423.525 78.7301 424.411 78.8272 425.222 79.0908C426.028 79.3841 426.751 79.8775 427.273 80.5196C427.796 81.1518 428.172 81.899 428.25 82.7135Z" fill="#051934"/>
<path d="M410.982 85.1313C410.982 85.1313 409.497 85.2265 408.491 84.7489C408.491 84.7489 409.795 86.3284 410.627 86.3779L410.982 85.1313Z" fill="#051934"/>
<path d="M425.18 85.1313C425.18 85.1313 426.664 85.2265 427.671 84.7489C427.671 84.7489 426.367 86.3284 425.535 86.3779L425.18 85.1313Z" fill="#051934"/>
<path d="M411.551 57.2152C396.293 59.9184 383.637 70.3944 384.669 82.6521C384.986 86.3977 386.167 89.8402 387.652 92.8169C382.945 93.7622 373.321 97.1135 375.141 108.785C376.809 119.473 387.035 118.45 393.151 116.769C394.152 112.1 394.723 107.112 395.048 103.045C395.048 103.045 395.054 103.051 395.058 103.055C395.308 99.9277 395.419 97.3494 395.456 95.8808C394.125 96.2455 392.971 96.2217 391.99 95.9383C391.826 95.8907 391.669 95.8353 391.514 95.7738C391.473 95.756 391.427 95.7421 391.386 95.7243C391.207 95.647 391.035 95.5618 390.868 95.4666C390.817 95.4369 390.771 95.4032 390.722 95.3715C390.611 95.3021 390.5 95.2288 390.395 95.1515C390.329 95.1039 390.268 95.0524 390.204 95.0009C390.117 94.9296 390.032 94.8582 389.951 94.7829C389.893 94.7314 389.838 94.6778 389.782 94.6224C389.691 94.5292 389.602 94.4341 389.517 94.335C389.481 94.2934 389.443 94.2537 389.41 94.2121C389.162 93.9089 388.942 93.5839 388.754 93.241C388.742 93.2212 388.732 93.2014 388.722 93.1816C388.637 93.025 388.56 92.8645 388.486 92.702C387.38 90.2108 387.737 87.1667 389.541 86.4394C391.136 85.8032 392.343 85.9538 393.191 86.3264C393.167 86.2214 395.985 90.2247 395.985 90.2247C395.985 90.2247 406.469 85.7616 404.186 75.6918C404.186 75.6918 423.424 85.4464 432.741 81.9624C432.808 82.6164 432.867 83.2843 432.915 83.9839C432.99 84.9807 433.028 85.9637 433.04 86.911C442.02 66.3198 426.163 54.6229 411.551 57.2152Z" fill="#051934"/>
<path d="M1501.78 244.332C1482.75 193.781 1534.14 42.9075 1612.76 107.998C1666.22 152.246 1555.8 231.79 1501.78 244.332Z" fill="#78330B"/>
<path d="M1468.87 384.252L1467.09 384.103C1470.43 335.985 1481.45 289.095 1498.95 248.504C1517.36 205.837 1542.14 170.84 1572.61 144.487L1573.72 146.024C1514.01 197.664 1475.79 284.494 1468.87 384.252Z" fill="#A15419"/>
<path d="M1449.7 203.703C1412.95 153.251 1412.05 -37.9446 1513.8 6.70084C1582.97 37.0511 1499.65 169.136 1449.7 203.703Z" fill="#A15419"/>
<path d="M1463.57 375.982C1450.17 319.938 1444.92 262.412 1448.38 209.623C1452.01 154.132 1464.74 104.981 1486.19 63.5353L1487.74 64.5018C1445.66 145.802 1437.48 259.151 1465.3 375.485L1463.57 375.982Z" fill="#78330B"/>
<path d="M1445.2 341.913L1531.39 340.831C1531.39 340.831 1514.07 456.579 1483.46 461.987C1452.85 467.396 1440.63 456.262 1440.63 456.262L1445.2 341.913Z" fill="#411A03"/>
<path d="M152.219 244.332C171.251 193.781 119.865 42.9075 41.2357 107.998C-12.216 152.246 98.2038 231.79 152.219 244.332Z" fill="#78330B"/>
<path d="M185.131 384.252L186.911 384.103C183.572 335.985 172.553 289.095 155.046 248.504C136.643 205.837 111.861 170.84 81.3872 144.487L80.282 146.024C139.994 197.664 178.21 284.494 185.131 384.252Z" fill="#A15419"/>
<path d="M204.3 203.703C241.053 153.251 241.948 -37.9446 140.2 6.70084C71.0322 37.0511 154.354 169.136 204.3 203.703Z" fill="#A15419"/>
<path d="M190.427 375.982C203.828 319.938 209.082 262.412 205.622 209.623C201.985 154.132 189.265 104.981 167.814 63.5353L166.262 64.5018C208.339 145.802 216.517 259.151 188.701 375.485L190.427 375.982Z" fill="#78330B"/>
<path d="M208.799 341.913L122.615 340.831C122.615 340.831 139.932 456.579 170.539 461.987C201.147 467.396 213.37 456.262 213.37 456.262L208.799 341.913Z" fill="#411A03"/>
</svg>
