<svg width="352" height="205" viewBox="0 0 352 205" fill="none" xmlns="http://www.w3.org/2000/svg">
<path d="M115.992 52.5206H0V130.061H115.992V52.5206Z" fill="#495375"/>
<path d="M161.17 52.5205H115.992V130.06H161.17V52.5205Z" fill="#422C4F"/>
<path d="M54.6225 56.9896H6.29541V125.591H54.6225V56.9896Z" fill="#797C99"/>
<path d="M111.523 56.9895H59.0916V125.591H111.523V56.9895Z" fill="#797C99"/>
<path d="M51.9694 56.9896H3.64227V125.591H51.9694V56.9896Z" fill="#99A3B0"/>
<path d="M108.87 56.9895H56.4384V125.591H108.87V56.9895Z" fill="#99A3B0"/>
<path d="M48.0649 92.8622C48.0649 93.9199 47.2076 94.7765 46.1506 94.7765C45.093 94.7765 44.2364 93.9192 44.2364 92.8622C44.2364 91.8053 45.0937 90.948 46.1506 90.948C47.2076 90.948 48.0649 91.8046 48.0649 92.8622Z" fill="#F0BF6C"/>
<path d="M46.92 92.8621C46.92 94.5417 45.5585 95.9033 43.8788 95.9033C42.1992 95.9033 40.8376 94.5417 40.8376 92.8621C40.8376 91.1825 42.1992 89.8209 43.8788 89.8209C45.5585 89.8209 46.92 91.1825 46.92 92.8621Z" fill="#F5D896"/>
<path d="M62.7056 92.8622C62.7056 93.9199 61.8483 94.7765 60.7914 94.7765C59.7344 94.7765 58.8771 93.9192 58.8771 92.8622C58.8771 91.8053 59.7344 90.948 60.7914 90.948C61.8483 90.948 62.7056 91.8046 62.7056 92.8622Z" fill="#F0BF6C"/>
<path d="M61.5601 92.8621C61.5601 94.5417 60.1985 95.9033 58.5189 95.9033C56.8392 95.9033 55.4777 94.5417 55.4777 92.8621C55.4777 91.1825 56.8392 89.8209 58.5189 89.8209C60.1985 89.8209 61.5601 91.1825 61.5601 92.8621Z" fill="#F5D896"/>
<path d="M151.899 204.088H158.23L153.14 130.061H146.809L151.899 204.088Z" fill="#422C4F"/>
<path d="M152.646 189.687H125.971V183.977H152.646C154.222 183.977 155.499 185.254 155.499 186.83V186.835C155.499 188.41 154.222 189.687 152.646 189.687Z" fill="#422C4F"/>
<path d="M127.585 204.088H121.253L126.343 130.061H132.674L127.585 204.088Z" fill="#422C4F"/>
<path d="M39.1461 130.061H32.8149L33.55 140.746H39.8812L39.1461 130.061Z" fill="#422C4F"/>
<path d="M33.55 140.746L37.9052 204.088H44.2364L39.8812 140.746H33.55Z" fill="#454F6B"/>
<path d="M38.6522 189.687H11.9771V183.977H38.6522C40.2276 183.977 41.505 185.254 41.505 186.83V186.835C41.505 188.41 40.2276 189.687 38.6522 189.687Z" fill="#422C4F"/>
<path d="M7.25916 204.088H13.5903L17.9455 140.746H11.6143L7.25916 204.088Z" fill="#454F6B"/>
<path d="M12.3495 130.061L11.6143 140.746H17.9455L18.6807 130.061H12.3495Z" fill="#422C4F"/>
<path d="M352 42.6335H281.101L296.366 0H336.735L352 42.6335Z" fill="#78330B"/>
<path d="M352 42.6335L336.735 0H324.538L329.758 18.4804C332.291 27.4483 325.554 36.353 316.235 36.353H283.35L281.101 42.6335H352Z" fill="#78330B"/>
<path d="M320.083 42.6335H313.018V193.466H320.083V42.6335Z" fill="#A59B95"/>
<path d="M320.083 42.6335L312.984 49.7319V42.6335H320.083Z" fill="#897D76"/>
<path d="M313.018 193.466L288.536 199.107H344.564L320.083 193.466H313.018Z" fill="#D4CFBE"/>
<path d="M344.564 199.107H288.536V204.088H344.564V199.107Z" fill="#A59B95"/>
<path d="M324.873 77.8545V42.6337H324.128V77.8545C323.643 78.2023 323.29 79.1959 323.29 80.381C323.29 81.855 323.832 83.0498 324.5 83.0498C325.169 83.0498 325.711 81.855 325.711 80.381C325.711 79.1959 325.358 78.2023 324.873 77.8545Z" fill="#897D76"/>
<path d="M114.545 69.0229H62.2319V137.336H114.545V69.0229Z" fill="#DE9547"/>
<path d="M114.546 137.335H144.139V69.0219H114.546V137.335Z" fill="#BD704D"/>
<path d="M109.643 75.3687H95.0252V92.9656H105.904L109.643 89.2258V75.3687Z" fill="#F2F0FC"/>
<path d="M105.904 92.9656L109.643 89.2257H105.904V92.9656Z" fill="#C7D2D7"/>
<path d="M287.111 99.3125H250.212V147.497H287.111V99.3125Z" fill="#DE9547"/>
<path d="M287.111 147.497H307.985V99.313H287.111V147.497Z" fill="#BD704D"/>
<path d="M282.901 103.187H271.456V116.964H279.973L282.901 114.036V103.187Z" fill="#F2F0FC"/>
<path d="M279.973 116.964L282.901 114.036H279.973V116.964Z" fill="#C7D2D7"/>
<path d="M179.421 91.291H127.107V137.336H179.421V91.291Z" fill="#DE9547"/>
<path d="M179.421 137.335H209.014V91.2901H179.421V137.335Z" fill="#BD704D"/>
<path d="M43.6703 125.857L57.6443 159.129H63.5636L48.0887 122.284L43.6703 125.857Z" fill="#CC6164"/>
<path d="M74.086 122.284H68.1675H48.0887L63.5636 159.129H83.6424H89.5617L74.086 122.284Z" fill="#E8916A"/>
<path d="M51.4078 118.738L65.3818 152.01H71.3011L55.8262 115.166L51.4078 118.738Z" fill="#422C4F"/>
<path d="M81.8235 115.166H75.905H55.8262L71.3011 152.01H91.3799H97.2992L81.8235 115.166Z" fill="#6CA8BF"/>
<path d="M64.3048 123.747L78.2789 157.019H84.1982L68.7232 120.175L64.3048 123.747Z" fill="#81D3CF"/>
<path d="M94.7213 120.175H88.802H68.7232L84.1981 157.019H104.277H110.196L94.7213 120.175Z" fill="#D3FBF0"/>
<path d="M75.7457 127.489L89.7205 160.762H95.6397L80.1648 123.917L75.7457 127.489Z" fill="#D4CFBE"/>
<path d="M106.162 123.917H100.244H80.1647L95.6397 160.762H115.718H121.637L106.162 123.917Z" fill="white"/>
<path d="M137.863 121.958C120.403 116.501 101.824 126.23 96.3667 143.691C96.2058 144.204 96.2691 144.734 96.5 145.176L139.008 122.914C138.777 122.472 138.377 122.118 137.863 121.958Z" fill="#CC6164"/>
<path d="M139.141 124.399C139.302 123.886 139.239 123.356 139.008 122.914L96.5 145.176C96.7316 145.618 97.1309 145.971 97.6448 146.132C115.105 151.589 133.683 141.859 139.141 124.399Z" fill="#A34262"/>
<path d="M104.275 130.443C103.156 131.588 102.117 132.818 101.166 134.13L104.701 140.88L108.656 138.809L104.275 130.443Z" fill="white"/>
<path d="M104.701 140.88L108.236 147.631C109.856 147.597 111.459 147.442 113.038 147.175L108.656 138.809L104.701 140.88Z" fill="#C7D2D7"/>
<path d="M134.342 133.959L130.807 127.208L126.852 129.28L131.233 137.646C132.352 136.502 133.391 135.271 134.342 133.959Z" fill="#C7D2D7"/>
<path d="M127.272 120.458C125.652 120.492 124.048 120.646 122.47 120.914L126.851 129.28L130.806 127.209L127.272 120.458Z" fill="white"/>
<path d="M125.229 134.494L121.642 127.644C121.517 127.405 121.609 127.111 121.848 126.986C122.086 126.861 122.38 126.953 122.506 127.192L126.093 134.042C126.218 134.28 126.125 134.574 125.887 134.7C125.648 134.825 125.354 134.732 125.229 134.494Z" fill="white"/>
<path d="M122.784 135.775L119.197 128.925C119.072 128.686 119.164 128.392 119.403 128.267C119.641 128.142 119.935 128.234 120.06 128.473L123.647 135.323C123.773 135.561 123.68 135.855 123.442 135.981C123.203 136.105 122.909 136.013 122.784 135.775Z" fill="white"/>
<path d="M120.339 137.055L116.752 130.205C116.627 129.967 116.719 129.673 116.957 129.547C117.195 129.422 117.49 129.515 117.615 129.753L121.202 136.603C121.327 136.842 121.235 137.136 120.996 137.261C120.758 137.385 120.464 137.294 120.339 137.055Z" fill="white"/>
<path d="M117.893 138.336L114.306 131.486C114.181 131.247 114.273 130.953 114.512 130.828C114.75 130.703 115.044 130.795 115.17 131.033L118.757 137.884C118.882 138.122 118.789 138.416 118.551 138.541C118.313 138.666 118.019 138.574 117.893 138.336Z" fill="white"/>
<path d="M115.448 139.616L111.861 132.766C111.737 132.528 111.828 132.233 112.067 132.108C112.305 131.983 112.599 132.075 112.724 132.314L116.311 139.164C116.437 139.402 116.344 139.697 116.106 139.822C115.868 139.947 115.573 139.855 115.448 139.616Z" fill="white"/>
<path d="M113.003 140.897L109.416 134.046C109.29 133.808 109.383 133.514 109.621 133.389C109.859 133.264 110.154 133.356 110.279 133.594L113.866 140.445C113.991 140.683 113.899 140.977 113.66 141.102C113.422 141.227 113.128 141.135 113.003 140.897Z" fill="white"/>
<path d="M103.014 137.401H46.3644V204.088H103.014V137.401Z" fill="#EEB869"/>
<path d="M92.1083 162.877H46.3644V137.401H103.014L92.1083 162.877Z" fill="#DE9547"/>
<path d="M29.4996 156.666H86.1496L103.014 137.4H46.3644L29.4996 156.666Z" fill="#F9C785"/>
<path d="M103.015 204.088H159.664V137.401H103.015V204.088Z" fill="#DE9547"/>
<path d="M113.92 162.877H159.664V137.401H103.014L113.92 162.877Z" fill="#BD704D"/>
<path d="M176.528 156.666H119.879L103.014 137.4H159.664L176.528 156.666Z" fill="#F9C785"/>
<path d="M94.1865 184.55L84.1154 175.632L76.7764 187.872L84.934 195.096L88.2426 194.465L94.1865 184.55Z" fill="#F2F0FC"/>
<path d="M84.934 195.096L88.2426 194.465L86.329 192.77L84.934 195.096Z" fill="#C7D2D7"/>
<path d="M205.076 121.666H135.061V204.087H205.076V121.666Z" fill="#EEB869"/>
<path d="M166.389 150.956L167.309 149.766L168.229 150.956L169.149 149.766L170.068 150.956L170.989 149.766L171.909 150.956L172.829 149.766L173.749 150.956L174.669 149.766L175.655 151.041V121.666H164.482V151.041L165.469 149.766L166.389 150.956Z" fill="#AE694A"/>
<path d="M198.931 128.602H184.314V146.199H198.931V128.602Z" fill="#F2F0FC"/>
<path d="M205.077 204.088H244.685V121.667H205.077V204.088Z" fill="#DE9547"/>
<path d="M226.962 144.499L226.441 143.31L225.922 144.499L225.401 143.31L224.88 144.499L224.36 143.31L223.84 144.499L223.319 143.31L222.798 144.499L222.278 143.31L221.721 144.585V121.666H228.041V144.585L227.483 143.31L226.962 144.499Z" fill="#774843"/>
<path d="M144.888 197.62C144.888 197.777 144.761 197.904 144.604 197.904C144.448 197.904 144.321 197.777 144.321 197.62V197.114H143.926V197.62C143.926 197.994 144.23 198.3 144.605 198.3C144.979 198.3 145.284 197.995 145.284 197.62V194.793H148.338C147.745 193.594 146.513 192.768 145.086 192.768C143.658 192.768 142.426 193.594 141.834 194.793H144.887V197.62H144.888Z" fill="#5C4753"/>
<path d="M159.331 190.911H158.772H150.02H149.462H140.151V200.159H149.462H150.02H158.772H159.331H168.641V190.911H159.331ZM149.462 199.599H140.71V191.469H149.462V199.599ZM158.772 199.599H150.02V191.469H158.772V199.599ZM168.083 199.599H159.331V191.469H168.083V199.599Z" fill="#5C4753"/>
<path d="M151.867 197.818H153.294V194.187H154.163L152.58 192.288L150.997 194.187H151.867V197.818Z" fill="#5C4753"/>
<path d="M155.498 197.818H156.926V194.187H157.794L156.211 192.288L154.629 194.187H155.498V197.818Z" fill="#5C4753"/>
<path d="M157.794 198.222H150.997V198.781H157.794V198.222Z" fill="#5C4753"/>
<path d="M163.474 196.213V197.57C163.474 197.982 163.14 198.315 162.729 198.315H162.108V198.781H165.305V198.315H164.685C164.273 198.315 163.94 197.982 163.94 197.57V196.213C164.994 196.095 165.818 195.211 165.818 194.126V192.288H161.596V194.126C161.596 195.211 162.42 196.095 163.474 196.213Z" fill="#5C4753"/>
<path d="M293.147 147.497H234.87V204.088H293.147V147.497Z" fill="#EEB869"/>
<path d="M293.147 204.088H326.114V147.497H293.147V204.088Z" fill="#DE9547"/>
<path d="M306.713 197.62C306.713 197.777 306.637 197.904 306.546 197.904C306.454 197.904 306.379 197.777 306.379 197.62V197.114H306.147V197.62C306.147 197.994 306.326 198.3 306.547 198.3C306.767 198.3 306.946 197.995 306.946 197.62V194.793H308.745C308.395 193.594 307.671 192.768 306.83 192.768C305.99 192.768 305.265 193.594 304.916 194.793H306.714V197.62H306.713Z" fill="#5C4753"/>
<path d="M315.217 190.911H314.887H309.735H309.405H303.923V200.159H309.405H309.735H314.887H315.217H320.699V190.911H315.217ZM309.405 199.599H304.252V191.469H309.405V199.599ZM314.887 199.599H309.735V191.469H314.887V199.599ZM320.369 199.599H315.217V191.469H320.369V199.599Z" fill="#5C4753"/>
<path d="M310.822 197.818H311.662V194.187H312.174L311.242 192.288L310.31 194.187H310.822V197.818Z" fill="#5C4753"/>
<path d="M312.96 197.818H313.801V194.187H314.312L313.38 192.288L312.448 194.187H312.96V197.818Z" fill="#5C4753"/>
<path d="M314.312 198.222H310.31V198.781H314.312V198.222Z" fill="#5C4753"/>
<path d="M317.656 196.212V197.57C317.656 197.981 317.459 198.315 317.217 198.315H316.851V198.781H318.734V198.315H318.368C318.126 198.315 317.929 197.981 317.929 197.57V196.212C318.55 196.095 319.035 195.211 319.035 194.125V192.288H316.55V194.125C316.551 195.211 317.035 196.095 317.656 196.212Z" fill="#5C4753"/>
<path d="M261.009 171.369L261.759 170.399L262.509 171.369L263.259 170.399L264.008 171.369L264.758 170.399L265.509 171.369L266.258 170.399L267.008 171.369L267.758 170.399L268.562 171.438V147.497H259.455V171.438L260.26 170.399L261.009 171.369Z" fill="#AE694A"/>
<path d="M309.596 171.369L310.008 170.399L310.419 171.369L310.831 170.399L311.242 171.369L311.653 170.399L312.065 171.369L312.476 170.399L312.888 171.369L313.299 170.399L313.74 171.438V147.497H308.744V171.438L309.185 170.399L309.596 171.369Z" fill="#AE694A"/>
<path d="M200.875 79.9467H157.913V121.666H200.875V79.9467Z" fill="#EEB869"/>
<path d="M200.875 121.667H225.179V79.947H200.875V121.667Z" fill="#DE9547"/>
<path d="M177.182 97.5458L177.735 96.8307L178.289 97.5458L178.841 96.8307L179.394 97.5458L179.947 96.8307L180.499 97.5458L181.052 96.8307L181.605 97.5458L182.158 96.8307L182.75 97.5972V79.9465H176.037V97.5972L176.63 96.8307L177.182 97.5458Z" fill="#AE694A"/>
<path d="M213.002 97.5458L213.305 96.8307L213.608 97.5458L213.912 96.8307L214.215 97.5458L214.519 96.8307L214.822 97.5458L215.125 96.8307L215.429 97.5458L215.732 96.8307L216.057 97.5972V79.9465H212.373V97.5972L212.698 96.8307L213.002 97.5458Z" fill="#AE694A"/>
<path d="M225.179 110.075L200.875 116.382V121.666H225.179V110.075Z" fill="#BD704D"/>
<path d="M157.913 121.666H200.875V116.382L157.913 121.666Z" fill="#DE9547"/>
<path d="M210.876 116.899C210.876 117.015 210.821 117.108 210.753 117.108C210.686 117.108 210.63 117.015 210.63 116.899V116.526H210.458V116.899C210.458 117.175 210.591 117.4 210.753 117.4C210.916 117.4 211.048 117.175 211.048 116.899V114.815H212.374C212.117 113.932 211.582 113.322 210.963 113.322C210.343 113.322 209.809 113.932 209.551 114.815H210.877V116.899H210.876Z" fill="#5C4753"/>
<path d="M217.145 111.952H216.902H213.103H212.861H208.819V118.769H212.861H213.103H216.902H217.145H221.186V111.952H217.145ZM212.861 118.358H209.063V112.364H212.861V118.358ZM216.903 118.358H213.104V112.364H216.903V118.358ZM220.944 118.358H217.146V112.364H220.944V118.358Z" fill="#5C4753"/>
<path d="M213.906 117.045H214.525V114.368H214.902L214.215 112.968L213.528 114.368H213.906V117.045Z" fill="#5C4753"/>
<path d="M215.482 117.045H216.101V114.368H216.478L215.792 112.968L215.104 114.368H215.482V117.045Z" fill="#5C4753"/>
<path d="M216.478 117.342H213.528V117.754H216.478V117.342Z" fill="#5C4753"/>
<path d="M218.944 115.861V116.862C218.944 117.165 218.799 117.411 218.62 117.411H218.351V117.754H219.738V117.411H219.469C219.29 117.411 219.146 117.165 219.146 116.862V115.861C219.604 115.774 219.96 115.123 219.96 114.322V112.967H218.128V114.322C218.129 115.123 218.486 115.774 218.944 115.861Z" fill="#5C4753"/>
<path d="M116.196 38.6993H87.6238L93.7755 21.5179H110.044L116.196 38.6993Z" fill="#E4E4E0"/>
<path d="M116.003 57.8775C116.003 54.7313 114.971 51.8279 113.228 49.4831C111.784 47.5413 109.486 46.421 107.066 46.421H96.7532C94.3332 46.421 92.0354 47.5413 90.5911 49.4831C88.8482 51.8271 87.8158 54.7313 87.8158 57.8775C87.8158 61.4803 89.1692 64.7651 91.3933 67.2559C92.3653 68.3441 93.7634 68.9571 95.2225 68.9571H108.595C110.054 68.9571 111.452 68.3441 112.424 67.2559C114.65 64.7651 116.003 61.4803 116.003 57.8775Z" fill="#E4E4E0"/>
<path d="M114.817 52.225C114.915 52.8938 114.974 53.5761 114.974 54.2726C114.974 57.8754 113.62 61.1594 111.396 63.6502C110.424 64.7384 109.026 65.3514 107.567 65.3514H91.8157C91.076 65.3514 90.3528 65.1927 89.6929 64.8963C90.18 65.7417 90.7491 66.5327 91.3948 67.256C92.3669 68.3442 93.7649 68.9572 95.2241 68.9572H108.596C110.055 68.9572 111.454 68.3442 112.426 67.256C114.65 64.7652 116.003 61.4804 116.003 57.8776C116.003 55.8658 115.577 53.9553 114.817 52.225Z" fill="#E4E4E0"/>
<path d="M96.7532 46.4211H107.066L111.539 42.603H92.2804L96.7532 46.4211Z" fill="#E4E4E0"/>
<path d="M108.21 42.603C106.053 44.5039 103.273 45.563 100.382 45.563H95.7484L96.7532 46.4211H107.066L111.539 42.603H108.21Z" fill="#E4E4E0"/>
<path d="M116.196 38.6992L110.044 21.5178H105.128L107.233 28.9655C108.254 32.5795 105.538 36.1682 101.783 36.1682H88.5295L87.623 38.6992H116.196Z" fill="#E4E4E0"/>
<path d="M103.333 38.6993H100.486V42.6031H103.333V38.6993Z" fill="#A59B95"/>
<path d="M103.333 38.6993L100.472 41.5595V38.6993H103.333Z" fill="#897D76"/>
<path d="M228.38 103.642C230.654 109.09 234.856 115.082 239.811 120.367C242.295 123.012 244.882 125.408 247.326 127.656C249.779 129.901 252.089 132.022 254.243 134.045C253.951 131.107 252.769 127.84 250.967 124.761C249.173 121.668 246.81 118.761 244.336 116.125C239.379 110.84 233.669 106.261 228.38 103.642Z" fill="#7CA566"/>
<path d="M274.611 104.699C266.376 109.613 257.277 120.982 254.286 130.093C262.521 125.18 271.621 113.811 274.611 104.699Z" fill="#7CA566"/>
<path d="M252.98 83.0503C248.2 95.8341 248.2 116.56 252.98 129.344C257.761 116.56 257.761 95.8341 252.98 83.0503Z" fill="#7CA566"/>
<path d="M237.882 89.2759C237.339 92.5294 237.3 96.2685 237.797 100.171C238.29 104.074 239.318 108.136 240.811 112.023C242.307 115.909 244.264 119.615 246.512 122.842C248.758 126.073 251.291 128.823 253.873 130.876C252.648 124.381 250.103 116.898 247.288 109.534C244.444 102.18 241.321 94.9188 237.882 89.2759Z" fill="#ADBF53"/>
<path d="M266.65 91.2676C263.305 96.5433 260.364 103.499 257.927 110.613C255.508 117.732 253.584 125.035 253.008 131.256C257.52 126.948 261.625 120.131 264.136 112.731C266.671 105.339 267.589 97.4349 266.65 91.2676Z" fill="#ADBF53"/>
<path d="M269.237 124.415H237.373L244.477 147.497H262.133L269.237 124.415Z" fill="#422C4F"/>
<path d="M265.029 124.415L261.804 134.892C260.286 139.825 255.728 143.191 250.566 143.191H243.152L244.477 147.497H262.132L269.237 124.415H265.029Z" fill="#422C4F"/>
<path d="M193.387 71.8135H149.027V79.9464H193.387V71.8135Z" fill="#797C99"/>
<path d="M193.387 63.6804H149.027V71.8134H193.387V63.6804Z" fill="#797C99"/>
<path d="M193.388 79.9467H221.421V71.8137H193.388V79.9467Z" fill="#495375"/>
<path d="M193.388 71.8135H221.421V63.6805H193.388V71.8135Z" fill="#495375"/>
<path d="M164.155 70.1993H157.247V73.4275H164.155V70.1993Z" fill="#F0BF6C"/>
<path d="M180.408 70.1992H173.501V73.4274H180.408V70.1992Z" fill="#F0BF6C"/>
<path d="M175.288 78.1065H162.211C160.604 78.1065 159.295 76.7978 159.295 75.1904V71.0945H161.795V75.1904C161.795 75.4198 161.982 75.6068 162.211 75.6068H175.288C175.518 75.6068 175.705 75.4198 175.705 75.1904V71.0945H178.204V75.1904C178.204 76.7985 176.896 78.1065 175.288 78.1065Z" fill="#495375"/>
<path d="M182.501 204.088L180.352 201.077H222.731L224.88 204.088H182.501Z" fill="#422C4F"/>
<path d="M235.47 149L222.731 201.077L224.88 204.088L237.618 152.01L235.47 149Z" fill="#495375"/>
<path d="M196.141 149H193.09L180.352 201.077H183.403H222.731L235.47 149H196.141Z" fill="#797C99"/>
<path d="M196.598 153.469L186.046 196.608H187.808L198.359 153.469H196.598Z" fill="#495375"/>
<path d="M229.776 153.469H198.359L187.808 196.608H219.225L229.776 153.469Z" fill="#D1F4F6"/>
<path d="M214.343 153.469L193.183 174.628L190.855 184.148L221.534 153.469H214.343Z" fill="white"/>
<path d="M229.567 154.324L187.978 195.913L187.808 196.608H191.004L228.362 159.25L229.567 154.324Z" fill="white"/>
<path d="M224.361 175.606L203.359 196.608H213.339L221.13 188.817L224.361 175.606Z" fill="white"/>
</svg>
