<svg width="332" height="239" viewBox="0 0 332 239" fill="none" xmlns="http://www.w3.org/2000/svg">
<path d="M265.907 194.755H20.763V203.26H265.907V194.755Z" fill="#A15419"/>
<path d="M260.429 173.743H26.239L17.714 106.013C16.924 99.74 21.814 94.197 28.136 94.197H258.532C264.854 94.197 269.744 99.741 268.954 106.013L260.429 173.743Z" fill="#F5E3CB"/>
<path d="M263.154 161.887H23.514V176.353H263.154V161.887Z" fill="#F5E3CB"/>
<path d="M271.762 175.683H14.906V197.382H271.762V175.683Z" fill="#F5E3CB"/>
<path d="M41.469 197.382H14.236L0 140.724H27.233L41.469 197.382Z" fill="#F5E3CB"/>
<path d="M245.2 197.382H272.433L286.669 140.724H259.436L245.2 197.382Z" fill="#F5E3CB"/>
<path d="M37.705 234.731H32.205L44.523 200.163H53.165L37.705 234.731Z" fill="#A15419"/>
<path d="M72.932 229.389H68.332L78.634 200.477H85.862L72.932 229.389Z" fill="#A15419"/>
<path d="M248.964 234.731H254.464L242.146 200.163H233.503L248.964 234.731Z" fill="#A15419"/>
<path d="M213.737 229.389H218.337L208.035 200.477H200.807L213.737 229.389Z" fill="#A15419"/>
<path d="M39.131 175.545L62.387 175.393L85.642 175.337L132.153 175.232L178.664 175.337L201.919 175.392L225.174 175.545L201.919 175.699L178.664 175.754L132.153 175.859L85.642 175.754L62.387 175.698L39.131 175.545Z" fill="#947F62"/>
<path d="M83.966 162.137C93.603 162.077 103.241 161.961 112.878 161.959L141.79 161.884H141.996L142.038 162.089L143.205 167.751L143.825 170.572L144.159 171.973L144.343 172.662L144.447 172.987C144.459 173.029 144.499 173.103 144.479 173.071C144.477 173.066 144.426 173.013 144.389 173.004C144.389 173.004 144.285 172.961 144.209 172.991C144.118 173.022 144.084 173.069 144.084 173.069C144.059 173.087 144.031 173.16 144.037 173.147L144.043 173.125L144.065 173.038L146.934 161.85L146.995 161.614L147.237 161.615L188.091 161.718L208.518 161.773L228.945 161.928L208.518 162.082L188.091 162.137L147.237 162.24L147.54 162.005L144.602 173.217L144.579 173.305L144.573 173.327C144.573 173.327 144.538 173.415 144.506 173.446C144.5 173.455 144.463 173.504 144.363 173.535C144.28 173.565 144.163 173.528 144.162 173.521C144.114 173.502 144.049 173.442 144.039 173.424C143.95 173.293 143.949 173.252 143.919 173.181C143.874 173.055 143.838 172.936 143.804 172.817L143.618 172.108L143.288 170.694L142.681 167.862L141.542 162.187L141.79 162.391L112.878 162.316C103.241 162.313 93.603 162.197 83.966 162.137Z" fill="#947F62"/>
<path d="M125.132 144.748H45.938L46.148 94.99C46.148 93.891 47.039 93 48.138 93H123.351C124.45 93 125.341 93.891 125.341 94.99L125.132 144.748Z" fill="#E3A33B"/>
<path d="M45.998 132.596L45.938 138.882H125.132L125.192 132.596H45.998Z" fill="#F5F5F5"/>
<path d="M45.998 124.845L45.938 128.825H125.132L125.192 124.845H45.998Z" fill="#F5F5F5"/>
<path d="M27.854 129.685C32.969 128.481 43.143 126.19 53.244 124.524C55.213 124.199 57.153 125.232 57.992 127.043C60.657 132.791 66.136 145.829 67.549 158.557C67.783 160.664 66.511 162.646 64.492 163.291C59.079 165.02 47.831 168.048 36.268 167.716C34.641 167.669 33.179 166.715 32.454 165.257C30.005 160.334 24.727 148.157 24.429 134.111C24.385 132.014 25.811 130.166 27.854 129.685Z" fill="#FFBF67"/>
<path d="M49.325 135.546C53.652 134.527 62.26 132.589 70.804 131.18C72.47 130.905 74.111 131.779 74.821 133.311C77.075 138.174 81.711 149.204 82.906 159.971C83.104 161.753 82.028 163.43 80.32 163.976C75.741 165.439 66.225 168 56.443 167.719C55.067 167.679 53.83 166.872 53.216 165.639C51.144 161.474 46.679 151.172 46.427 139.29C46.39 137.516 47.597 135.953 49.325 135.546Z" fill="#F95F13"/>
<path d="M331.275 196.965H287.297L291.846 236.457H291.85C291.914 237.773 299.694 238.837 309.285 238.837C318.877 238.837 326.657 237.773 326.72 236.457H326.724L331.275 196.965Z" fill="#EB573D"/>
<path d="M331.273 196.964C331.273 197.536 330.119 198.075 328.117 198.534C324.267 199.414 317.278 200.005 309.288 200.005C301.292 200.005 294.298 199.414 290.453 198.534C288.451 198.075 287.302 197.536 287.302 196.964C287.302 195.286 297.14 193.927 309.287 193.927C321.429 193.927 331.273 195.286 331.273 196.964Z" fill="#B3361E"/>
<path d="M331.261 197.057L331.022 199.131C326.973 200.218 318.761 200.966 309.287 200.966C299.813 200.966 291.595 200.218 287.546 199.131L287.307 197.038C287.608 198.685 297.327 200.005 309.286 200.005C321.196 200.005 330.892 198.691 331.261 197.057Z" fill="#EB7965"/>
<path d="M328.116 198.534C324.266 199.414 317.277 200.005 309.287 200.005C301.291 200.005 294.297 199.414 290.452 198.534C292.078 197.296 299.892 196.366 309.287 196.366C318.682 196.366 326.496 197.296 328.116 198.534Z" fill="#FFBF67"/>
<path d="M287.671 197.87C288.029 201.043 288.676 203.363 289.685 206.374C290.691 209.388 292.063 212.267 293.863 214.808C295.698 217.309 297.959 219.499 300.691 220.872C302.04 221.575 303.467 222.14 304.963 222.473C305.699 222.684 306.467 222.767 307.224 222.894C307.987 222.976 308.762 223.037 309.529 223.064C310.296 223.054 311.07 223.102 311.828 223.004C312.207 222.964 312.593 222.955 312.968 222.892L314.091 222.691C315.569 222.359 317.021 221.892 318.352 221.17C319.687 220.46 320.928 219.567 322.045 218.521C323.152 217.463 324.132 216.26 325.007 214.974C326.752 212.392 328.015 209.455 328.972 206.424C329.928 203.391 330.623 200.768 330.981 197.591L331.276 197.002C331.275 200.289 331.12 203.607 330.351 206.811C329.545 209.998 328.399 213.153 326.611 216.009C325.724 217.435 324.703 218.8 323.488 220.003C322.271 221.201 320.892 222.249 319.388 223.093C317.888 223.956 316.225 224.488 314.557 224.88L313.292 225.116C312.87 225.188 312.443 225.206 312.018 225.253C311.167 225.365 310.318 225.325 309.468 225.339C309.042 225.353 308.622 225.284 308.2 225.26C307.778 225.217 307.355 225.208 306.935 225.136C306.096 224.992 305.252 224.888 304.429 224.649C302.769 224.258 301.157 223.626 299.656 222.804C298.146 221.993 296.761 220.959 295.533 219.783C294.298 218.613 293.203 217.305 292.285 215.896C290.434 213.083 289.165 209.968 288.307 206.788C287.483 203.593 287.303 200.166 287.307 196.875L287.671 197.87Z" fill="#EB8776"/>
<path d="M247.926 183.108V228.57L259.319 230.213L267.353 183.108H247.926Z" fill="#CC6F49"/>
<path d="M258.921 228.57C258.921 228.57 262.933 233.992 270.655 234.814C270.655 234.814 275.009 235.718 275.502 238.347C275.502 238.347 250.527 238.922 247.652 238.347C244.777 237.772 248.912 225.613 248.912 225.613L258.921 228.57Z" fill="#CC6F49"/>
<path d="M247.016 238.837L275.049 238.777C275.425 238.776 275.73 238.47 275.729 238.094L275.728 237.64C275.727 237.264 275.421 236.959 275.045 236.96L247.012 237.02C246.636 237.021 246.331 237.326 246.332 237.703L246.333 238.157C246.334 238.534 246.64 238.838 247.016 238.837Z" fill="#FFBF67"/>
<path d="M264.432 238.107L265.295 238.684L268.757 233.505L267.696 233.342L264.432 238.107Z" fill="#FFBF67"/>
<path d="M213.758 183.108L211.621 229.967L223.369 228.324L233.144 183.108H213.758Z" fill="#CC6F49"/>
<path d="M212.373 228.324C212.373 228.324 207.189 233.746 199.289 234.568C199.289 234.568 194.74 235.472 193.678 238.101C193.678 238.101 218.528 238.676 221.528 238.101C224.528 237.526 223.021 225.367 223.021 225.367L212.373 228.324Z" fill="#CC6F49"/>
<path d="M222.249 238.837L194.216 238.777C193.84 238.776 193.535 238.47 193.536 238.094L193.537 237.64C193.538 237.264 193.843 236.959 194.22 236.96L222.253 237.02C222.629 237.021 222.934 237.326 222.933 237.703L222.932 238.157C222.931 238.534 222.625 238.838 222.249 238.837Z" fill="#FFBF67"/>
<path d="M204.834 238.107L203.97 238.684L200.508 233.505L201.569 233.342L204.834 238.107Z" fill="#FFBF67"/>
<path d="M225.525 87.1544C225.525 87.1544 217.145 96.7914 215.469 118.58C213.793 140.369 211.907 191.489 211.907 191.489H232.439L247.733 115.857L247.314 191.699H267.217C267.217 191.699 281.254 112.715 280.416 104.544C279.578 96.3734 273.622 85.7984 270.36 83.1744L225.525 87.1544Z" fill="#893308"/>
<path d="M225.329 86.9445C225.329 86.9445 217.774 105.59 217.145 121.303C216.649 133.694 217.457 151.687 217.82 158.742C217.911 160.51 219.223 161.971 220.972 162.247C228.737 163.473 250.02 166.216 265.536 162.374C266.949 162.024 268.014 160.865 268.281 159.434C270.17 149.321 277.506 108.83 276.226 96.5815C275.217 86.9285 271.973 83.3075 271.973 83.3075L225.329 86.9445Z" fill="#F95F13"/>
<path d="M227.956 53.4525C227.857 52.2695 227.246 50.9025 226.372 49.5225C223.664 45.2375 216.823 46.0065 215.777 50.7185L209.244 80.2345L182.666 59.6435L182.456 59.4795L178.092 64.5005C178.092 64.5005 178.125 64.5405 178.184 64.6185C179.314 66.0645 190.875 80.7535 205.88 95.4365C205.916 95.4725 205.953 95.5075 205.99 95.5435C211.255 100.68 220.117 98.3585 222.217 91.3085C222.299 91.0325 222.381 90.7565 222.462 90.4805C226.267 77.5265 228.85 64.1845 227.956 53.4525Z" fill="#CC6F49"/>
<path d="M180.397 53.0485C179.484 53.1965 179.026 56.5445 179.026 56.5445C179.026 56.5445 178.065 55.5775 176.854 54.4185C176.797 54.4735 176.741 54.5345 176.683 54.5845C175.434 56.2915 174.318 58.0995 173.216 59.9145C173.778 60.2385 174.166 60.4405 174.166 60.4405L172.997 60.2735C172.616 60.9015 172.234 61.5285 171.85 62.1535C175.159 64.1705 179.562 64.9155 179.562 64.9155L182.639 61.3495C183.187 60.1075 181.31 52.9005 180.397 53.0485Z" fill="#CC6F49"/>
<path d="M214.317 80.7644C212.626 80.7984 210.943 80.7434 209.265 80.6364L209.485 80.1284C211.718 82.0814 213.894 84.0984 215.889 86.3164C213.484 84.5534 211.26 82.5894 209.094 80.5624L208.457 79.9664L209.314 80.0544C210.986 80.2264 212.655 80.4504 214.317 80.7644Z" fill="#051934"/>
<path d="M161.353 76.1854C161.353 76.1854 152.432 81.3864 144.941 79.8884C143.761 79.6524 142.548 79.5894 141.354 79.7374C139.687 79.9444 137.88 80.5414 138.086 82.1704C138.46 85.1314 143.834 84.8664 143.834 84.8664C143.834 84.8664 139.948 88.8884 141.119 90.7354C142.29 92.5824 147.856 89.6944 147.856 89.6944C147.856 89.6944 144.44 96.0724 146.107 97.6014C147.774 99.1304 153.565 93.5754 153.565 93.5754C153.565 93.5754 153.186 100.508 154.834 101.216C156.483 101.924 159.854 95.9854 159.854 95.9854C159.854 95.9854 160.946 102.556 163.403 102.226C165.861 101.896 165.673 96.5104 165.228 94.7784C164.783 93.0464 161.395 82.3424 163.378 77.4984L161.353 76.1854Z" fill="#FFBF67"/>
<path d="M163.073 78.3245L160.667 76.6045L180.832 48.4035C181.307 47.7395 182.231 47.5855 182.895 48.0605C183.559 48.5355 183.713 49.4595 183.238 50.1235L163.073 78.3245Z" fill="#051934"/>
<path d="M166.169 74.3992L163.363 72.3923L160.448 76.4683L163.255 78.4752L166.169 74.3992Z" fill="#051934"/>
<path d="M144.132 84.7445C145.568 84.3915 146.986 84.0035 148.387 83.5675C149.786 83.1265 151.177 82.6655 152.531 82.1075C153.907 81.6055 155.229 80.9765 156.54 80.3275C157.86 79.6875 159.104 78.9145 160.369 78.1445C159.262 79.1235 158.061 80.0135 156.771 80.7525C155.487 81.5005 154.138 82.1375 152.76 82.6925C151.367 83.2095 149.958 83.6855 148.515 84.0315C147.072 84.3755 145.61 84.6475 144.132 84.7445Z" fill="#051934"/>
<path d="M160.054 95.1156C159.824 93.8046 159.724 92.4766 159.667 91.1486C159.614 89.8196 159.651 88.4876 159.719 87.1566C159.844 85.8306 159.981 84.5006 160.264 83.1936C160.556 81.8906 160.933 80.5996 161.52 79.4026C161.18 80.6896 160.929 81.9786 160.74 83.2786C160.559 84.5796 160.42 85.8876 160.345 87.2006C160.225 88.5116 160.198 89.8286 160.148 91.1466L160.054 95.1156Z" fill="#051934"/>
<path d="M148.636 89.3535C150.4 87.5905 152.284 85.9755 154.199 84.3965C156.125 82.8325 158.082 81.3045 160.159 79.9255C158.396 81.6895 156.511 83.3045 154.596 84.8825C152.67 86.4465 150.713 87.9735 148.636 89.3535Z" fill="#051934"/>
<path d="M153.769 93.3346C154.544 91.2676 155.489 89.2856 156.475 87.3256C157.478 85.3746 158.524 83.4446 159.741 81.6016C158.967 83.6696 158.023 85.6506 157.035 87.6106C156.03 89.5616 154.984 91.4916 153.769 93.3346Z" fill="#051934"/>
<path d="M176.933 54.3005C176.933 54.3005 174.851 53.7894 175.165 55.9114C175.165 55.9114 173 55.5475 173.65 57.9095C173.65 57.9095 171.669 57.7575 172.258 59.8005C172.258 59.8005 170.412 60.3505 171.04 61.7255C171.668 63.1005 174.026 62.5115 173.79 61.9615C173.554 61.4115 173.279 60.7835 173.279 60.7835C173.279 60.7835 174.693 61.6865 175.518 61.5295C176.343 61.3725 174.929 58.9365 174.929 58.9365C174.929 58.9365 176.736 60.1545 177.443 59.7225C178.15 59.2905 176.422 57.2085 176.422 57.2085C176.422 57.2085 178.386 58.7794 178.897 58.4264C179.408 58.0714 178.858 55.5185 176.933 54.3005Z" fill="#B36140"/>
<path d="M262.776 64.0975C263.123 58.4355 263.235 47.6925 260.749 42.4885L263.547 41.8625C260.605 37.1705 248.827 33.3245 246.228 32.5225C242.415 28.2715 239.925 17.0165 239.925 17.0165L231.304 26.5975C231.304 26.5975 231.092 32.2095 229.126 36.1995C216.859 42.3235 215.417 52.6385 215.417 52.6385L218.379 51.9755C218.914 55.0215 219.788 59.2095 220.92 61.9295C222.89 66.6615 227.797 72.0975 229.754 78.4195C234.73 77.7475 239.75 77.3755 244.716 76.6145C245.407 76.3735 246.099 76.1325 246.791 75.8935C252.049 74.0735 257.273 72.1575 262.49 70.2245C262.95 70.0545 263.421 69.8635 263.901 69.6615C263.135 67.7345 262.671 65.8175 262.776 64.0975Z" fill="#CC6F49"/>
<path d="M230.797 30.9105C231.06 30.8855 231.325 30.8415 231.586 30.7755C235.762 29.6465 239.071 25.0205 239.884 17.0645L239.825 17.1245C238.716 23.9505 235.609 27.9435 231.772 28.9835C231.552 29.0415 231.333 29.0815 231.106 29.1045C231.036 29.6565 230.939 30.2735 230.797 30.9105Z" fill="#C4533A"/>
<path d="M224.268 38.7055L225.525 52.5335L244.067 49.5475L246.267 31.9485L252.552 34.3055C252.552 34.3055 248.781 49.5475 252.238 54.1035C255.695 58.6605 263.866 60.0745 263.866 60.0745C263.866 60.0745 262.381 73.7395 271.974 83.3075C272.354 83.6865 272.191 84.3325 271.681 84.4965C266.684 86.1025 246.057 92.0905 225.477 88.7945C225.076 88.7305 224.806 88.3475 224.879 87.9485C225.392 85.1655 227.03 75.1165 224.739 71.0745C222.068 66.3605 217.511 62.3795 217.668 57.8235C217.825 53.2665 221.282 40.9055 221.282 40.9055L224.268 38.7055Z" fill="#FFBF67"/>
<path d="M291.044 122.799C291.044 122.795 291.044 122.794 291.044 122.79C291.018 121.863 290.853 117.079 290.314 110.073C289.628 101.138 288.331 88.5765 285.916 75.7745C285.518 73.6635 284.822 71.6175 283.843 69.7055C277.767 57.8335 270.569 46.5505 262.652 39.4535C261.975 38.8485 261.009 38.3695 259.885 37.9945C259.537 37.8825 259.169 37.7775 258.794 37.6785C253.891 36.4235 249.442 41.6745 251.913 45.8215L271.406 78.4335L284.485 124.17C283.24 126.4 281.79 130.5 282.418 130.821C283.241 131.242 285.591 128.813 285.591 128.813C285.591 128.813 287.019 138.329 287.756 137.756C288.493 137.183 288.211 131.335 288.211 131.335C288.211 131.335 289.938 138.468 290.864 137.398C291.79 136.328 290.732 130.893 290.732 130.893L293.085 135.313C293.197 135.523 293.482 135.534 293.579 135.325C294.351 133.664 291.812 128.547 291.812 128.547L294.724 131.397C295.012 131.679 295.446 131.43 295.391 131.02C294.97 127.839 292.443 124.461 291.044 122.799Z" fill="#CC6F49"/>
<path d="M242.025 12.3855C241.172 12.2345 240.593 12.4305 240.21 12.7005C240.237 5.72849 237.026 3.9955 237.026 3.9955C232.176 1.4985 227.733 1.5835 222.974 4.2585C222.974 4.2585 219.077 6.5455 220.352 15.6415C220.562 17.1135 220.845 18.4615 221.206 19.6965C221.6 21.0435 222.073 22.2535 222.626 23.3115C224.276 26.5255 226.582 28.4375 229.159 29.0365C229.527 29.1215 229.908 29.1415 230.29 29.1415H230.467C230.907 29.1345 231.348 29.1025 231.768 28.9835C235.516 27.9695 238.555 24.1365 239.732 17.6235C243.995 18.1895 243.945 12.7245 242.025 12.3855Z" fill="#CC6F49"/>
<path d="M227.264 14.2535C227.185 14.7645 227.139 15.2565 227.086 15.7445C227.034 16.2365 226.967 16.6995 226.923 17.2225C226.894 17.7335 226.943 18.3405 227.282 18.8215C227.45 19.0625 227.664 19.2575 227.968 19.3615C228.297 19.4265 228.53 19.3055 228.769 19.2135C228.518 19.1705 228.238 19.1735 228.089 19.0625C227.942 18.9505 227.807 18.7555 227.727 18.5675C227.561 18.1735 227.544 17.7365 227.579 17.2605C227.606 16.7875 227.65 16.2575 227.597 15.7505C227.554 15.2405 227.456 14.7345 227.264 14.2535Z" fill="#051934"/>
<path d="M231.685 18.8645C231.465 19.2275 231.216 19.5535 230.957 19.8565C230.691 20.1535 230.402 20.4195 230.074 20.6185C229.754 20.8285 229.392 20.9695 229.006 21.0395C228.621 21.1265 228.216 21.1235 227.787 21.1295C228.173 21.2955 228.602 21.4265 229.046 21.3935C229.49 21.3905 229.936 21.2445 230.315 21.0055C231.078 20.5215 231.571 19.7065 231.685 18.8645Z" fill="#051934"/>
<path d="M242.47 14.2216C242.346 13.9206 242.019 13.6986 241.667 13.6566C241.309 13.6006 240.936 13.7286 240.656 13.9406C240.377 14.1576 240.173 14.4626 240.083 14.7876C239.985 15.1096 239.996 15.4476 240.088 15.7536C240.322 15.1586 240.568 14.6686 240.979 14.3636C241.178 14.2066 241.404 14.1056 241.655 14.0716C241.907 14.0456 242.189 14.0656 242.47 14.2216Z" fill="#051934"/>
<path d="M241.485 16.1385C241.662 16.0385 241.777 15.8305 241.789 15.6185C241.81 15.4015 241.739 15.1906 241.632 15.0146C241.517 14.8466 241.368 14.6946 241.159 14.6136C240.959 14.5256 240.699 14.5515 240.555 14.7005C240.747 14.7625 240.85 14.8746 240.941 14.9686C241.026 15.0706 241.111 15.1826 241.183 15.3026C241.262 15.4166 241.32 15.5336 241.376 15.6606C241.423 15.7906 241.478 15.9375 241.485 16.1385Z" fill="#051934"/>
<path d="M230.183 14.8256C230.33 15.5306 230.768 16.0366 231.161 15.9546C231.554 15.8726 231.753 15.2346 231.605 14.5286C231.458 13.8226 231.02 13.3176 230.627 13.3996C230.234 13.4826 230.035 14.1206 230.183 14.8256Z" fill="#051934"/>
<path d="M233.072 18.8915C233.361 20.2745 234.716 21.1615 236.099 20.8725C237.482 20.5835 238.369 19.2285 238.08 17.8455C237.791 16.4625 236.436 15.5755 235.053 15.8645C233.67 16.1535 232.783 17.5085 233.072 18.8915Z" fill="#C4533A"/>
<path d="M223.98 23.4035C223.513 23.5025 223.047 23.4625 222.626 23.3115C222.074 22.2535 221.601 21.0445 221.206 19.6965C221.548 19.0455 222.166 18.5525 222.935 18.3955C224.322 18.1065 225.676 18.9935 225.965 20.3735C226.254 21.7605 225.366 23.1145 223.98 23.4035Z" fill="#C4533A"/>
<path d="M231.124 21.1465C230.902 21.2295 230.764 21.3565 230.605 21.4605C230.462 21.5905 230.326 21.6825 230.154 21.8425C230.385 21.9325 230.615 21.8195 230.791 21.7015C230.951 21.5525 231.099 21.3865 231.124 21.1465Z" fill="#051934"/>
<path d="M225.619 15.7785C225.766 16.4835 225.567 17.1225 225.175 17.2045C224.783 17.2865 224.344 16.7815 224.197 16.0755C224.05 15.3695 224.249 14.7315 224.641 14.6495C225.034 14.5685 225.471 15.0735 225.619 15.7785Z" fill="#051934"/>
<path d="M233.44 12.3685C233.33 11.9715 233.077 11.6326 232.762 11.3646C232.447 11.0916 232.043 10.9106 231.617 10.8356C231.191 10.7766 230.742 10.8056 230.359 10.9836C229.969 11.1356 229.645 11.4045 229.406 11.7305C229.817 11.6775 230.166 11.5916 230.511 11.5676C230.852 11.5286 231.176 11.5456 231.491 11.5976C232.13 11.6886 232.733 11.9855 233.44 12.3685Z" fill="#051934"/>
<path d="M222.522 14.5366C223.036 13.9186 223.485 13.4186 224.044 13.0956C224.317 12.9296 224.611 12.7936 224.942 12.7036C225.272 12.5966 225.628 12.5466 226.029 12.4436C225.686 12.2306 225.285 12.1016 224.866 12.1056C224.445 12.0816 224.017 12.2226 223.643 12.4356C223.275 12.6636 222.968 12.9826 222.777 13.3526C222.586 13.7186 222.476 14.1276 222.522 14.5366Z" fill="#051934"/>
<path d="M231.301 13.9505C231.301 13.9505 232.044 13.8445 232.492 13.5045C232.492 13.5045 232.011 14.4195 231.605 14.5295L231.301 13.9505Z" fill="#051934"/>
<path d="M224.288 15.4146C224.288 15.4146 223.565 15.6146 223.018 15.4826C223.018 15.4826 223.825 16.1286 224.241 16.0666L224.288 15.4146Z" fill="#051934"/>
<path d="M254.909 35.8015C254.884 35.5875 254.827 35.3805 254.758 35.1855C254.532 34.5885 254.167 34.0475 253.928 33.4505C253.08 31.3325 254.003 28.8875 253.488 26.6685C253.13 25.1415 252.112 23.8465 250.943 22.7965C249.78 21.7535 248.448 20.9045 247.235 19.9115C246.248 19.1135 245.293 18.1515 244.991 16.9135C244.784 16.0715 244.909 15.1915 244.928 14.3235C245.022 11.0295 243.859 7.76846 241.433 5.54346C241.238 4.16046 240.327 2.94747 239.189 2.14347C238.045 1.33947 236.688 0.892469 235.33 0.572469C232.646 -0.0625314 229.805 -0.263538 227.14 0.459462C225.952 0.779462 224.821 1.27646 223.702 1.79146C222.646 2.26946 221.584 2.77847 220.698 3.53247C218.976 4.99647 218.108 7.25946 217.819 9.49746C217.643 10.8045 218.008 12.1495 218.372 13.4135C219.384 16.9085 217.297 20.5915 217.605 24.2175C217.768 26.1155 218.623 27.9575 219.968 29.3085C220.76 30.1065 221.734 30.7665 222.231 31.7665C222.866 33.0425 222.608 34.5765 223.029 35.9335C223.368 37.0205 224.167 37.9385 225.179 38.4605C226.367 37.6685 227.674 36.9015 229.126 36.1915C230.251 33.9095 230.798 31.0945 231.068 29.1085C230.867 29.1275 230.666 29.1395 230.465 29.1395H230.289C229.906 29.1395 229.529 29.1205 229.158 29.0395C226.581 28.4365 224.274 26.5255 222.628 23.3135C222.075 22.2515 221.603 21.0445 221.208 19.6995C220.843 18.4615 220.561 17.1165 220.353 15.6455C220.291 15.2025 220.244 14.7805 220.206 14.3685C220.247 14.3875 220.284 14.4135 220.328 14.4275C220.854 14.5905 221.4 14.2955 221.876 14.0195C223.781 12.9145 225.858 11.9105 228.06 11.9425C229.082 11.9575 230.088 12.1975 231.109 12.2495C232.13 12.3015 233.225 12.1345 233.991 11.4585C234.663 10.8655 234.984 9.96747 235.145 9.08647C235.566 10.1625 235.86 11.1525 236.281 12.2285C236.436 12.6235 236.594 13.0255 236.86 13.3555C237.126 13.6855 237.521 13.9395 237.945 13.9295C238.205 13.9235 238.452 13.8225 238.692 13.7215C239.046 13.5735 239.401 13.4255 239.755 13.2775C239.967 13.1885 240.182 13.0985 240.365 12.9605C240.555 12.8175 240.696 12.6245 240.825 12.4235C241.148 12.3325 241.537 12.2975 242.024 12.3845C243.891 12.7175 243.991 17.8905 240.076 17.6575C240.667 20.0965 242.948 28.8325 246.198 32.4965L246.267 31.9495L252.552 34.3065C252.552 34.3065 252.514 34.4575 252.445 34.7405C253.25 35.0665 254.079 35.4245 254.909 35.8015Z" fill="#521802"/>
</svg>
